{"glyphs":{"0":{"ha":776,"x_min":25,"x_max":744,"o":"m 203 939 q 223 965 206 950 q 253 979 240 979 l 254 978 q 319 993 286 986 q 383 1001 351 1000 q 421 993 404 1001 q 447 997 435 994 q 474 999 460 999 q 538 969 513 1001 l 557 964 l 561 957 q 648 890 615 935 q 699 792 681 846 q 724 678 717 738 q 732 567 731 619 q 730 517 733 542 q 724 468 726 492 q 726 440 725 453 q 728 413 728 426 q 730 384 731 397 q 731 358 729 371 q 731 342 731 351 q 728 322 731 333 q 736 324 731 324 l 744 318 l 743 314 q 705 251 731 278 q 660 192 679 224 q 644 149 647 169 q 626 108 642 129 q 606 94 617 96 q 592 60 600 82 q 571 31 585 38 l 564 36 q 567 50 564 43 q 574 64 571 57 q 483 7 538 28 q 378 -17 429 -14 q 362 -17 369 -17 q 346 -15 354 -17 l 338 -22 q 326 -17 331 -19 q 315 -11 321 -14 q 278 7 294 1 q 249 20 263 13 q 225 40 236 28 q 203 79 214 53 l 185 86 l 181 85 q 164 92 172 88 q 150 103 156 96 l 157 110 q 138 137 146 124 q 124 164 131 150 l 124 158 q 122 147 124 154 q 114 139 121 140 q 102 142 111 139 q 83 151 93 146 q 65 160 74 156 q 57 168 57 165 q 64 175 57 175 q 72 172 65 175 q 86 165 78 169 q 101 158 94 161 q 110 153 108 154 l 110 158 q 99 208 110 185 q 85 257 89 232 q 86 244 85 254 q 88 224 88 235 q 88 206 89 214 q 82 197 86 197 q 75 203 78 197 q 59 278 63 235 q 51 358 56 322 q 43 376 44 363 q 42 397 42 390 l 42 413 q 35 408 40 408 q 28 415 28 408 l 25 501 q 28 510 25 508 q 27 525 26 517 q 29 540 28 533 q 38 639 32 586 q 61 733 43 692 q 74 751 65 743 q 74 760 74 757 q 78 769 75 763 q 80 781 81 775 q 79 792 79 786 l 79 793 q 72 799 72 793 q 75 817 72 803 q 69 825 74 818 q 80 843 69 831 q 103 868 90 856 q 129 891 117 881 q 147 901 142 901 q 153 900 151 901 q 180 922 165 911 q 203 939 194 932 m 513 974 q 507 979 510 976 q 500 983 504 982 l 490 979 l 513 974 m 240 947 l 246 944 l 253 947 l 276 969 q 257 964 267 967 q 240 957 247 961 l 242 954 l 233 942 l 240 947 m 269 935 q 281 939 276 936 q 292 944 286 942 l 289 947 l 272 939 l 269 935 m 308 943 l 297 943 l 293 938 l 308 943 m 528 919 q 488 947 510 942 q 506 932 496 940 q 528 919 515 924 q 539 907 535 915 l 546 903 q 536 919 540 914 l 528 919 m 497 947 q 510 941 504 944 q 522 933 515 938 q 512 941 517 938 q 500 947 507 944 l 497 947 m 531 946 l 539 942 l 535 949 l 525 949 l 531 944 l 531 946 m 268 935 l 269 938 l 267 935 l 268 935 m 426 935 q 440 933 436 935 q 419 942 431 940 l 426 935 m 604 878 q 617 867 611 872 q 628 856 622 863 q 626 874 628 863 q 631 890 624 885 q 597 921 615 907 q 556 943 578 935 q 568 921 563 932 q 578 897 574 910 l 604 878 m 350 932 q 373 934 361 933 q 396 935 385 935 l 396 938 l 385 938 l 376 938 l 360 935 l 351 935 l 350 932 m 185 907 l 194 915 l 183 907 l 185 907 m 433 907 q 420 908 426 907 q 407 911 414 908 l 386 906 l 389 901 q 395 901 392 901 q 401 900 399 900 l 407 900 q 423 901 415 900 q 439 901 431 903 l 433 907 m 465 894 q 463 903 463 899 q 461 911 463 907 l 449 908 l 456 899 l 465 894 m 207 843 q 224 872 217 858 q 239 901 232 886 q 219 878 228 890 q 200 851 210 865 l 207 843 m 310 903 q 299 901 304 903 q 289 897 294 899 l 263 869 l 269 874 q 294 892 274 886 q 325 901 314 899 l 324 903 l 322 903 l 310 903 m 185 864 q 198 878 192 871 q 211 894 204 886 l 207 897 q 204 895 206 896 q 201 893 203 894 l 186 879 l 185 864 m 421 840 q 414 842 417 840 q 408 846 411 843 q 380 865 393 860 q 347 879 367 869 l 321 878 q 301 867 313 871 q 278 863 289 864 q 241 800 258 844 q 211 705 224 756 q 193 606 199 654 q 190 529 188 557 l 192 517 l 194 511 q 197 480 196 496 q 197 449 197 464 q 197 418 199 433 q 197 386 194 403 q 212 342 200 363 q 225 297 224 322 q 222 283 225 288 q 242 248 231 265 q 260 208 253 231 q 264 203 263 206 q 268 199 265 201 l 283 181 q 292 171 289 175 l 292 169 l 297 161 q 313 151 303 158 q 334 137 324 144 q 352 122 344 129 q 361 108 360 114 l 357 101 l 365 99 q 411 119 389 107 q 456 144 433 132 q 498 224 475 189 q 547 300 521 260 q 544 324 544 307 q 554 342 544 342 l 561 335 l 561 319 l 568 313 l 567 307 q 566 285 569 296 q 561 264 563 275 l 568 264 q 572 301 572 282 q 575 339 571 319 q 587 410 582 374 q 590 482 592 446 q 583 538 589 511 q 578 594 578 565 l 578 601 l 581 604 l 579 614 l 572 619 q 564 667 567 644 q 550 714 561 690 q 543 727 546 715 q 538 753 540 739 q 533 781 535 768 q 531 799 531 794 l 533 804 l 533 806 l 528 818 q 511 831 519 824 q 496 846 503 838 l 489 836 q 462 849 475 843 q 442 871 449 856 q 439 873 440 872 q 436 875 438 874 l 424 881 q 421 883 422 882 q 418 885 419 883 q 400 885 408 885 q 382 882 392 885 q 402 871 394 876 q 419 854 410 865 l 429 851 q 467 803 447 839 q 502 724 486 767 q 529 643 518 682 q 540 585 540 604 l 540 582 l 535 574 q 526 592 529 575 q 519 629 522 608 q 513 669 515 650 q 510 694 511 689 q 496 730 506 708 q 474 773 486 751 q 447 813 461 794 q 421 840 433 832 m 89 836 q 113 850 104 842 q 117 856 115 853 q 122 861 119 858 q 125 867 122 864 q 106 851 115 858 q 89 836 97 844 m 132 847 q 138 840 138 844 q 143 849 140 844 q 149 860 146 854 l 132 847 m 540 826 q 548 821 544 824 q 556 815 551 818 l 529 871 l 525 865 l 526 860 q 531 850 529 854 q 536 843 533 846 l 533 838 l 540 826 m 708 554 q 715 543 715 551 q 715 528 715 535 q 717 522 717 526 q 717 518 717 519 q 718 515 718 517 l 718 565 q 714 644 717 604 q 704 724 711 685 q 685 801 697 764 q 649 871 672 839 q 656 824 651 847 q 667 776 661 800 q 672 771 669 776 q 679 744 675 757 q 688 719 683 732 q 697 694 693 707 q 703 667 701 681 q 708 646 708 661 q 707 625 707 631 l 707 614 q 707 585 707 600 q 710 556 707 571 l 708 554 m 136 838 q 138 839 138 838 l 136 838 m 221 814 q 228 828 225 821 q 236 842 231 835 q 226 827 231 835 q 218 813 222 819 l 221 814 m 183 813 q 190 825 189 821 l 185 819 l 183 813 m 138 801 q 142 812 140 807 q 147 822 144 817 l 138 803 l 138 801 m 96 803 q 97 807 96 806 q 97 811 97 808 l 93 807 l 93 804 l 93 800 l 96 803 m 107 789 q 110 794 110 792 q 114 800 111 797 l 114 803 l 118 811 q 113 804 115 808 q 108 797 111 800 l 107 789 m 164 788 l 167 790 l 171 797 q 174 800 174 800 l 171 804 l 168 801 l 164 788 m 632 796 l 638 794 q 633 817 636 807 l 633 811 q 633 804 633 808 q 629 799 632 800 q 631 794 631 797 l 632 796 m 211 801 q 197 780 204 790 q 188 756 190 769 q 201 769 193 764 q 214 781 210 774 l 207 786 l 207 790 l 211 797 l 211 801 m 590 804 l 589 800 l 596 789 l 590 804 m 583 743 q 576 769 578 756 q 567 794 575 783 q 558 799 563 797 q 549 803 553 800 q 553 788 550 799 q 558 767 556 778 q 566 748 561 756 q 576 740 571 740 l 583 743 m 188 783 l 188 789 q 173 771 183 778 q 156 754 163 764 q 163 743 160 753 l 188 783 m 206 731 q 206 749 204 740 q 208 769 207 758 q 201 757 206 763 q 194 746 197 751 q 203 740 200 746 q 206 731 206 735 m 608 761 q 619 744 614 754 q 618 747 618 746 l 618 751 l 615 776 q 611 769 613 772 q 608 761 610 765 m 131 588 q 131 667 132 626 q 144 743 131 707 l 140 742 q 132 712 136 726 q 128 682 128 697 l 131 588 m 75 674 q 80 707 79 690 q 85 740 81 724 q 76 708 79 724 q 75 674 74 692 m 543 749 l 544 749 q 543 751 544 750 l 543 749 m 106 669 q 108 697 107 683 q 110 724 110 710 l 110 731 q 106 706 107 718 q 101 682 104 693 l 106 669 m 561 721 q 574 692 565 708 q 571 703 572 699 q 569 715 569 708 q 572 726 569 721 q 553 740 560 728 q 554 725 553 731 l 561 721 m 65 590 l 67 589 l 68 613 q 63 638 64 625 q 61 665 61 651 q 72 725 60 694 q 51 634 57 690 q 42 528 44 578 q 49 521 49 528 l 54 439 q 60 434 60 439 q 63 425 61 429 q 66 419 64 422 q 69 413 68 415 q 70 410 69 411 q 71 408 71 410 q 62 495 65 451 q 57 585 58 539 l 65 590 m 654 683 q 649 704 651 697 q 641 722 644 714 q 636 733 638 731 q 644 708 639 721 q 654 683 649 696 m 621 685 q 615 710 621 699 l 611 704 l 619 671 l 619 676 l 621 685 m 685 664 l 686 663 l 686 665 q 683 671 683 668 q 681 689 682 681 q 676 704 679 697 l 676 707 q 678 692 678 701 q 680 678 679 685 q 681 665 681 672 q 679 661 681 663 l 685 664 m 589 642 l 589 650 q 585 660 586 656 q 581 669 583 664 q 585 647 585 657 q 583 636 585 640 l 589 642 m 86 593 q 86 615 86 604 q 93 636 86 626 l 92 650 q 90 636 90 643 q 86 622 89 629 l 86 618 l 85 610 l 86 593 m 604 615 l 601 621 l 603 613 l 604 615 m 153 590 q 153 556 151 572 l 154 556 l 153 590 m 83 551 l 81 556 l 81 546 l 82 553 l 83 551 m 682 525 l 682 519 l 682 515 l 683 508 l 683 504 l 686 506 q 685 517 685 511 q 682 528 685 522 l 682 525 m 107 428 l 107 422 l 108 410 l 108 403 q 116 427 115 414 q 117 453 117 440 l 115 501 l 114 504 q 110 431 110 465 l 107 428 m 675 486 l 678 493 l 678 506 l 679 508 l 678 519 q 677 507 676 513 q 675 496 678 501 l 676 494 l 675 486 m 679 490 l 679 497 l 681 510 l 681 517 q 680 505 679 510 q 678 493 681 500 l 679 490 m 667 494 q 665 507 667 503 l 667 494 m 674 486 l 674 482 l 675 486 l 674 486 m 664 482 l 661 481 l 661 458 l 664 482 m 671 439 l 671 444 l 672 456 l 672 461 q 668 433 668 447 l 671 439 m 608 385 q 611 406 611 396 q 614 426 611 417 l 621 432 l 625 431 q 622 440 625 435 q 621 449 619 444 l 614 439 l 608 442 l 606 433 l 606 422 l 606 413 l 607 396 q 608 385 608 392 m 671 389 q 674 415 672 403 q 675 440 675 428 l 671 439 q 670 415 671 426 q 671 389 669 403 m 667 425 q 662 395 664 410 q 657 365 660 381 q 647 344 654 351 l 656 342 q 650 317 653 329 q 649 289 647 304 l 649 286 q 653 315 653 301 q 656 342 654 328 q 656 353 656 349 q 657 365 656 358 l 657 368 q 657 343 656 356 l 656 342 l 657 342 q 655 319 657 331 q 653 297 653 308 l 653 281 l 660 296 l 660 306 l 656 310 q 665 353 663 331 q 667 399 667 375 l 667 425 m 111 304 q 119 352 115 328 q 122 400 122 376 q 117 387 119 393 q 108 375 115 381 l 107 375 l 111 304 m 690 400 l 690 415 q 690 404 689 410 q 689 392 690 399 l 690 400 m 607 271 q 622 305 613 289 q 631 340 632 321 l 628 408 l 626 411 q 618 342 622 376 q 607 271 614 307 m 67 365 q 65 373 65 369 q 64 381 65 376 q 63 365 64 369 l 67 365 m 167 360 q 172 349 169 354 q 181 339 175 343 l 185 338 q 182 356 182 347 q 182 376 182 365 l 175 369 l 171 368 l 167 369 l 167 360 m 597 353 q 594 363 594 354 q 593 375 593 372 q 590 361 592 368 q 590 347 589 354 l 590 343 l 592 335 l 592 331 l 597 353 m 692 371 q 688 345 689 361 q 679 321 686 329 l 675 306 q 686 333 681 319 q 692 361 692 346 l 692 371 m 167 315 q 172 299 167 313 q 178 283 176 286 q 175 301 176 292 q 174 318 174 310 l 167 331 l 167 315 m 707 313 q 711 318 710 315 q 708 315 708 317 q 707 313 708 314 m 694 292 q 696 296 696 293 l 694 292 m 582 231 q 590 258 586 244 q 597 286 594 271 q 588 259 592 272 q 582 231 585 246 m 679 244 q 694 267 686 256 q 710 289 701 278 q 692 267 700 278 q 679 244 685 257 m 619 250 q 625 263 624 256 q 626 278 626 271 l 619 250 m 483 169 q 512 209 504 189 q 532 254 519 229 q 506 213 515 232 q 483 169 497 193 m 622 197 l 611 165 q 617 183 614 174 q 624 200 621 192 q 618 178 621 189 q 610 156 615 167 q 631 183 619 171 q 650 213 643 196 q 640 222 642 213 l 642 225 l 642 226 l 635 233 l 636 242 q 630 220 633 231 q 622 199 626 210 l 622 197 m 215 186 q 222 175 218 179 q 233 165 226 171 q 247 169 238 169 q 265 163 258 169 q 254 176 261 169 q 247 193 247 183 l 249 194 l 249 196 l 243 206 q 244 192 244 201 l 238 185 l 231 189 q 225 201 228 194 q 219 215 222 208 q 215 186 222 196 m 606 225 q 596 206 601 215 q 586 185 590 196 q 597 205 593 194 q 606 225 601 215 m 204 169 q 192 194 200 182 l 199 175 l 204 169 m 565 188 l 557 174 l 558 169 l 565 188 m 496 110 q 524 142 515 126 q 536 185 533 158 q 517 147 524 164 q 496 110 511 131 m 249 153 q 247 156 249 154 l 244 154 l 249 153 m 276 142 q 283 138 279 139 q 289 133 286 136 l 285 138 l 278 146 l 274 150 l 276 142 m 222 146 q 224 137 224 142 q 224 128 224 132 l 226 124 q 225 143 226 136 l 222 146 m 261 135 q 249 146 257 138 l 249 143 q 261 133 253 139 l 261 135 m 339 107 l 340 113 q 325 126 333 121 q 308 138 317 132 q 323 126 314 132 q 333 111 332 121 l 339 107 m 603 140 l 601 140 l 599 138 l 613 143 l 611 143 l 610 142 l 608 142 l 610 142 q 606 143 610 143 l 608 142 l 603 140 m 426 89 q 453 100 442 92 q 478 115 465 108 q 479 126 479 121 q 482 135 479 131 q 456 110 469 122 q 426 89 442 99 m 613 114 q 622 126 618 121 q 629 139 625 132 q 621 126 625 132 q 611 114 617 121 l 611 113 l 613 114 m 272 125 q 276 124 275 125 q 281 121 278 122 l 286 118 q 290 115 289 117 q 293 111 290 113 l 292 115 l 274 126 l 272 125 m 546 88 q 568 103 560 92 q 583 126 576 114 l 546 88 m 269 107 l 281 103 l 269 110 l 269 107 m 486 103 l 483 104 l 478 99 l 486 103 m 339 92 l 328 97 l 328 96 l 339 92 m 400 89 l 408 93 l 397 90 l 400 89 m 314 82 q 299 83 307 83 q 285 86 292 83 q 302 81 293 83 q 321 75 311 78 l 314 82 m 546 60 q 586 94 571 72 l 544 64 l 546 60 m 242 68 q 249 61 246 65 q 256 53 253 57 q 250 63 253 58 q 244 74 247 68 l 238 75 l 242 68 m 408 56 q 433 68 425 58 l 432 69 l 431 69 q 406 67 418 68 q 382 68 394 65 l 408 56 m 333 1 q 306 17 321 7 q 290 43 292 26 l 294 50 l 292 51 q 271 61 279 51 l 271 57 q 297 22 282 40 q 333 -1 313 3 l 333 1 m 347 47 l 350 51 l 354 51 q 339 58 347 57 l 340 50 l 347 47 m 490 61 l 483 60 l 468 49 l 490 61 m 306 40 q 317 26 308 32 q 332 17 325 21 q 332 26 332 21 q 331 35 332 31 q 306 40 319 38 m 514 39 q 519 41 517 40 q 525 44 522 42 q 524 44 524 44 q 522 43 524 43 l 515 40 q 515 40 514 40 q 514 39 515 39 m 275 18 q 276 17 276 18 q 278 17 276 17 l 285 13 q 286 12 286 13 q 288 11 286 11 q 278 22 282 17 q 269 33 274 28 l 275 18 m 457 28 q 470 33 464 31 q 483 38 476 35 l 479 39 l 457 28 m 388 13 q 402 17 394 15 q 417 22 410 19 l 421 31 q 400 26 411 26 q 394 19 397 22 q 388 14 390 17 l 388 13 m 349 13 l 349 15 l 350 21 l 346 25 l 347 13 l 349 13 z "},"1":{"ha":419,"x_min":-35,"x_max":640,"o":"m 122 -6 q 115 1 115 -6 q 117 6 115 4 q 115 10 115 7 q 97 9 106 10 q 82 10 89 8 q 75 15 75 10 q 82 24 75 24 q 113 28 97 26 q 143 35 128 29 l 135 35 q 115 33 124 35 q 97 29 107 31 q 81 28 89 28 q 65 28 74 28 q 48 29 60 28 q 36 38 36 31 q 39 43 36 40 l 35 43 q 25 50 25 43 q 32 57 25 57 q 60 63 47 60 q 88 71 74 67 l 57 71 q 0 67 28 67 q -10 67 -3 67 q -17 74 -17 68 q -9 81 -17 79 q 9 84 -1 83 q 29 85 19 85 q 43 85 39 85 l 63 85 l 65 86 l 67 86 l 93 92 q 107 94 101 94 q 124 97 115 96 q 142 97 133 97 q 128 101 135 99 q 122 111 122 104 q 129 118 122 118 q 135 113 135 118 q 146 110 140 110 q 158 110 151 110 l 158 115 q 156 126 158 124 q 148 135 149 125 q 147 149 147 144 q 148 182 147 165 q 150 214 149 199 q 147 230 147 217 q 146 247 146 243 l 146 300 l 149 407 l 149 525 q 140 547 142 528 q 139 571 139 565 q 139 584 139 575 q 140 603 139 593 q 142 621 140 613 q 150 632 144 629 q 151 650 150 640 q 153 668 151 660 l 153 671 l 151 675 q 147 682 147 679 l 146 736 l 146 769 q 144 777 146 774 q 143 783 143 781 l 143 793 l 142 814 l 142 824 q 113 813 126 818 q 86 803 100 808 l 56 789 q 46 785 50 786 l 44 785 q 36 792 36 785 q 42 799 36 793 q 39 804 39 801 l 33 801 q 26 808 26 801 q 29 817 26 811 q 35 825 32 822 l 53 844 q 19 827 38 835 q -6 817 1 819 l -7 815 l -8 815 l -24 811 q -26 810 -26 810 l -28 808 q -35 814 -35 808 q -30 823 -35 821 q -18 828 -25 825 l 18 847 q 10 856 10 847 q 15 863 10 858 q 2 858 7 860 q -4 857 -3 857 q -12 863 -12 857 q -4 875 -12 867 l -4 878 q 6 890 -4 882 q 29 904 15 897 q 71 935 50 921 q 99 949 92 949 q 106 942 106 949 q 99 932 106 938 q 82 920 92 926 q 64 909 72 914 q 51 901 56 904 q 77 913 65 907 q 101 928 89 918 l 104 929 q 111 933 108 933 q 147 968 131 953 q 165 983 163 983 q 174 975 174 983 q 171 960 174 968 l 171 961 q 178 965 175 964 q 183 967 181 967 q 194 974 185 974 l 199 971 q 208 972 204 971 q 217 972 211 972 l 218 974 q 226 978 222 978 q 231 976 229 978 q 237 978 233 978 q 243 979 240 978 l 271 985 q 277 986 274 986 q 283 988 281 986 q 293 994 288 994 q 299 990 297 994 q 309 993 304 992 q 321 997 314 994 l 324 999 q 335 992 335 999 q 364 1000 350 994 q 393 1006 378 1006 q 400 999 400 1006 q 393 988 400 989 q 381 983 386 986 q 344 960 364 974 q 304 939 324 946 l 304 932 q 311 939 310 936 q 319 942 313 942 l 324 942 q 340 951 332 947 q 357 956 347 956 q 363 953 360 956 l 367 953 q 376 952 371 953 q 381 946 381 951 q 374 939 381 939 l 360 939 q 344 928 353 932 q 326 919 335 924 l 328 921 q 344 928 336 924 q 361 933 353 933 q 368 926 368 933 q 362 917 368 922 q 347 908 356 913 q 328 901 338 904 q 314 894 319 897 q 316 883 315 888 q 317 871 317 878 l 319 863 l 319 858 q 313 853 319 853 q 311 839 311 846 q 310 825 311 832 l 310 797 l 308 775 l 308 764 q 312 742 308 753 q 315 719 315 731 q 314 712 315 717 q 308 707 313 707 q 300 714 303 707 l 296 614 q 300 608 300 610 q 300 558 300 588 q 299 500 300 529 q 301 469 301 485 q 300 449 300 454 q 300 430 300 444 q 299 400 300 415 l 299 249 q 304 242 304 249 q 306 199 307 225 q 306 156 306 174 q 306 136 306 151 q 303 111 306 121 q 313 113 308 111 q 321 115 317 114 l 333 118 q 343 121 339 119 q 351 122 347 122 l 401 121 q 411 120 407 121 q 415 113 415 119 q 410 105 415 108 q 397 99 404 101 q 383 96 390 97 q 372 94 376 94 q 338 94 356 94 q 303 93 321 93 l 303 92 l 310 92 q 319 93 315 93 q 326 93 324 93 q 335 86 335 93 q 331 79 335 82 q 324 78 329 79 q 311 78 319 78 l 308 76 l 382 76 q 415 83 414 83 q 421 89 417 86 q 428 92 425 92 l 633 92 q 640 85 640 92 q 633 78 640 78 q 550 77 592 78 q 467 74 508 76 q 468 69 468 72 q 461 63 468 63 q 441 61 451 61 q 419 61 431 61 q 401 60 411 61 q 378 60 390 60 q 373 53 378 53 q 364 51 368 53 l 349 47 l 356 47 l 368 49 l 375 49 q 382 47 378 49 q 386 42 386 46 q 379 35 386 38 q 341 28 360 31 q 303 25 322 26 l 361 25 q 376 24 365 25 q 386 15 386 22 l 385 14 l 385 13 q 399 13 389 13 q 419 14 408 14 q 437 12 429 14 q 444 6 444 10 q 438 -1 444 -1 l 331 -1 q 325 -6 329 -6 l 296 -6 q 294 -14 296 -10 q 288 -18 293 -18 q 282 -14 283 -18 q 281 -6 281 -10 l 251 -6 q 247 -46 250 -24 q 239 -87 243 -68 q 230 -120 235 -107 q 218 -133 225 -133 q 211 -126 211 -133 l 211 -126 q 218 -66 214 -96 q 226 -6 222 -36 l 168 -6 q 160 -8 163 -8 q 158 -22 158 -15 q 156 -36 157 -29 q 150 -43 156 -43 q 142 -36 142 -43 q 142 -22 142 -29 q 143 -8 142 -15 q 142 -6 142 -8 l 122 -6 m 304 954 q 329 967 317 960 q 351 982 342 975 q 328 976 340 979 q 303 969 315 972 q 303 963 303 967 q 304 954 304 958 m 204 921 l 206 922 l 208 924 l 210 925 l 208 925 l 206 924 l 204 924 l 204 921 m 290 888 l 290 885 l 292 886 l 290 888 m 174 883 l 140 864 l 142 864 l 146 865 q 158 870 153 868 q 169 875 164 872 q 176 883 171 878 l 175 883 l 174 882 l 174 883 m 249 806 q 249 840 249 822 q 250 874 249 857 l 238 869 q 242 837 239 853 q 249 806 244 821 m 272 797 q 273 834 272 815 q 274 865 274 853 q 273 862 274 863 q 272 858 272 861 l 269 842 q 269 838 269 839 q 268 835 268 838 l 269 747 l 269 739 q 270 750 269 742 q 272 760 271 758 l 272 797 m 211 861 l 208 858 q 211 847 211 853 l 211 861 m 68 824 q 76 826 68 824 q 95 838 86 833 q 111 847 104 843 l 103 847 q 92 840 97 843 q 85 835 88 838 q 78 831 82 833 q 68 824 75 828 m 190 846 l 189 846 q 189 840 189 843 q 188 832 189 836 l 190 832 l 190 846 m 104 824 q 143 838 128 831 q 147 844 146 843 q 133 840 140 843 q 119 833 126 836 q 113 828 117 831 q 104 824 108 826 m 161 826 q 162 822 161 824 q 163 819 163 821 l 163 824 q 161 829 163 826 l 161 826 m 238 779 l 239 779 l 238 786 l 238 779 m 267 672 l 267 675 l 267 690 q 265 685 265 688 q 264 681 265 683 q 263 674 264 678 q 263 668 263 671 q 265 664 261 668 l 265 667 l 267 672 m 233 665 l 232 686 q 225 689 228 686 l 225 663 q 229 664 226 664 q 231 663 231 664 q 232 663 231 663 l 233 665 m 215 619 q 216 627 215 622 q 218 639 217 632 l 215 639 l 215 619 m 194 565 q 196 560 196 563 q 197 556 196 558 l 197 560 l 199 568 l 199 572 l 199 590 q 196 567 196 576 l 194 565 m 238 431 q 247 496 244 463 q 249 563 249 529 l 246 558 q 247 533 246 546 q 244 508 247 519 q 239 501 244 501 l 238 475 l 238 431 m 224 546 l 224 539 l 224 546 m 189 525 l 189 526 l 188 528 l 188 529 l 188 525 l 189 525 m 221 396 q 222 447 222 421 q 225 501 222 474 l 225 514 l 222 514 q 220 455 221 485 q 219 396 219 425 l 221 396 m 260 356 q 257 377 258 367 q 254 399 256 388 l 251 385 q 253 374 253 381 l 257 350 q 258 344 257 347 q 258 339 258 342 l 260 356 m 244 281 q 245 294 244 288 q 247 307 246 300 q 247 310 247 308 q 246 313 246 311 l 246 322 q 245 325 246 324 q 244 328 244 326 q 244 322 244 325 q 243 313 243 318 l 243 308 l 243 301 l 244 288 l 244 281 m 285 204 l 285 297 q 283 278 283 288 q 281 261 282 269 q 283 237 283 250 q 283 210 283 224 q 284 208 283 208 q 285 204 285 207 m 228 111 q 229 123 229 118 q 231 135 229 128 l 235 181 q 237 193 236 188 q 238 204 238 199 q 236 217 236 211 q 235 231 236 224 q 231 191 232 211 q 229 151 231 171 q 229 133 229 142 q 228 114 229 124 l 228 111 m 186 111 l 186 122 l 179 119 l 178 110 l 186 111 m 225 92 l 231 92 l 231 96 q 225 94 228 96 l 225 92 m 222 69 l 228 69 l 228 75 l 213 74 l 213 71 l 222 69 m 176 26 q 179 28 179 26 l 182 28 l 176 26 z "},"2":{"ha":726,"x_min":10,"x_max":813,"o":"m 497 217 q 477 188 497 200 q 431 164 457 175 q 379 143 404 153 q 344 122 354 133 q 407 126 376 122 q 469 131 438 131 l 475 125 l 489 124 l 490 122 q 497 123 493 122 q 506 124 501 124 l 511 121 l 529 128 q 546 137 529 135 q 568 139 563 139 q 589 290 583 214 q 615 439 594 365 l 622 444 l 629 438 q 633 339 633 388 q 633 274 633 307 q 633 210 632 242 l 639 201 l 639 197 l 646 190 l 646 175 l 650 174 l 649 178 q 657 204 653 192 q 664 231 661 217 l 671 236 l 676 229 l 675 193 l 678 188 q 677 156 678 172 q 676 124 676 139 q 693 123 681 124 q 706 115 706 122 q 676 100 692 104 q 677 74 676 92 q 674 50 678 57 l 672 39 q 807 35 740 42 l 813 28 q 793 13 813 18 q 749 6 774 8 q 701 2 724 3 q 671 1 678 1 q 670 -28 671 -14 q 668 -57 669 -42 l 661 -64 q 653 -56 654 -64 q 653 -44 653 -49 q 653 -33 653 -39 q 654 -22 654 -28 l 650 -29 q 644 -67 647 -49 q 640 -104 640 -85 q 641 -117 640 -108 q 635 -125 642 -125 q 626 -116 628 -125 q 625 -101 625 -107 q 626 -50 625 -75 q 628 1 628 -25 l 618 1 q 613 -10 615 -4 q 604 -18 611 -17 q 593 -32 601 -24 l 586 -26 q 584 -12 585 -19 q 583 1 583 -6 l 308 1 q 251 -13 285 -11 q 190 -15 217 -15 q 178 -14 185 -15 q 171 -6 171 -12 l 172 -4 q 163 -3 168 -3 q 154 -3 158 -3 q 106 -8 131 -3 q 56 -14 81 -14 l 50 -7 q 57 -1 51 -3 q 65 1 63 0 l 63 4 q 49 3 56 3 q 35 3 42 3 l 29 10 l 32 19 q 24 19 29 19 q 18 26 18 19 l 25 33 l 38 35 l 35 39 q 40 47 35 43 q 53 53 46 50 q 68 57 61 56 q 79 58 75 58 l 85 72 q 69 68 78 69 q 54 67 61 67 l 53 67 l 47 74 q 54 81 47 78 q 69 85 61 83 q 86 88 78 88 q 97 89 94 89 l 101 93 l 90 93 l 83 100 q 97 111 83 110 q 118 113 111 113 q 158 153 138 133 q 201 193 179 174 l 201 194 q 208 201 204 197 q 214 204 211 204 q 254 257 233 232 q 297 307 275 282 q 305 329 299 314 q 318 344 311 344 l 325 340 q 355 396 342 367 q 381 454 368 425 q 410 511 394 483 q 447 563 425 539 q 447 631 447 597 q 451 700 446 665 l 458 707 q 466 694 465 707 q 467 678 467 682 q 467 644 467 661 q 464 611 467 628 q 474 635 471 624 q 478 661 478 647 q 476 678 478 665 q 473 704 475 690 q 467 729 471 718 q 461 743 464 740 q 447 778 454 760 q 439 817 439 797 l 444 826 l 415 865 l 417 869 q 389 890 403 881 q 360 910 375 900 q 342 908 350 907 q 324 908 333 908 q 271 883 294 907 q 232 836 247 860 q 231 829 232 833 q 231 822 231 825 l 231 817 q 257 819 244 818 q 283 821 269 821 l 290 814 q 282 805 290 808 q 263 799 274 801 q 242 796 253 797 q 228 794 232 794 q 242 794 232 794 q 262 794 251 794 q 280 790 272 793 q 288 783 288 788 l 281 776 l 222 772 q 232 764 232 769 l 229 760 q 303 769 267 765 q 379 772 340 772 l 385 765 q 372 756 385 760 q 344 750 360 751 q 314 748 329 749 q 294 747 299 747 q 282 748 288 747 q 271 751 276 749 l 214 743 q 216 712 215 728 q 217 681 217 696 q 217 670 217 678 q 216 655 217 663 q 214 641 215 647 q 210 635 213 635 q 202 646 203 635 q 201 661 201 657 q 202 676 201 668 q 203 690 203 683 l 200 693 l 200 704 q 189 719 190 704 q 185 740 188 733 l 169 739 q 168 710 168 724 q 165 681 168 696 l 160 674 q 153 683 156 675 q 148 702 150 692 q 145 723 146 713 q 143 738 144 733 l 133 736 l 133 732 l 132 729 l 125 724 l 121 725 q 119 716 121 722 q 116 704 118 710 q 110 695 114 699 q 103 694 107 692 q 101 694 101 694 q 99 693 100 693 q 92 710 93 693 q 92 733 92 728 q 71 733 88 732 q 54 740 54 733 q 47 740 50 740 q 39 738 43 739 l 31 746 l 36 753 q 38 763 32 760 q 50 765 44 765 q 41 765 47 765 q 28 764 35 764 q 15 766 21 764 q 10 772 10 768 l 17 779 q 51 777 33 779 q 86 776 68 775 q 97 833 86 804 l 99 835 q 104 869 96 854 q 111 885 103 875 q 131 906 119 894 q 155 926 143 917 q 171 938 167 935 q 150 935 160 936 q 129 935 140 935 l 122 942 l 126 947 q 181 967 153 963 q 235 982 210 971 q 253 994 244 986 q 272 1001 261 1001 q 289 989 288 1001 q 316 990 303 990 q 344 990 329 990 q 360 994 351 993 q 376 994 368 994 q 412 992 393 994 q 443 974 431 989 q 481 962 464 971 q 515 942 499 953 q 546 917 536 929 q 562 890 556 904 q 574 863 568 876 q 592 832 581 849 q 597 825 594 828 q 601 817 600 822 q 616 783 614 804 q 621 747 618 763 l 626 740 q 625 697 626 722 q 620 644 624 671 q 610 592 617 617 q 596 553 604 568 q 585 532 589 542 q 582 510 582 522 q 576 478 582 496 q 561 444 569 461 q 544 411 553 428 q 528 382 535 394 q 478 306 506 338 q 415 240 450 275 q 405 205 418 225 q 383 174 392 185 q 403 181 390 176 q 428 190 415 185 q 453 200 442 194 q 469 211 464 206 q 477 220 472 214 q 488 226 482 226 q 497 217 497 226 m 419 975 l 417 976 l 413 976 l 415 974 l 419 975 m 293 967 q 319 969 306 968 q 346 972 332 969 l 294 972 l 294 968 l 293 967 m 356 971 l 358 967 q 372 964 364 967 l 368 968 q 363 969 365 968 q 358 971 361 971 l 356 971 m 504 929 q 481 947 493 939 q 453 958 468 956 l 446 950 l 442 951 l 456 943 q 481 936 468 940 q 504 929 493 932 m 175 953 q 190 954 185 953 l 190 957 l 175 953 m 263 928 q 295 938 279 933 q 328 944 311 942 l 328 949 q 294 940 311 943 q 260 935 278 938 l 263 928 m 176 915 q 190 922 183 918 q 203 929 196 926 l 200 935 l 204 942 l 197 940 l 171 919 l 176 915 m 444 931 l 444 932 l 439 932 l 438 931 l 444 931 m 378 925 q 397 922 388 924 q 415 918 406 921 l 404 926 l 397 926 q 378 925 385 926 m 432 893 l 429 899 l 424 899 l 425 896 l 432 893 m 203 894 l 206 896 l 204 896 l 203 894 m 150 875 l 156 874 q 163 884 158 879 q 171 894 167 889 q 144 874 158 888 l 144 871 l 150 875 m 474 893 q 482 885 478 889 q 490 878 486 881 q 474 893 483 888 m 132 861 q 127 856 129 858 q 122 850 125 853 l 126 849 l 133 857 l 132 861 m 565 856 l 568 856 q 564 858 565 858 q 560 860 563 858 l 561 853 l 565 856 m 469 851 q 465 857 469 856 l 469 851 m 208 849 l 203 843 q 200 829 200 835 l 208 849 m 499 838 q 506 826 501 831 q 514 814 511 821 l 513 819 q 506 828 510 824 q 499 838 501 832 m 576 797 l 581 799 q 578 813 579 806 q 574 828 576 821 l 574 803 l 576 797 m 549 800 q 550 806 550 803 q 551 813 550 810 l 550 814 q 542 826 547 822 l 542 818 q 549 800 547 808 m 144 807 l 143 808 l 144 806 l 144 807 m 506 793 q 507 792 506 792 l 507 792 l 506 793 l 506 793 m 571 749 q 571 764 571 756 q 572 779 571 772 l 567 786 l 567 767 l 569 761 q 571 749 569 753 m 478 765 l 471 774 q 474 754 472 764 q 482 736 476 744 l 478 765 m 92 768 q 72 766 82 767 q 53 765 63 765 l 92 765 l 92 768 m 504 625 q 515 664 511 644 q 519 703 519 683 q 519 723 519 714 q 519 743 518 732 q 510 750 511 746 q 513 735 511 743 q 514 721 514 728 q 508 713 511 717 q 501 703 504 708 q 501 697 501 700 q 500 692 500 694 l 500 688 l 508 681 q 504 625 508 653 m 594 711 q 595 721 594 717 q 596 731 596 725 l 596 735 l 592 736 l 590 732 l 594 711 m 554 656 l 558 656 q 565 678 563 667 q 571 700 568 689 l 567 706 l 567 710 l 565 711 q 565 690 565 703 q 558 671 565 676 l 554 656 m 574 658 q 579 671 576 667 l 578 674 l 574 658 m 606 642 q 604 638 604 640 l 606 642 m 568 585 l 564 572 q 567 578 565 575 q 569 585 568 582 l 568 585 m 479 556 q 482 561 482 558 l 481 560 l 481 558 l 479 557 l 479 556 m 429 475 q 424 458 426 467 q 421 440 421 450 l 419 438 q 428 459 425 449 q 435 481 432 469 l 439 485 q 444 513 442 496 l 456 519 l 457 522 l 457 526 l 458 528 l 457 533 l 457 532 q 449 540 451 532 q 445 524 449 532 q 439 508 442 515 l 443 511 l 447 528 q 440 504 443 517 q 435 481 438 492 l 429 475 m 476 531 q 471 513 472 522 q 468 493 469 503 l 475 504 l 474 506 q 474 518 474 513 q 476 531 475 524 m 528 417 q 551 465 540 444 q 568 517 563 486 q 554 489 561 503 q 539 463 547 475 q 534 440 538 451 q 528 417 531 428 m 424 511 q 409 483 415 497 q 397 453 403 468 q 406 467 401 460 q 417 482 410 475 q 422 497 419 489 q 425 511 424 504 l 424 511 m 443 490 q 430 463 436 485 q 421 433 424 442 q 431 463 426 449 q 443 490 436 476 m 371 388 q 388 407 379 397 q 399 428 396 417 l 403 431 l 407 444 q 390 417 399 431 q 371 388 381 403 m 486 353 q 519 432 508 388 q 508 415 514 424 q 496 399 503 407 l 493 397 q 489 375 490 386 q 486 353 488 364 m 450 369 l 464 399 l 450 372 l 450 369 m 399 353 q 403 360 401 356 q 408 367 404 364 l 403 363 l 399 353 m 621 126 l 621 158 q 618 258 621 208 q 615 357 615 307 l 590 192 l 600 185 q 600 172 600 178 q 601 160 600 167 l 601 161 q 615 147 613 161 q 617 126 617 133 l 621 126 m 399 353 l 397 350 l 399 351 l 399 353 m 414 339 q 408 328 413 333 l 414 336 l 414 339 m 343 325 l 343 328 q 338 319 340 324 q 332 310 335 314 l 343 325 m 269 254 l 264 247 l 265 247 l 269 254 m 338 247 q 329 232 332 243 q 334 239 332 235 q 338 247 336 243 m 396 231 l 397 226 l 399 228 l 399 231 l 397 232 l 397 233 l 396 231 m 286 188 l 294 197 l 286 188 m 651 126 q 653 149 653 138 q 654 171 653 160 q 650 155 650 164 q 649 138 650 146 l 651 132 l 651 126 m 374 153 q 388 160 381 156 q 403 167 396 164 q 388 160 396 164 q 374 153 381 156 m 260 151 l 265 161 q 255 149 260 154 q 243 138 250 143 l 260 151 m 208 122 q 218 132 214 126 q 228 143 222 138 l 228 146 l 226 147 q 213 138 219 147 q 201 122 206 128 l 208 122 m 519 103 q 528 104 522 103 q 536 107 533 106 q 519 106 528 107 q 501 106 510 106 l 496 103 l 519 103 m 536 104 q 524 103 528 104 l 536 104 m 603 99 l 603 100 l 599 100 l 599 99 l 603 99 m 242 81 l 274 81 q 287 85 275 81 q 301 90 299 89 l 301 93 q 249 83 271 90 l 247 85 l 242 82 l 242 81 m 340 83 q 358 85 347 85 q 375 92 368 86 q 357 90 365 92 q 339 86 349 89 l 340 83 m 197 79 l 206 89 l 201 90 l 193 89 q 187 84 190 86 q 181 79 183 82 l 197 79 m 651 85 l 653 89 l 653 90 l 651 90 l 651 85 m 490 89 l 463 89 q 440 85 451 89 q 418 79 429 82 q 436 79 424 79 q 451 72 449 79 q 467 74 456 74 q 456 81 461 76 l 463 88 l 490 88 l 490 89 m 615 71 q 618 76 618 74 l 615 75 l 615 71 m 601 69 l 601 71 l 599 71 l 599 69 l 601 69 m 254 69 l 253 69 l 249 68 q 240 69 244 68 q 231 67 235 69 q 242 67 238 67 q 254 68 247 67 l 254 69 m 324 57 q 340 56 332 57 q 357 56 349 56 l 381 56 q 404 56 393 56 q 428 57 415 56 l 426 60 q 376 60 401 60 q 324 57 350 60 m 568 56 l 528 58 l 540 54 q 490 51 514 56 q 439 43 465 46 q 493 48 467 43 q 547 53 519 53 q 568 51 561 53 l 568 56 m 221 53 l 226 54 l 222 54 l 221 53 m 164 53 q 154 51 158 53 q 144 49 150 50 l 142 44 l 156 44 q 167 47 161 44 q 179 47 174 49 l 179 53 l 164 53 m 108 47 q 106 48 107 47 q 103 49 104 49 q 81 47 92 49 q 60 42 71 44 q 78 39 71 39 l 82 42 q 99 42 90 42 q 115 43 107 43 l 117 49 l 108 47 m 138 39 q 146 40 142 39 q 154 40 150 40 l 163 44 q 140 42 154 44 l 138 39 m 600 42 l 600 43 l 599 43 l 599 42 l 600 42 m 626 15 l 626 25 l 622 17 l 622 15 l 626 15 m 681 15 q 725 16 703 15 q 768 21 747 17 q 720 22 744 21 q 672 24 696 22 l 671 15 l 681 15 m 329 15 l 321 22 l 317 21 l 321 15 l 329 15 m 417 15 l 417 19 q 385 19 401 19 q 354 15 369 18 l 417 15 z "},"3":{"ha":794,"x_min":1,"x_max":772,"o":"m 564 371 q 556 378 560 371 q 553 388 553 385 q 558 394 553 394 q 564 397 561 397 q 577 392 571 397 q 583 381 583 386 l 583 374 q 588 369 586 371 q 589 364 589 368 l 589 364 q 594 357 592 360 q 596 350 596 354 l 596 349 q 600 342 597 346 q 603 335 603 338 q 602 326 603 331 q 596 322 601 322 q 590 326 590 322 q 589 333 589 331 q 596 343 589 343 q 603 333 603 343 q 596 322 603 322 q 589 332 589 322 l 589 332 q 584 340 586 336 q 582 349 582 343 l 582 349 q 577 355 579 351 q 575 363 575 358 l 575 363 q 569 372 569 368 l 569 374 q 564 371 567 371 m 292 267 q 281 258 288 261 q 387 269 333 265 q 494 274 440 274 l 500 268 l 494 261 q 474 260 488 260 q 377 251 425 260 q 281 242 329 242 q 269 235 275 236 q 256 232 263 235 q 293 236 275 232 q 331 240 311 240 q 341 239 333 240 q 349 233 349 238 l 343 226 l 321 221 l 326 215 q 315 206 325 210 q 292 201 304 203 q 269 200 281 200 q 253 200 258 200 l 257 189 l 257 186 q 263 171 263 181 l 261 168 q 267 160 264 164 q 274 151 271 156 l 275 149 l 276 149 l 283 153 q 311 138 297 146 q 336 118 325 129 l 365 108 l 369 104 q 392 100 381 101 q 414 96 403 99 q 463 112 439 107 q 514 124 488 117 q 527 133 519 125 q 543 149 535 140 q 560 163 551 157 q 575 169 568 169 q 583 190 578 178 q 594 215 589 201 q 604 240 600 228 q 608 258 608 251 l 608 278 l 603 282 q 595 319 596 300 q 585 354 594 338 l 592 363 q 472 472 522 413 q 442 478 457 475 q 415 492 426 481 l 392 492 l 368 494 q 344 490 358 492 q 318 486 329 488 q 308 472 315 472 l 301 476 q 301 458 301 472 q 294 443 301 443 l 286 449 q 278 483 279 465 l 269 490 l 265 490 q 266 482 265 489 q 267 468 267 475 q 265 456 267 461 q 260 450 264 450 l 260 447 l 258 440 l 258 438 q 259 407 258 422 q 257 376 260 392 q 250 383 253 376 q 245 399 247 390 q 242 417 243 408 q 240 429 240 426 q 240 418 240 426 q 233 410 239 410 l 232 411 l 231 411 l 224 403 q 217 410 219 403 q 213 426 214 417 q 210 444 211 435 q 210 456 210 453 l 207 460 l 207 463 l 214 469 l 217 469 q 215 483 217 479 l 210 476 q 204 482 206 476 q 200 490 203 488 q 203 497 203 496 l 197 497 q 178 496 188 496 q 163 496 169 496 q 151 497 158 496 q 144 504 144 497 q 155 511 144 511 q 171 511 165 511 l 183 511 q 172 519 172 514 l 165 526 l 165 529 l 172 531 q 137 530 154 531 q 101 531 119 529 l 94 538 l 101 544 q 147 544 125 543 q 193 549 169 546 l 192 554 l 193 563 q 181 562 190 563 q 160 562 171 561 q 142 565 150 563 q 133 572 133 567 q 147 580 133 579 q 165 581 161 581 l 174 581 q 190 589 181 588 q 207 592 199 590 q 213 597 210 594 q 218 601 217 599 l 219 600 q 222 619 219 607 q 231 633 224 632 l 235 646 l 242 639 q 242 625 242 632 q 244 611 242 618 l 247 617 q 248 630 247 621 q 256 639 249 639 l 261 643 q 267 639 265 643 q 271 632 269 635 q 275 639 272 635 q 282 643 278 643 l 289 636 q 283 619 286 629 q 268 610 279 610 q 269 594 268 600 l 276 600 q 283 597 278 600 l 288 597 q 294 614 290 607 q 307 618 299 621 l 313 619 l 321 613 q 322 597 322 607 l 353 597 l 358 597 l 369 600 l 375 600 q 383 596 379 600 q 393 597 389 597 q 400 597 397 597 q 416 606 407 604 q 435 610 425 608 l 433 614 l 442 621 q 473 632 456 621 q 506 659 490 643 q 531 693 521 675 q 542 725 542 711 q 551 749 549 733 q 553 775 553 764 l 553 799 q 544 808 549 799 q 535 829 539 817 q 527 853 531 842 q 521 868 524 864 q 492 890 506 878 q 464 910 479 901 q 448 908 457 908 q 436 917 439 908 q 388 909 411 917 q 340 901 365 901 q 330 895 335 899 q 319 889 325 892 q 313 871 318 881 q 326 870 319 871 q 339 868 332 869 l 344 861 q 335 853 344 854 q 321 853 325 853 l 313 853 q 322 851 317 853 q 328 844 328 850 q 319 836 325 838 l 321 832 l 326 825 l 326 824 q 344 822 331 824 q 358 814 358 821 l 351 807 q 307 804 329 804 q 263 803 285 804 q 263 783 263 793 q 260 764 263 774 l 253 757 q 251 749 251 753 q 250 742 250 746 q 251 716 250 729 q 249 690 251 703 l 242 683 l 235 690 q 235 720 235 706 q 238 750 236 735 l 236 750 l 228 758 l 228 800 l 224 800 q 222 790 222 797 q 215 783 221 783 l 206 788 l 199 797 l 194 796 q 185 753 192 774 q 179 708 179 732 q 179 697 179 704 q 172 689 179 689 l 164 697 q 165 706 165 701 q 165 715 165 711 l 161 721 q 163 749 161 729 q 172 774 165 768 l 172 792 q 153 789 165 789 l 149 793 q 130 792 139 792 q 114 785 121 792 q 106 788 111 786 q 101 793 101 789 l 106 800 q 111 808 106 806 q 124 810 117 810 q 138 811 131 811 q 149 813 144 811 l 110 813 q 99 813 107 813 q 83 813 92 813 q 69 816 75 814 q 63 821 63 818 q 72 828 63 825 q 95 832 82 831 q 120 834 108 833 q 136 835 132 835 q 106 840 124 840 q 95 840 103 840 q 80 839 88 839 q 66 841 72 839 q 60 849 60 843 l 67 860 q 115 874 90 869 q 163 886 139 878 l 174 883 q 192 915 181 900 q 217 942 204 929 l 217 946 q 237 951 228 949 q 257 953 246 953 q 276 967 267 960 q 297 975 285 975 q 376 999 342 994 q 460 1004 411 1004 q 473 1001 467 1004 q 486 996 479 999 q 518 985 501 989 q 551 978 535 982 q 583 966 568 974 q 607 943 597 958 l 613 943 l 601 956 l 608 963 q 623 954 615 963 q 631 939 631 946 l 636 935 l 636 933 q 643 928 639 931 q 647 921 647 926 q 659 897 654 910 q 671 872 664 885 q 683 856 678 869 q 689 835 688 842 q 696 823 694 831 q 697 808 697 815 q 694 792 697 797 l 694 782 l 693 765 q 694 745 693 754 q 697 726 694 736 q 689 711 694 715 q 682 697 688 706 q 679 687 681 692 q 672 679 678 682 q 649 636 660 658 q 621 594 638 614 l 618 581 q 657 624 639 601 q 694 669 675 647 l 701 663 q 697 652 701 658 q 688 638 693 646 q 676 625 682 631 q 667 617 669 619 q 656 599 665 610 q 637 578 647 589 q 616 560 626 568 q 599 549 606 551 l 597 546 q 612 538 604 543 q 621 524 619 532 q 643 520 631 522 q 667 513 656 518 q 687 499 679 507 q 694 478 694 490 l 692 475 q 708 461 704 468 q 710 457 710 460 q 714 451 711 454 l 717 454 l 724 449 q 747 392 735 421 q 772 336 760 364 l 768 329 q 772 285 771 307 q 772 240 772 263 l 765 229 l 760 233 l 756 228 q 751 205 754 217 q 749 182 749 193 q 745 172 747 179 q 740 158 743 165 q 734 147 738 151 q 726 142 731 142 l 719 151 l 717 149 q 712 135 715 144 q 704 115 708 125 q 694 97 700 104 q 685 89 689 89 q 676 69 683 81 q 661 56 668 58 q 656 51 658 53 q 651 47 654 49 l 644 54 l 646 58 q 623 41 636 51 q 596 21 610 31 q 567 4 582 11 q 540 -3 553 -3 l 538 -1 q 526 -5 531 -3 q 517 -10 522 -7 l 513 -8 l 507 -10 l 500 -4 q 478 -12 493 -11 q 451 -14 463 -14 q 403 -11 432 -14 q 346 -2 375 -8 q 290 14 317 4 q 249 38 264 24 q 231 42 240 35 q 218 56 222 49 q 215 47 218 51 q 207 42 213 42 q 200 48 204 42 q 192 63 196 54 q 186 78 189 71 q 183 90 183 86 l 185 93 l 185 94 l 178 92 q 167 101 174 92 q 156 124 161 111 q 147 150 150 138 q 143 167 143 163 q 138 179 140 174 q 132 192 135 185 l 126 192 l 121 189 q 106 192 114 190 q 92 194 99 194 l 83 194 l 65 190 l 57 190 l 50 196 q 56 202 50 200 q 68 206 61 204 q 82 208 75 207 q 92 211 89 210 q 77 212 85 211 q 63 215 69 213 l 50 215 l 39 222 l 44 229 q 60 231 54 229 q 49 231 56 231 q 43 238 43 231 q 51 245 43 244 q 64 247 58 246 q 36 253 50 251 q 7 258 22 256 l 1 265 l 17 272 q 47 267 32 272 q 78 263 63 263 q 92 263 85 263 q 100 254 99 263 l 103 256 l 107 256 l 108 257 l 108 258 l 101 265 l 108 271 q 109 283 108 275 q 111 299 110 292 q 116 313 113 307 q 125 319 119 319 l 132 313 q 128 306 132 308 q 124 296 124 303 q 128 285 128 293 q 131 272 129 276 l 133 272 q 133 291 133 278 q 142 304 133 304 q 152 296 150 304 q 156 281 154 288 l 158 279 q 159 295 158 283 q 161 320 160 307 q 165 343 163 333 q 174 353 168 353 q 183 339 182 353 q 185 318 185 325 l 185 306 q 190 317 188 310 q 199 324 193 324 q 207 317 206 324 q 211 306 208 310 q 217 315 214 310 q 226 321 219 321 q 235 315 233 321 q 236 303 236 308 q 236 290 236 296 q 235 276 236 283 q 250 280 242 279 q 265 282 258 281 l 274 275 q 284 273 276 274 q 292 267 292 272 m 594 940 q 583 949 589 947 q 569 954 576 951 q 581 940 578 946 l 594 940 m 447 947 l 453 946 q 446 953 449 949 l 447 947 m 508 944 q 497 951 506 949 l 508 944 m 299 933 q 319 941 308 939 q 340 947 329 943 q 318 944 329 946 q 299 936 307 943 l 299 933 m 403 939 q 422 944 415 939 l 411 946 l 400 943 l 403 939 m 560 940 l 560 940 q 557 942 558 940 l 557 940 l 560 940 m 244 921 q 251 931 247 926 q 258 942 254 936 q 242 921 249 936 l 244 921 m 300 911 q 322 923 310 919 q 346 935 335 926 q 323 928 335 931 q 300 918 311 925 l 300 911 m 619 929 q 628 917 624 922 q 639 907 633 913 q 632 919 636 914 q 624 929 628 924 l 619 929 m 533 921 q 528 925 529 925 l 533 921 m 493 911 q 503 903 500 908 q 513 894 506 897 q 515 904 510 899 q 519 914 519 910 l 514 911 l 493 911 m 192 879 l 192 881 l 193 881 l 193 882 l 196 889 l 196 890 l 197 890 l 197 892 l 200 892 l 200 897 q 189 878 193 888 l 192 879 m 563 867 q 550 874 554 863 q 543 890 546 885 l 540 888 q 557 843 550 868 q 563 864 560 857 l 563 867 m 639 881 q 649 861 647 872 q 657 840 650 850 q 646 879 653 857 l 638 889 l 639 886 l 639 881 m 169 869 q 158 865 167 868 l 165 865 l 167 865 l 167 867 l 168 867 l 169 869 m 156 864 l 157 864 l 157 865 l 156 864 m 628 858 l 628 857 l 629 856 l 628 858 m 629 856 l 629 854 l 633 843 l 633 844 l 629 856 m 676 826 l 674 828 l 678 818 l 676 826 m 611 788 l 611 790 q 609 801 611 796 q 604 810 607 806 q 606 798 606 803 q 607 786 607 793 l 611 788 m 664 771 q 666 754 664 763 q 667 738 668 746 l 669 743 l 669 790 q 664 810 669 804 l 664 771 m 607 753 l 608 756 l 608 768 l 611 769 l 611 771 l 607 769 l 607 753 m 629 728 l 628 733 l 628 732 l 626 731 l 626 728 l 629 726 l 629 728 m 551 696 l 558 708 l 558 718 q 553 704 556 711 q 547 690 551 697 l 551 694 l 551 696 m 478 617 q 501 638 490 626 q 521 660 511 649 q 498 635 510 647 q 471 615 486 624 l 478 617 m 496 583 l 500 588 l 490 588 l 493 583 l 496 583 m 592 564 q 601 578 597 569 l 597 576 l 585 565 l 592 564 m 485 561 l 492 567 l 490 567 l 490 565 l 489 565 l 479 561 l 485 561 m 429 557 q 436 556 432 556 q 429 557 433 557 m 478 524 l 479 524 l 486 522 l 479 525 q 493 532 488 531 l 489 533 l 475 529 l 479 525 l 478 524 m 472 526 l 476 524 l 474 528 l 474 531 l 472 531 l 472 526 m 471 524 l 469 525 l 465 524 l 471 524 m 636 494 q 628 499 632 497 q 621 503 625 501 l 636 494 m 678 485 q 667 497 675 493 q 650 503 658 500 q 663 491 656 496 q 678 485 669 486 m 521 463 l 519 465 l 518 465 l 521 463 m 574 393 q 556 413 564 403 q 542 433 549 422 q 528 442 535 438 q 515 450 522 447 q 544 422 532 438 q 574 393 557 406 m 585 438 l 597 413 l 597 424 q 586 438 589 432 l 585 438 m 658 388 l 658 392 l 657 399 l 657 403 q 641 416 647 408 q 628 432 635 424 l 658 388 m 704 394 l 703 399 l 704 404 l 697 410 l 697 404 l 699 400 l 699 399 l 704 394 m 635 388 q 638 374 636 381 q 643 360 639 367 l 646 360 l 635 388 m 713 340 q 706 351 708 346 q 701 363 704 357 l 701 338 l 708 340 l 713 339 l 713 340 m 625 342 l 624 338 l 628 329 l 628 339 l 625 342 m 733 333 l 732 336 q 733 328 732 331 l 733 333 m 656 321 l 656 317 l 657 319 l 656 321 m 729 296 l 729 286 l 732 265 l 732 254 q 733 274 732 265 q 735 294 733 283 l 729 296 m 207 274 q 204 283 204 279 q 203 293 204 288 l 203 274 l 207 274 m 671 286 q 672 269 671 279 q 667 251 672 258 q 664 213 668 232 q 658 175 660 194 q 672 215 669 194 q 674 258 674 236 q 674 272 674 265 q 671 286 674 279 m 711 210 q 715 233 714 221 q 717 257 717 246 q 714 238 717 247 q 708 219 711 229 l 711 210 m 92 229 l 100 231 l 92 231 l 92 229 m 731 183 q 731 192 732 188 q 733 200 731 197 l 733 211 q 731 202 732 208 q 729 193 729 196 l 729 185 l 731 183 m 235 193 q 233 200 235 197 q 235 193 233 196 m 624 168 l 625 171 l 625 182 l 626 185 l 626 186 q 617 169 621 175 l 617 167 l 624 168 m 625 168 l 632 183 l 632 186 l 625 168 m 689 150 l 694 157 l 694 169 q 689 160 692 165 q 683 153 686 156 l 689 150 m 601 115 q 611 129 608 121 q 617 146 614 138 l 614 144 l 601 115 m 675 138 q 671 131 671 133 l 675 138 m 572 101 q 585 115 579 108 q 596 131 590 122 q 576 115 586 118 l 572 101 m 653 106 q 661 115 660 110 l 664 115 l 664 118 q 658 112 661 115 q 653 106 656 108 m 556 103 q 526 81 539 94 q 499 57 514 68 q 538 69 518 61 l 542 78 l 551 94 l 556 103 m 503 44 q 524 47 514 44 q 546 47 535 49 l 549 50 q 576 63 564 56 q 600 82 589 69 l 604 94 q 569 74 585 86 q 539 49 554 61 l 532 53 q 503 44 518 47 m 332 76 q 309 76 319 75 q 289 88 299 78 q 290 76 290 83 q 313 68 301 69 l 315 68 l 317 69 l 326 74 q 332 76 329 76 m 438 64 l 443 67 l 439 69 l 428 64 l 438 64 m 292 53 q 308 47 300 50 q 325 43 317 44 l 324 47 q 309 53 317 51 q 293 58 301 56 l 293 53 l 292 53 m 408 47 l 418 47 l 410 54 l 406 54 l 408 47 m 260 50 l 261 50 q 258 53 258 53 l 258 51 l 260 50 m 264 49 q 272 44 267 44 l 264 49 m 340 39 q 356 34 343 38 q 371 31 368 31 l 375 31 l 382 32 l 386 32 l 386 33 l 340 44 l 340 39 m 282 40 q 318 33 296 33 q 303 38 311 36 q 286 42 294 39 l 282 40 m 489 31 l 489 29 l 496 29 l 489 38 l 490 42 l 483 42 l 479 40 l 478 40 l 469 33 l 489 31 m 342 19 l 335 24 l 322 19 q 346 8 333 10 l 340 17 l 342 19 m 451 14 q 423 6 438 7 q 393 3 408 4 q 417 1 406 1 q 442 0 429 0 q 450 8 442 6 q 463 14 458 11 l 451 14 z "},"4":{"ha":682,"x_min":10,"x_max":818,"o":"m 550 961 q 552 971 551 964 q 558 978 553 978 q 567 972 567 978 l 565 969 q 563 957 563 961 q 610 959 586 958 q 660 960 635 960 l 726 958 l 758 958 q 785 959 771 958 q 811 958 799 960 q 818 951 818 958 q 811 944 818 944 q 800 943 806 943 q 788 942 794 943 q 757 935 772 939 q 726 932 742 932 l 686 932 q 676 921 686 924 q 658 917 672 919 q 625 913 643 915 q 626 908 626 911 q 615 897 626 897 l 626 897 q 633 890 633 897 q 626 883 633 883 q 606 882 615 882 q 585 882 596 882 q 577 881 581 882 q 569 881 574 881 l 569 865 l 569 851 q 565 758 569 804 q 558 667 561 713 q 556 642 557 654 q 556 618 556 631 q 556 608 556 613 q 557 597 557 603 q 560 599 558 599 q 567 592 567 599 q 563 553 567 572 q 557 515 560 535 l 557 511 q 558 508 557 510 q 558 506 558 507 q 561 507 560 507 q 568 499 568 507 q 568 468 568 483 q 565 438 568 453 q 574 439 571 439 q 583 442 578 439 q 592 446 586 443 q 601 449 599 449 q 613 439 613 449 q 596 422 613 429 q 564 413 579 415 l 565 408 l 593 408 q 671 413 633 413 q 678 416 674 414 q 686 418 683 418 q 693 417 689 418 q 697 411 697 415 q 691 402 697 406 q 679 399 685 399 l 675 399 q 661 397 671 397 q 640 395 651 396 q 617 394 628 394 q 600 394 606 394 l 590 394 q 578 393 583 393 q 567 392 574 393 l 567 386 l 581 386 q 601 387 592 386 q 622 386 611 388 q 629 379 629 386 q 622 372 629 372 q 590 371 607 372 q 558 368 574 369 l 558 364 q 559 358 558 361 q 560 351 560 356 q 564 352 563 351 q 568 353 565 353 l 639 364 q 658 367 649 365 q 675 369 667 368 l 676 369 q 682 361 682 369 q 670 351 682 356 q 640 344 658 347 q 601 339 622 342 q 561 335 579 336 l 561 331 q 585 333 572 332 q 608 333 597 333 q 615 326 615 333 q 600 313 615 318 q 563 306 585 308 l 563 293 q 564 289 564 292 l 564 153 q 568 132 567 144 q 571 104 569 119 l 600 104 l 604 104 q 616 103 608 104 q 624 96 624 103 l 624 93 q 648 95 636 94 q 674 96 660 96 q 686 97 678 96 q 704 97 694 97 q 721 94 714 96 q 728 89 728 93 q 723 82 728 85 q 715 78 718 79 q 662 64 696 71 q 592 53 628 57 q 584 48 589 50 q 576 43 579 46 q 609 43 592 44 q 633 42 626 42 q 642 39 640 42 q 661 43 647 40 l 667 43 q 674 38 674 43 q 666 30 674 32 q 647 25 658 28 l 636 21 l 614 17 q 608 14 611 14 l 585 14 q 576 8 582 11 l 560 4 q 559 1 560 3 q 558 -1 558 0 q 558 -17 558 -8 q 550 -25 558 -25 q 540 -18 540 -25 l 540 0 l 536 -1 q 535 -54 535 -28 q 532 -107 535 -81 l 532 -108 q 527 -120 529 -117 q 518 -129 525 -124 q 511 -139 518 -139 q 503 -128 504 -139 q 503 -114 503 -118 q 503 -72 503 -93 q 504 -29 503 -50 l 504 -7 q 497 -8 500 -8 q 490 -10 494 -8 q 475 -86 483 -64 q 468 -90 474 -90 q 461 -83 461 -90 q 462 -49 461 -65 q 464 -14 463 -32 q 463 -15 463 -14 q 461 -15 463 -15 q 459 -15 460 -15 q 457 -14 458 -14 q 378 -22 417 -19 q 301 -24 340 -24 q 284 -22 296 -24 q 272 -12 272 -21 q 285 1 272 -6 q 315 14 299 8 l 158 14 q 151 21 151 14 q 158 28 151 28 l 253 28 q 250 32 250 31 q 257 40 250 40 q 270 42 264 42 q 283 42 276 42 q 313 44 299 43 q 342 49 326 46 l 408 61 q 406 67 406 64 q 413 74 406 74 q 426 74 419 75 q 439 74 432 74 l 440 78 l 353 79 q 329 78 342 79 q 306 79 317 78 q 299 86 299 79 q 306 93 299 93 q 353 96 329 96 q 401 97 378 96 q 422 98 413 97 q 442 99 431 99 q 444 116 443 107 q 447 133 444 125 q 445 190 446 161 q 442 247 444 219 q 439 222 439 235 q 439 197 439 210 l 439 183 l 440 156 l 440 142 q 433 135 440 135 q 426 142 426 135 l 426 289 q 369 281 399 282 q 313 279 340 279 l 274 279 l 194 281 l 174 281 q 165 249 169 263 q 157 235 161 235 q 150 242 150 235 l 150 249 q 143 256 143 249 q 143 283 142 269 l 143 285 l 136 281 q 130 248 133 265 q 124 215 126 231 l 122 215 l 122 214 l 124 207 l 124 206 l 122 206 q 117 169 119 188 q 110 135 115 151 q 103 129 108 129 q 94 139 94 129 q 97 165 93 151 q 104 193 100 179 q 106 227 103 210 q 113 260 108 244 q 110 265 110 263 q 111 277 110 268 q 115 299 113 286 l 93 299 q 83 274 89 282 q 76 268 82 268 q 67 275 69 268 q 64 288 64 282 l 64 299 l 25 299 q 15 299 21 299 q 10 307 10 300 q 17 315 10 315 l 36 315 l 64 314 l 64 324 q 42 326 53 325 q 21 329 31 326 q 14 335 14 329 q 24 347 14 344 q 51 350 38 350 q 43 357 43 353 q 51 365 43 363 q 69 368 58 367 q 77 432 72 397 q 88 502 82 467 q 100 572 93 538 q 113 638 107 607 q 110 636 111 636 q 103 640 104 636 q 101 647 101 644 q 103 677 101 656 q 110 725 106 699 q 119 780 114 751 q 131 832 125 808 q 144 872 138 856 q 158 888 151 888 q 167 879 167 888 q 167 846 169 863 l 171 860 q 174 877 174 869 q 176 893 175 885 l 101 888 q 94 893 94 888 q 101 901 94 901 q 142 913 121 907 q 183 921 163 918 q 186 922 185 921 l 118 918 q 111 922 114 918 q 99 921 104 921 q 86 921 93 921 q 79 919 83 919 q 71 926 74 919 q 78 933 71 933 q 106 937 92 936 q 133 939 119 938 l 136 939 l 144 940 l 147 940 l 150 943 q 129 943 140 942 q 122 949 125 942 q 129 957 122 957 l 135 957 l 146 958 l 151 958 q 158 963 154 963 q 169 965 164 964 q 182 967 175 967 l 182 969 q 182 981 181 974 q 190 989 183 988 q 199 982 197 989 q 204 968 201 975 l 208 969 q 215 982 208 981 q 218 981 217 982 l 222 992 q 226 996 225 996 q 231 994 229 996 q 242 1004 235 1004 q 242 1007 242 1006 q 243 1010 243 1008 l 243 1019 q 244 1022 243 1021 q 244 1025 244 1024 l 249 1065 q 251 1076 250 1071 q 251 1088 251 1081 q 257 1093 251 1093 q 265 1088 264 1093 q 267 1078 267 1082 q 264 1035 269 1058 q 251 983 258 1011 l 251 974 q 255 974 254 974 q 258 974 256 975 q 265 994 261 981 q 275 1008 268 1007 q 281 1004 281 1008 q 282 997 282 1000 l 283 999 q 289 1015 285 1003 q 297 1042 293 1028 q 306 1066 301 1056 q 314 1076 311 1076 q 322 1071 322 1076 q 317 1022 324 1056 q 299 946 310 988 q 312 947 306 947 q 324 949 318 947 l 342 949 q 356 943 356 951 q 342 932 356 936 q 317 925 331 928 q 292 918 304 922 q 319 922 306 921 q 346 925 332 924 q 357 924 351 925 q 363 917 363 924 q 353 908 363 908 q 318 903 335 907 q 283 897 301 900 q 267 849 276 871 q 266 847 267 847 q 265 844 265 846 l 265 836 q 265 834 265 835 q 264 832 264 833 l 257 796 q 254 788 256 792 q 253 779 253 783 q 249 730 250 754 q 244 682 247 706 l 240 643 q 238 624 239 633 q 235 603 238 614 l 233 600 q 219 544 226 572 q 206 489 213 517 q 199 438 203 464 q 190 386 194 413 q 240 395 213 390 q 297 403 268 400 q 355 410 326 407 q 408 417 383 414 q 426 425 415 421 l 426 500 q 433 507 426 507 l 438 504 q 440 564 439 535 q 440 624 440 593 q 439 649 440 635 q 440 674 438 663 q 447 679 440 679 q 451 678 450 679 l 451 688 q 447 686 450 686 q 440 693 440 686 l 440 779 q 439 783 439 781 q 436 824 436 799 q 436 869 436 850 q 422 868 429 868 q 410 868 415 868 q 403 875 403 868 q 411 881 403 879 q 431 886 419 883 q 403 884 417 885 q 375 883 389 883 q 368 890 368 883 q 374 897 368 897 q 389 901 381 900 q 406 903 397 901 l 386 903 q 379 911 379 906 q 386 921 379 918 q 410 928 396 925 q 440 935 425 932 l 440 938 l 438 938 q 423 939 429 938 q 417 946 417 940 q 424 953 417 953 l 440 953 q 447 957 443 957 q 454 953 453 957 l 461 953 q 461 979 461 967 q 463 1006 461 992 q 465 1011 463 1010 l 465 1014 q 465 1026 465 1017 q 465 1046 464 1036 q 467 1063 465 1056 q 474 1071 469 1071 q 481 1064 481 1071 q 481 1034 482 1049 q 481 1004 481 1019 q 481 978 481 992 q 482 953 481 965 l 485 953 l 485 957 q 492 964 485 964 q 499 957 499 964 l 499 954 q 500 960 500 957 q 501 967 500 964 l 501 982 q 503 989 501 985 q 508 993 504 993 q 515 986 515 993 q 518 954 518 972 q 526 955 522 954 q 535 956 531 956 q 535 958 535 958 q 536 961 536 958 l 536 965 q 542 972 536 972 q 550 961 550 972 m 594 932 l 599 932 l 604 932 l 615 931 l 621 931 l 625 931 q 635 926 633 931 q 642 928 638 928 q 653 932 647 929 l 594 932 m 533 925 l 533 928 l 532 928 l 532 925 l 533 925 m 460 917 l 460 924 l 456 922 l 456 917 l 460 917 m 440 917 l 440 919 l 431 917 l 440 917 m 250 914 l 251 915 l 253 915 l 254 917 l 250 917 l 250 914 m 218 889 l 218 886 l 219 886 l 219 888 l 219 890 l 218 889 m 528 864 l 529 874 l 525 872 l 525 861 l 528 864 m 463 778 q 465 795 464 786 q 468 813 467 804 l 468 817 l 468 863 q 460 843 465 849 l 463 778 m 117 672 q 118 675 118 674 l 122 683 l 122 685 l 124 685 q 136 729 131 715 q 139 733 136 733 q 140 738 140 736 q 142 743 140 740 l 147 761 q 149 766 149 764 q 150 771 149 768 l 150 792 l 154 832 l 154 853 q 142 814 147 838 q 131 765 136 790 q 123 715 126 739 q 117 672 119 690 m 200 833 l 200 831 q 201 833 200 832 q 201 838 201 835 l 200 833 m 496 794 l 496 804 l 496 806 l 496 793 l 496 794 m 485 763 q 482 764 483 763 l 481 764 l 481 753 l 485 763 m 213 660 q 221 664 215 664 q 227 710 224 688 q 233 757 231 733 l 232 753 l 228 733 q 226 724 226 729 q 224 715 226 719 l 222 714 q 215 681 221 697 q 210 658 213 669 q 206 633 208 646 l 213 660 m 194 715 q 195 721 194 718 q 196 728 196 724 q 197 731 196 729 q 197 733 197 732 l 197 743 q 198 746 197 744 q 199 749 199 747 l 194 733 l 192 711 l 194 715 m 174 706 q 178 708 175 706 l 176 713 q 182 731 181 722 q 186 749 183 740 l 174 706 m 478 578 l 481 578 q 484 610 483 594 q 486 643 485 626 q 490 725 486 683 l 490 739 q 482 701 485 721 l 481 699 l 483 699 l 485 699 l 478 578 m 122 613 q 139 658 129 638 q 140 674 139 667 q 139 690 140 682 q 131 651 136 671 q 122 613 126 632 m 160 646 q 165 676 165 663 l 160 658 l 160 646 q 153 610 157 629 q 144 571 150 592 q 153 604 149 588 q 161 640 157 621 l 160 646 m 193 675 l 190 661 l 190 660 l 193 675 m 158 668 l 156 660 l 156 657 l 154 653 l 154 650 l 151 633 l 151 626 l 154 638 q 156 643 156 639 l 158 653 l 158 654 l 160 657 l 160 658 l 158 668 m 190 660 q 189 657 189 658 l 190 660 m 185 643 l 185 639 l 185 643 m 186 642 q 185 639 186 640 q 185 635 185 638 l 186 642 m 183 631 l 183 632 l 183 631 m 178 499 q 178 500 178 500 q 179 501 179 500 l 179 507 q 180 508 179 508 q 181 510 181 508 l 188 533 l 188 536 l 189 542 l 189 544 l 196 572 l 206 631 q 191 565 199 599 q 176 500 183 532 l 178 499 m 518 626 l 518 625 q 517 621 518 622 q 517 617 517 619 l 518 626 m 146 611 l 146 610 l 147 601 q 149 612 149 607 q 150 624 149 617 l 147 614 l 147 613 l 146 611 m 179 606 q 180 610 179 608 q 181 614 181 613 l 181 618 q 176 599 178 608 q 172 581 175 590 q 176 586 174 583 l 178 590 l 178 592 l 179 606 m 142 556 l 142 557 l 143 567 l 143 568 l 144 569 q 144 583 144 576 q 146 596 144 589 l 140 553 l 140 554 l 142 556 m 89 369 q 101 405 96 385 q 114 449 107 425 l 129 569 l 129 571 l 131 572 l 131 574 l 129 583 q 103 469 114 529 q 86 369 92 408 l 89 369 m 511 553 q 513 567 513 560 q 514 582 513 575 q 513 567 513 575 q 511 553 513 560 m 493 561 l 493 564 l 493 561 m 476 538 q 478 548 478 543 q 479 558 478 553 q 478 560 479 560 q 478 561 478 560 l 476 538 m 454 431 l 454 478 l 454 543 q 453 554 453 550 q 453 561 453 558 q 451 497 451 529 q 450 431 451 464 l 454 431 m 151 542 q 151 539 151 540 q 151 535 150 538 l 147 522 q 146 515 147 518 l 144 503 q 150 519 147 511 q 156 533 153 526 q 157 542 157 538 q 158 551 157 546 l 160 553 q 157 556 160 553 l 154 557 l 156 556 l 154 551 l 154 549 l 151 542 m 488 519 q 481 481 485 500 q 469 458 476 463 l 469 450 l 468 433 q 472 434 471 433 q 476 435 474 435 q 489 514 483 479 l 488 519 m 531 438 q 530 443 531 440 q 529 450 529 446 q 528 442 529 444 l 528 439 q 531 436 528 439 l 531 438 m 407 389 l 410 389 q 416 391 411 390 q 422 392 421 392 q 410 391 415 392 q 397 389 404 390 l 407 389 m 324 378 q 329 380 326 379 q 335 382 332 381 q 326 380 329 381 q 317 378 322 379 l 324 378 m 456 344 l 456 356 l 449 354 l 449 344 l 456 344 m 426 349 q 411 345 419 346 q 396 343 403 344 q 411 344 403 343 q 426 344 419 344 l 426 349 m 108 336 l 108 338 l 107 342 l 107 342 l 103 340 l 103 336 l 108 336 m 82 314 l 83 319 l 83 322 l 82 322 l 79 319 l 79 314 l 82 314 m 119 321 l 99 321 q 98 317 99 318 q 97 314 97 317 l 118 314 l 119 321 m 219 321 l 221 321 l 192 321 l 188 321 l 182 321 q 181 319 182 319 q 181 318 181 319 l 219 321 m 222 294 l 246 294 l 292 293 l 314 293 q 365 294 339 293 q 415 300 390 294 q 379 300 397 300 q 342 301 361 300 l 331 301 q 319 301 325 301 q 308 300 314 300 q 265 299 286 299 q 222 294 243 299 m 510 281 l 510 301 l 508 301 l 508 275 l 510 281 m 479 267 q 481 282 481 272 l 479 267 m 479 163 l 481 186 q 478 201 479 193 q 475 215 476 208 q 474 208 475 211 q 474 200 474 204 l 474 192 l 474 182 q 477 174 476 179 q 479 161 478 168 l 479 163 m 507 101 l 510 140 q 508 144 508 143 q 507 147 508 144 q 506 137 507 142 q 506 125 506 132 l 506 119 q 503 111 506 113 l 501 101 l 507 101 m 586 75 l 593 75 l 606 76 l 611 76 q 623 76 615 76 q 633 72 631 76 q 653 76 644 75 q 674 81 663 78 l 656 81 l 618 79 l 600 79 q 586 75 592 75 m 500 76 q 504 78 503 76 l 500 78 l 500 76 m 507 78 l 507 76 l 507 78 m 496 28 l 496 32 l 497 33 l 496 33 l 494 33 l 494 28 l 496 28 m 454 14 l 375 14 q 326 3 347 8 q 293 -10 304 -3 l 300 -10 q 377 -7 339 -10 q 454 1 415 -4 l 454 14 m 518 10 l 518 -107 q 520 -56 519 -81 q 522 -4 521 -31 l 518 10 z "},"5":{"ha":729,"x_min":-128,"x_max":721,"o":"m 375 963 q 405 962 390 963 q 435 961 419 961 q 491 968 463 961 q 547 975 519 975 q 560 974 556 975 q 565 990 561 981 q 576 999 569 999 l 583 992 l 583 982 q 590 1010 589 996 q 594 1038 592 1024 l 601 1044 q 608 1033 608 1042 q 617 1024 617 1033 q 615 1006 617 1014 q 610 988 613 997 l 611 985 l 611 978 q 615 988 613 981 q 622 1003 618 996 q 631 1017 626 1011 q 639 1024 635 1024 q 646 1014 646 1024 q 636 983 646 1000 q 644 974 643 982 q 644 963 644 967 q 644 950 644 957 q 640 939 644 943 l 640 936 l 636 928 q 654 928 640 928 q 683 926 668 928 q 709 922 697 925 q 721 914 721 919 l 713 906 q 673 900 693 900 q 633 899 653 900 q 627 847 629 872 q 621 794 625 821 l 614 789 l 608 790 l 604 789 l 600 790 q 588 706 593 749 q 578 622 582 664 q 576 611 578 617 q 567 606 574 606 l 558 613 q 566 722 558 668 q 583 831 574 776 l 574 836 q 563 839 567 838 q 558 849 558 840 q 559 862 558 856 q 560 875 560 868 l 554 875 q 547 851 551 867 q 532 836 543 836 l 525 843 q 526 857 525 850 q 529 871 528 864 q 503 872 517 871 q 478 872 490 872 q 387 867 432 872 q 296 858 342 863 q 288 806 289 832 q 283 753 288 779 q 278 737 282 744 q 275 721 275 729 q 274 706 275 715 q 267 696 274 696 l 258 703 q 263 729 258 717 q 269 754 267 742 q 274 806 274 781 q 281 857 274 832 l 278 857 q 271 815 275 836 q 264 774 267 794 q 256 699 260 736 q 244 625 253 661 q 297 633 271 631 q 350 635 324 635 q 363 634 357 635 q 374 631 368 633 q 388 634 381 632 q 404 636 396 636 q 434 631 415 636 q 461 618 453 626 q 490 609 476 615 q 518 596 504 603 l 521 596 q 596 543 565 576 q 644 465 626 510 q 651 455 647 464 q 656 434 654 446 q 660 412 658 422 q 661 397 661 401 q 660 388 661 392 q 660 378 660 383 l 661 378 q 669 348 668 364 q 671 317 671 332 q 681 340 674 324 q 699 357 689 357 l 706 349 l 704 347 q 692 292 697 319 q 676 236 688 264 q 676 219 676 229 q 672 199 675 208 q 663 184 668 190 q 647 178 657 178 l 647 169 l 646 169 l 653 157 q 646 140 653 151 q 629 117 639 129 q 610 94 619 106 q 597 78 601 83 q 610 64 610 75 l 604 51 l 610 44 l 604 38 q 544 10 574 26 q 482 -7 515 -7 l 478 -7 l 478 -6 q 331 -24 407 -24 q 304 -24 317 -24 q 278 -21 292 -24 l 272 -17 q 257 -16 265 -17 q 242 -14 249 -15 l 231 -7 l 229 -7 l 229 -4 l 217 3 l 222 10 l 232 8 q 215 13 226 10 q 190 19 203 15 q 169 27 178 22 q 160 39 160 32 q 138 56 144 46 l 125 0 l 118 -6 l 114 -4 q 101 -15 110 -14 q 92 -54 96 -35 q 88 -93 88 -74 q 88 -103 88 -96 q 87 -119 88 -111 q 84 -133 86 -126 q 78 -139 82 -139 l 71 -132 q 75 -74 71 -103 q 82 -17 79 -46 q 76 -34 81 -22 q 65 -58 71 -46 q 51 -81 58 -71 q 39 -90 44 -90 l 32 -83 l 32 -22 l 19 -31 l 13 -24 q 17 -2 13 -18 q 27 31 21 14 q 40 64 33 49 q 50 85 46 79 l -17 118 l -21 124 l -10 132 q 17 126 6 132 q 6 138 11 132 q 0 151 0 143 l 7 160 q 21 153 15 160 q 32 143 26 147 l 44 140 q 36 174 36 156 l 43 182 l 46 182 l 51 186 q 68 178 60 185 q 74 224 75 201 q 76 271 74 247 l 83 276 q 89 270 88 276 q 92 256 90 264 q 93 241 93 249 q 93 231 93 233 l 93 182 q 94 195 93 186 q 98 215 96 204 q 103 233 100 225 q 110 240 106 240 l 117 233 q 116 218 117 226 q 114 203 115 210 q 128 247 118 229 l 133 250 l 140 243 l 131 215 l 136 219 q 147 249 143 235 q 157 279 151 264 l 163 285 l 169 278 q 164 243 169 260 q 151 210 158 226 l 158 217 l 165 210 q 163 178 165 194 q 157 147 160 163 q 179 134 163 142 q 215 118 196 126 q 250 104 233 110 q 275 97 267 99 q 305 105 285 100 q 332 117 325 110 q 340 126 336 122 q 350 132 343 131 q 363 146 354 139 q 378 156 371 153 l 385 149 l 376 142 q 365 129 375 133 q 357 118 364 124 q 341 108 350 113 q 323 99 332 103 q 308 92 314 94 l 354 85 q 381 96 365 88 q 412 113 396 104 q 442 127 428 121 q 467 133 457 133 l 472 138 q 489 176 483 157 q 499 217 494 196 q 506 258 503 238 q 517 300 510 279 q 517 312 517 306 q 524 321 518 318 l 524 343 q 508 361 515 349 q 496 388 501 374 q 488 417 490 403 q 482 442 485 432 q 461 483 465 458 q 442 498 454 488 q 429 518 429 508 q 333 533 381 533 q 318 528 332 533 q 300 522 304 524 q 363 494 335 517 q 403 439 390 471 l 403 436 l 396 429 l 390 432 q 374 459 381 449 q 361 476 368 469 q 344 489 354 483 q 315 501 335 494 q 302 507 308 504 q 289 510 296 510 q 280 510 285 510 q 271 513 275 510 q 205 494 238 503 q 139 478 172 485 q 138 465 139 474 q 135 447 136 456 q 130 430 133 438 q 122 422 126 422 l 115 429 q 119 474 115 451 l 113 474 l 104 481 q 111 492 104 488 q 124 499 118 496 l 124 500 q 99 494 111 497 q 75 490 88 490 l 69 493 l 64 492 l 57 499 l 60 501 l 47 499 l 36 507 q 54 521 43 517 q 65 536 58 529 q 37 526 53 532 q 7 521 21 521 l 6 521 l -3 529 q 10 538 -3 533 q 38 547 22 543 q 69 556 54 551 q 89 563 83 560 l 93 563 l 94 564 q 105 569 100 567 q 115 574 110 571 l 119 574 l 132 633 l 125 640 q 131 693 125 668 q 143 744 136 718 l 144 744 l 144 756 l 146 757 q 155 807 150 782 q 160 858 160 832 l 158 860 l 168 868 l 172 868 q 178 886 172 875 q 157 888 171 888 q 79 887 118 888 q 1 886 40 886 l -4 883 l -121 886 l -128 893 l -121 900 q -28 900 -75 900 q 64 901 18 900 q 79 910 67 910 l 72 918 l 78 924 l 100 932 l 94 932 l 88 939 q 99 947 88 943 q 124 955 110 951 q 152 960 139 958 q 169 963 165 963 q 188 946 188 963 l 217 949 l 217 950 q 208 953 213 951 q 203 960 203 954 q 208 966 203 964 q 217 969 214 968 q 250 976 231 974 q 290 980 269 979 q 332 981 311 981 q 368 981 353 981 q 378 981 371 981 q 392 979 385 981 q 406 976 400 978 q 413 971 413 975 q 399 963 413 964 q 382 963 386 963 l 375 963 m 551 950 l 551 951 q 542 951 547 951 q 533 950 538 951 l 551 950 m 193 925 q 176 927 185 926 q 160 928 168 928 l 149 928 q 128 925 138 928 q 108 919 119 922 q 140 919 124 918 q 172 917 157 919 l 181 921 l 192 921 l 193 924 l 193 925 m 215 921 l 215 924 l 206 924 l 203 925 l 203 924 l 204 921 l 215 921 m 649 914 l 636 914 l 636 913 l 649 914 m 338 899 q 367 898 353 899 q 397 899 382 897 q 368 899 382 899 q 339 900 354 900 l 338 899 m 479 894 q 511 894 494 894 q 543 897 528 893 q 511 897 528 897 q 479 894 494 897 m 193 842 l 193 844 l 192 846 l 192 839 l 193 842 m 244 768 l 243 769 l 243 768 l 244 768 m 192 717 l 196 726 l 194 735 l 192 731 l 192 717 m 229 700 q 232 708 231 704 q 232 717 233 713 l 229 711 l 229 700 m 185 607 q 193 652 188 631 q 199 697 199 674 l 199 700 q 183 693 194 696 l 183 606 l 185 607 m 146 629 q 153 650 149 640 q 158 671 158 660 q 158 681 158 676 q 157 690 157 685 q 151 660 154 675 q 146 629 149 644 m 169 638 q 167 615 167 626 q 167 593 167 604 l 168 593 l 169 594 l 169 638 m 407 619 l 410 622 q 399 621 404 622 q 389 619 394 619 l 407 619 m 240 608 q 281 610 260 610 q 321 611 301 611 l 328 619 l 354 619 q 344 620 349 619 q 333 621 339 621 q 287 619 310 621 q 242 610 264 617 l 240 608 m 449 603 q 456 601 451 601 q 449 603 453 603 m 467 597 q 488 596 481 597 q 477 599 485 597 q 468 601 469 601 l 456 601 l 467 597 m 183 586 l 185 593 l 185 594 l 183 594 l 183 586 m 268 579 q 282 578 275 578 q 296 578 289 578 q 314 579 306 578 q 332 582 322 581 l 332 586 l 333 586 q 319 589 325 589 q 293 585 306 589 q 268 579 281 582 m 268 579 q 257 581 261 579 q 239 574 250 579 l 268 579 m 229 567 q 242 569 236 567 q 256 572 249 571 l 250 575 q 240 572 244 572 q 229 568 235 571 l 229 567 m 169 569 l 169 572 l 168 572 l 165 571 l 164 571 l 164 568 l 169 569 m 340 561 q 349 562 343 561 q 363 562 356 563 q 374 559 369 561 q 379 553 379 557 l 374 547 q 391 547 382 547 q 408 546 400 547 q 388 554 397 549 q 367 564 378 560 l 340 561 m 507 547 l 510 547 q 492 558 499 556 l 506 550 l 507 547 m 226 543 q 244 550 236 549 l 239 551 q 233 548 236 549 q 226 544 229 547 l 226 543 m 419 540 l 415 538 l 417 536 l 419 539 l 419 540 m 589 532 q 584 535 586 535 q 579 538 582 536 l 581 531 l 589 532 m 186 531 l 186 535 l 183 529 l 186 531 m 274 531 l 282 533 l 269 533 l 274 531 m 144 519 l 163 524 l 164 528 q 155 526 160 526 q 146 522 150 525 l 144 519 m 593 525 q 600 510 596 517 q 610 496 604 503 q 603 510 607 503 q 593 525 599 518 m 513 524 q 525 518 521 521 l 525 522 q 513 524 521 524 m 568 479 q 558 500 564 486 q 546 517 553 514 q 557 497 553 507 q 565 476 561 488 l 568 479 m 529 506 q 538 492 533 499 q 547 479 543 486 q 541 494 544 486 q 532 507 538 501 l 529 506 m 499 499 l 489 499 q 499 493 493 496 l 499 499 m 526 467 l 522 474 l 518 496 l 515 499 l 518 478 l 526 465 l 526 467 m 610 401 q 609 410 610 406 q 611 419 608 415 q 600 444 604 431 q 588 468 596 457 l 588 461 q 599 431 594 446 q 610 401 604 417 m 638 407 q 631 435 638 421 q 621 461 625 449 l 619 460 l 614 461 q 626 434 621 447 q 638 407 632 421 m 524 438 l 514 443 q 517 436 517 440 q 521 428 518 432 l 524 431 l 524 438 m 558 421 q 558 415 556 418 q 558 408 560 411 q 560 429 558 422 l 554 439 l 553 442 l 553 439 q 556 430 556 435 q 558 421 557 425 m 524 363 q 517 384 519 374 q 510 406 515 394 l 503 411 q 510 386 506 399 q 524 363 515 374 m 572 393 q 572 406 575 397 l 572 393 m 538 392 l 538 394 l 536 396 l 536 394 l 538 392 m 560 376 q 563 360 560 368 q 567 346 565 353 l 568 353 q 563 371 565 363 q 560 389 561 379 l 560 376 m 629 269 l 633 283 l 629 275 l 629 269 m 611 235 q 619 249 615 242 q 625 265 624 257 q 618 251 622 258 q 611 235 614 243 m 614 196 q 642 261 636 226 q 631 240 638 250 q 617 218 624 229 l 614 196 m 525 199 q 526 178 525 185 q 533 194 531 186 q 536 211 536 201 l 538 214 l 538 215 l 525 199 m 606 183 l 614 194 l 613 194 q 614 214 614 201 l 610 207 q 606 189 610 197 l 606 183 m 128 207 q 131 213 131 210 q 128 207 128 210 m 492 133 l 500 158 l 511 167 l 511 178 l 486 138 l 490 132 l 492 133 m 490 131 l 493 131 l 499 128 q 511 153 504 140 q 525 176 518 165 l 511 167 q 513 156 511 160 l 490 131 m 557 154 l 554 153 q 547 136 549 142 l 557 154 m 543 68 q 564 75 550 69 q 588 108 578 90 q 608 144 597 126 q 592 128 601 138 q 572 108 582 118 q 555 87 563 97 q 543 68 547 76 m 476 135 l 479 143 l 472 138 l 471 132 l 476 135 m 121 132 l 117 135 l 115 132 l 115 129 l 121 126 l 121 132 m 149 115 l 168 107 l 168 110 q 158 113 163 111 q 150 118 154 115 l 149 115 m 186 101 l 193 101 l 182 106 l 186 101 m 408 76 l 429 93 l 388 81 l 408 76 m 140 82 q 153 75 144 79 q 173 66 163 71 q 194 57 183 61 q 211 49 206 53 q 176 67 194 60 q 142 89 157 74 l 140 82 m 508 54 l 506 50 q 490 47 497 49 q 474 44 482 44 l 471 43 l 478 43 q 488 44 483 43 q 499 44 493 44 l 507 51 l 517 51 l 517 53 l 508 54 l 535 81 q 513 65 522 76 q 490 54 504 54 l 488 54 q 468 44 474 49 q 482 48 475 44 q 496 54 489 51 l 508 54 m 576 50 q 580 51 579 50 q 583 51 581 51 q 596 61 592 57 l 588 65 q 581 56 586 60 q 574 50 576 53 l 576 50 m 410 64 l 407 60 l 410 54 l 410 64 m 86 39 l 82 63 l 81 58 l 79 58 l 79 22 l 86 39 m 433 58 q 439 61 436 58 q 433 58 436 61 m 522 46 q 528 48 525 46 q 536 49 532 50 l 542 53 l 532 51 l 526 54 l 518 46 l 522 46 m 174 47 q 186 40 182 42 l 189 43 l 183 44 l 182 46 l 174 47 m 406 43 l 407 44 l 417 44 l 418 46 l 406 44 l 404 43 l 406 43 m 64 -17 l 64 -6 q 65 12 64 3 q 65 29 65 21 q 56 13 61 21 q 46 -1 51 6 l 46 -64 q 58 -42 53 -53 q 68 -19 63 -31 l 64 -17 m 454 6 q 467 7 461 6 q 481 10 474 8 q 496 21 488 17 q 480 20 488 21 q 464 18 472 19 q 425 6 444 7 l 454 6 m 368 -4 l 342 0 l 339 -3 l 346 -7 l 368 -4 z "},"6":{"ha":731,"x_min":-8,"x_max":683,"o":"m -8 293 q -3 307 -8 297 q 10 326 3 317 q 26 345 18 336 q 38 358 33 354 q 41 456 36 396 q 57 578 46 515 q 85 698 68 642 q 124 783 101 754 q 113 783 118 782 q 103 781 107 783 l 94 788 q 109 797 94 794 q 129 800 124 799 l 121 807 q 133 829 121 817 q 162 854 146 842 q 194 876 178 867 q 219 892 211 886 q 204 887 213 889 q 189 882 196 885 l 178 890 q 199 908 185 901 q 226 918 214 915 q 233 927 226 922 q 249 936 240 932 q 267 944 258 940 q 279 951 275 947 l 275 956 q 289 972 275 967 q 313 979 303 978 l 325 986 l 333 983 q 412 992 374 989 q 490 999 450 994 l 497 996 l 514 996 q 531 1006 522 1004 q 537 1037 533 1021 q 551 1065 540 1053 l 558 1060 l 561 996 l 568 999 l 575 993 l 561 971 l 561 967 q 573 966 567 967 q 579 958 579 965 q 574 951 579 953 q 565 949 569 950 l 572 949 l 579 942 l 572 935 l 565 935 q 585 933 575 932 q 606 933 594 933 l 613 929 q 622 930 615 931 q 628 924 628 929 q 619 915 628 917 q 606 914 611 914 l 601 914 l 603 911 q 594 903 603 904 q 581 901 585 901 q 568 902 574 901 q 556 901 563 903 l 551 861 l 540 853 q 533 858 533 853 q 532 867 532 863 l 532 871 l 528 867 l 518 872 q 523 828 521 850 q 525 783 525 806 q 525 774 525 781 q 524 759 525 767 q 520 746 522 751 q 514 740 518 740 q 505 758 507 740 q 503 801 503 776 q 503 851 503 825 q 504 892 504 876 l 501 897 l 501 900 q 501 884 501 896 q 498 860 500 872 q 492 838 496 847 q 482 828 488 828 l 475 833 l 471 894 q 433 889 451 892 q 394 885 414 886 q 365 864 379 874 q 336 847 351 854 q 313 815 329 829 q 281 792 296 801 q 234 688 260 739 q 199 581 208 638 l 203 583 l 207 594 q 256 624 235 606 q 300 663 278 643 l 308 660 q 346 678 324 675 l 354 671 l 354 668 q 377 675 365 671 q 400 681 389 679 l 408 674 q 422 676 415 675 q 436 679 429 678 l 443 672 q 437 663 443 665 q 425 658 431 660 q 465 655 443 660 q 499 636 488 650 l 503 636 q 518 631 508 635 q 538 624 528 628 q 555 616 547 621 q 563 604 563 611 q 573 599 568 601 q 581 589 578 596 q 594 584 588 589 q 606 572 600 579 q 616 558 611 565 q 624 546 621 550 q 651 519 640 547 q 667 456 661 492 q 677 387 674 421 q 681 340 681 353 l 683 335 q 680 271 683 306 q 668 202 676 236 q 647 137 660 168 q 618 81 635 106 l 606 78 l 601 74 l 601 69 l 590 58 l 582 68 l 583 72 q 563 48 574 63 q 539 32 553 33 q 522 15 532 26 q 501 -7 511 4 q 479 -26 490 -18 q 460 -35 468 -35 l 451 -29 l 453 -15 q 406 -25 438 -24 q 357 -26 375 -26 q 319 -12 333 -26 q 302 -12 311 -12 q 286 -6 293 -12 q 275 -6 282 -6 q 261 -4 268 -6 q 249 0 254 -3 q 243 8 243 3 l 242 4 q 231 8 235 4 q 221 15 226 13 q 206 21 214 21 q 192 24 199 21 q 178 33 188 25 q 161 51 169 42 q 146 71 153 61 q 138 85 139 81 l 139 90 l 133 94 l 128 85 l 117 97 l 110 93 q 103 101 106 93 q 97 117 100 108 q 91 135 93 126 q 86 149 89 144 l 88 156 l 81 171 l 81 151 l 75 144 q 60 163 63 147 q 57 188 57 178 q 59 207 57 197 q 60 226 61 217 q 54 242 58 235 q 50 257 50 249 l 42 268 q 26 249 35 261 q 6 236 17 238 l -3 242 l 0 249 l -8 256 q -5 269 -8 265 q 3 281 -1 274 q -8 293 -8 283 m 526 978 l 526 981 l 525 981 l 525 978 l 526 978 m 392 976 l 371 975 l 369 971 l 385 971 l 392 976 m 447 904 q 459 905 454 904 q 471 907 464 906 l 471 910 l 447 904 m 289 893 q 292 896 289 893 l 289 893 m 274 881 l 279 885 l 278 885 l 274 881 m 264 840 l 267 844 l 265 846 l 263 844 l 246 843 l 264 840 m 139 804 l 131 800 l 138 801 l 139 804 m 264 803 l 263 803 l 258 799 l 258 797 l 264 801 l 264 803 m 251 790 q 246 782 250 789 q 251 790 249 785 m 229 725 l 244 754 l 231 733 l 229 725 m 153 678 q 165 694 161 685 q 175 711 169 703 q 166 717 172 713 q 161 724 160 721 q 156 705 158 714 q 153 686 153 696 l 153 678 m 210 717 q 208 714 208 715 l 210 717 m 200 699 l 208 714 l 204 710 l 200 699 m 208 663 q 218 683 215 672 q 225 704 221 693 q 216 685 219 694 q 208 664 213 675 l 208 663 m 149 599 q 158 630 153 610 q 171 657 164 650 l 171 665 l 169 665 l 168 654 q 162 647 165 651 q 156 639 158 642 l 149 599 m 292 631 q 301 637 296 633 q 310 644 306 640 q 300 638 304 642 q 292 631 296 633 m 364 617 q 396 619 379 618 q 428 622 413 619 q 396 621 413 621 q 364 617 379 621 m 474 610 l 461 610 l 460 608 l 474 610 m 275 594 q 294 595 281 594 q 313 599 308 596 q 296 599 304 599 q 279 597 288 599 l 275 594 m 458 594 q 470 592 465 593 q 482 593 475 592 q 470 594 475 594 q 458 594 465 594 m 325 560 q 347 566 336 563 q 367 575 357 569 q 353 578 360 576 q 340 583 347 579 q 333 572 336 578 q 325 560 329 567 m 257 571 q 272 576 268 574 l 265 581 l 257 571 m 157 521 l 156 525 q 163 539 157 531 l 163 574 q 156 546 158 560 q 151 517 154 532 l 157 521 m 272 557 l 274 557 l 275 563 l 264 558 l 272 557 m 144 557 l 144 558 l 143 556 l 144 557 m 211 514 q 233 530 224 514 q 253 553 243 546 q 241 547 246 550 q 231 542 236 544 l 210 515 l 211 514 m 476 160 q 494 179 485 167 q 513 206 504 192 q 526 235 521 221 q 532 263 532 250 q 526 347 532 304 q 507 429 521 389 q 497 435 501 429 q 491 448 493 440 q 488 463 489 456 q 485 475 486 471 l 426 515 l 432 525 q 443 520 439 525 q 451 513 447 515 l 451 515 l 447 524 q 422 540 432 529 q 394 550 411 550 q 379 549 388 550 q 364 547 371 549 q 374 548 367 547 q 390 549 382 549 q 403 547 397 549 q 410 542 410 546 q 397 524 410 531 q 367 515 383 518 q 333 510 350 511 q 308 510 317 510 q 294 513 299 510 q 274 493 286 506 q 248 468 261 481 q 222 444 235 456 q 201 431 210 433 l 193 435 q 190 420 192 428 q 188 406 188 413 q 190 360 188 382 q 194 315 193 339 q 201 309 197 311 q 207 304 204 307 q 220 290 217 297 q 228 276 224 283 q 242 264 233 269 q 268 254 250 258 q 283 252 272 253 q 293 244 293 251 l 288 236 q 264 241 278 236 q 237 253 250 246 q 214 272 224 261 q 201 292 204 282 l 194 296 l 194 281 l 200 275 q 208 241 206 258 q 215 207 211 224 l 225 197 l 225 189 l 226 186 q 241 174 236 188 q 247 154 246 161 q 294 115 269 133 q 347 83 319 97 q 386 86 367 83 q 425 90 406 89 q 449 124 438 107 q 475 154 460 140 l 476 160 m 496 528 q 499 546 496 535 l 496 547 l 482 546 l 479 547 l 496 528 m 128 496 l 133 494 l 132 538 q 127 515 129 526 q 122 493 125 504 l 128 496 m 524 519 l 511 535 l 510 528 l 511 522 l 519 517 l 524 519 m 353 533 q 333 532 343 533 q 315 525 324 531 q 321 524 318 525 q 326 524 324 524 q 354 525 340 524 q 381 533 368 526 l 353 533 m 574 506 q 544 533 564 522 q 574 506 558 517 m 581 526 l 586 521 l 583 525 l 581 526 m 81 525 l 79 524 l 79 519 l 78 517 l 79 517 l 81 518 l 81 525 m 615 478 l 621 475 q 608 494 617 486 q 589 510 599 503 q 595 497 592 503 q 599 485 599 492 q 608 474 606 478 l 615 478 m 636 508 l 633 508 l 633 507 l 639 499 l 636 508 m 81 507 q 78 486 78 493 q 79 469 78 478 q 83 454 81 461 l 81 507 m 144 494 l 146 485 l 144 485 l 140 461 l 150 467 q 150 483 150 475 q 153 500 150 492 l 144 494 m 226 481 l 240 493 q 231 488 238 490 l 226 481 m 126 397 q 126 410 125 404 q 126 422 126 415 q 121 446 126 436 l 122 449 q 122 486 121 468 q 119 465 119 475 q 119 443 119 454 l 119 392 l 126 397 m 99 482 l 97 481 l 97 471 l 99 482 m 199 468 l 194 440 q 219 458 206 451 q 242 476 232 465 q 228 465 235 471 q 211 458 221 458 l 203 465 l 206 472 l 199 468 m 610 451 q 593 471 603 463 q 603 456 599 464 q 611 439 607 447 l 610 451 m 97 469 q 96 467 96 468 l 97 469 m 526 440 q 524 456 524 444 q 519 463 521 458 q 514 469 517 467 q 526 440 518 456 m 631 447 q 629 460 631 456 l 625 463 l 624 469 l 624 467 l 625 453 l 631 447 m 554 433 q 550 448 553 442 q 543 461 547 454 l 543 451 l 554 433 m 149 443 l 146 443 l 147 440 l 147 436 l 149 433 l 149 443 m 650 422 q 649 432 650 428 q 649 442 647 436 l 647 442 q 648 432 649 436 q 650 422 647 428 m 169 432 l 167 422 l 164 419 q 163 407 164 411 l 169 432 m 553 392 l 553 388 l 556 389 q 539 415 550 401 q 544 407 542 411 q 547 397 546 403 l 553 392 m 647 396 q 646 404 647 401 q 647 396 646 399 m 136 376 q 138 389 138 383 q 138 401 138 394 q 136 389 136 394 q 136 376 136 383 m 593 363 q 598 376 593 369 q 603 389 603 382 l 603 393 l 600 396 l 601 393 l 590 376 l 593 363 m 618 392 l 617 393 l 617 389 l 618 392 m 96 339 l 97 390 l 93 382 l 96 339 m 81 368 q 81 376 81 371 q 78 382 82 382 q 81 368 78 376 m 129 329 q 124 346 126 338 q 119 363 121 354 l 119 358 q 129 322 119 342 l 129 329 m 590 353 l 592 354 l 590 357 q 590 356 592 356 l 589 356 l 588 354 l 590 353 m 621 339 l 622 310 q 624 322 624 317 q 624 335 624 328 l 621 339 m 38 335 q 30 325 33 329 q 24 314 26 321 l 38 332 l 38 335 m 69 321 l 72 314 l 74 314 l 76 315 l 69 321 m 600 311 q 596 292 596 306 l 603 285 l 603 264 q 604 279 604 269 q 603 296 604 288 q 601 313 603 304 l 601 308 l 600 311 m 36 281 l 35 282 q 33 279 35 281 l 36 281 m 642 267 q 642 272 643 269 q 642 278 642 275 l 642 267 m 575 236 q 580 251 578 243 q 585 265 582 258 l 576 274 l 578 271 q 576 257 578 264 q 572 243 575 250 l 575 236 m 660 271 q 658 256 658 265 l 660 271 m 76 247 l 79 243 q 78 251 78 247 q 75 260 78 256 l 76 247 m 539 225 q 532 207 536 215 q 526 188 528 199 q 542 214 536 200 q 553 243 549 228 l 549 253 q 547 237 547 246 q 539 225 546 228 m 104 221 l 97 242 q 99 231 97 236 q 97 221 100 226 l 100 218 l 104 221 m 94 201 l 83 214 l 83 208 l 90 199 l 94 201 m 188 185 l 178 210 l 183 190 l 188 185 m 597 185 q 603 208 603 194 l 596 190 l 597 185 m 160 169 l 160 171 l 158 172 l 158 174 l 157 175 l 158 172 l 158 171 l 160 169 m 122 167 l 119 171 l 122 161 l 122 167 m 199 154 l 190 163 l 190 160 l 192 157 l 199 154 m 165 150 l 164 151 l 163 151 l 165 150 m 125 149 l 124 149 l 125 146 l 125 149 m 517 143 l 513 139 l 514 139 l 517 143 m 211 129 l 217 128 l 214 135 l 201 138 l 211 129 m 590 90 l 606 111 q 607 128 607 117 l 607 135 q 597 113 603 124 q 585 90 590 101 l 590 90 m 535 107 l 544 113 q 548 118 546 115 q 551 124 550 121 l 544 126 l 542 119 l 535 115 l 529 122 l 513 100 l 535 108 l 535 107 m 567 90 l 567 88 l 588 125 l 581 121 l 567 90 m 161 99 l 161 114 l 160 115 l 156 108 l 161 99 m 286 92 q 319 83 303 90 q 300 97 310 90 q 281 110 290 103 l 276 108 l 269 110 q 278 101 274 106 q 286 92 282 97 m 554 106 q 549 95 551 100 q 543 85 546 90 l 547 85 l 557 107 l 554 106 m 501 85 q 528 101 514 90 q 516 96 521 99 q 506 90 511 93 l 501 85 m 271 74 l 278 72 l 268 76 l 271 74 m 307 68 q 319 65 315 65 l 322 65 q 311 69 317 68 q 300 74 306 71 l 307 68 m 575 71 l 576 74 l 575 74 l 575 71 m 349 64 l 353 67 l 343 71 l 342 64 l 349 64 m 382 69 q 390 67 385 68 q 396 63 394 65 q 408 65 403 64 q 419 68 414 65 q 401 67 410 67 q 382 69 392 68 m 500 19 q 532 35 519 19 q 530 49 529 43 q 536 61 531 54 l 485 21 l 496 22 l 500 19 m 332 44 l 340 44 l 343 43 l 336 51 l 325 51 l 329 46 l 332 44 m 193 40 l 194 42 l 186 50 l 182 50 l 193 40 m 460 19 q 473 26 467 22 q 483 38 479 31 q 469 33 476 35 q 456 29 463 31 l 460 19 m 343 25 l 354 25 l 360 28 l 363 28 l 349 29 l 347 29 l 343 25 m 444 14 q 448 20 446 17 q 451 26 450 24 q 435 21 443 26 l 428 21 l 426 18 l 428 18 l 435 8 l 444 14 m 460 17 q 461 18 461 17 l 460 18 l 460 17 z "},"7":{"ha":582,"x_min":-101,"x_max":765,"o":"m 207 1 q 202 -17 206 -6 q 193 -42 199 -29 q 182 -65 188 -54 q 171 -79 176 -75 l 164 -74 q 172 -47 164 -58 q 182 -21 179 -35 l 178 -15 q 182 13 178 0 l 176 7 l 169 15 q 122 15 146 15 q 75 17 99 14 l 69 22 l 72 29 q 53 32 67 31 q 40 40 40 33 l 47 47 l 111 47 q 140 56 125 56 q 171 58 156 57 l 172 65 q 131 67 153 67 q 93 79 110 68 q 52 79 72 79 q 11 82 32 79 l 4 89 l 11 96 q 95 98 53 96 q 179 100 138 100 l 185 118 q 165 118 175 117 q 146 121 156 119 l 140 128 l 147 135 q 168 134 158 135 q 189 132 178 133 q 212 204 200 168 q 235 276 224 240 q 240 293 236 281 q 247 318 243 306 q 256 341 251 331 q 264 351 260 351 l 267 351 q 270 362 268 354 q 275 378 272 369 q 283 400 279 389 l 283 407 q 243 310 263 358 q 210 213 224 263 q 203 188 207 200 q 194 165 200 176 l 188 161 l 181 168 q 194 233 181 192 q 227 321 208 275 q 265 410 246 367 q 294 478 285 453 q 296 494 294 486 q 299 510 297 501 l 297 514 q 317 579 304 547 q 339 643 329 611 q 358 707 349 675 q 375 771 367 739 q 358 720 365 746 q 336 671 351 694 l 331 668 l 324 675 q 349 763 329 721 q 385 847 369 804 l 394 851 l 394 865 q 365 806 378 836 q 339 743 351 775 q 335 733 336 739 q 328 728 333 728 l 321 735 q 328 762 321 750 q 342 786 336 774 q 352 827 342 808 q 369 865 363 846 q 294 861 332 861 q 222 863 258 861 q 149 864 185 864 q 143 803 144 833 q 135 744 142 774 l 128 739 l 122 740 q 113 693 118 717 q 96 649 107 669 l 89 644 q 81 658 82 649 q 81 674 81 667 q 83 722 81 697 q 88 769 85 746 l 88 768 q 79 778 79 768 q 80 815 79 797 q 82 851 81 832 q 78 828 81 846 q 70 793 75 811 q 60 760 65 775 q 49 746 54 746 q 40 752 43 746 q 35 766 36 758 q 33 781 33 774 q 33 793 33 789 q 35 833 33 813 q 36 872 36 853 l 19 869 l 13 876 l 17 883 q 26 887 22 885 q 36 890 31 889 l 36 900 q 7 899 28 900 q -37 899 -14 899 q -78 900 -60 899 q -101 906 -97 901 l -94 913 q -76 917 -83 911 q -58 925 -68 922 q -11 935 -35 933 q 36 939 13 936 l 36 949 l 35 951 l 0 951 l -7 958 q -1 965 -7 963 q 12 968 4 967 q 26 969 19 969 q 36 969 33 969 l 36 972 q 14 972 25 972 q -8 974 3 971 l -17 982 q -4 993 -17 993 q 17 991 7 993 q 38 990 26 989 q 40 1010 39 1000 q 43 1029 40 1019 l 50 1035 l 58 1028 l 67 1036 q 76 1015 75 1032 q 76 989 76 997 l 103 989 q 103 1004 103 993 q 103 1027 103 1015 q 106 1049 104 1039 q 114 1058 108 1058 q 125 1047 125 1058 q 123 1032 125 1040 q 121 1017 121 1024 l 121 989 q 188 989 154 989 q 256 990 222 989 q 272 990 261 990 q 283 983 283 990 q 283 980 283 981 q 282 976 282 979 q 299 975 290 975 q 317 975 308 975 q 394 979 356 975 q 471 988 432 983 q 491 1047 479 1018 q 515 1103 503 1075 l 521 1107 l 529 1100 q 525 1070 529 1085 q 521 1040 521 1056 l 521 1036 l 526 1029 q 521 990 526 1007 l 529 983 l 522 976 l 515 975 l 533 976 l 542 971 q 531 960 540 964 q 515 956 522 957 l 521 954 q 640 967 581 961 q 758 974 699 974 l 765 967 l 763 961 q 689 938 728 942 q 611 931 650 933 l 614 925 l 607 918 l 601 918 q 584 914 593 914 q 567 910 575 914 q 628 911 597 911 q 689 911 658 911 l 696 904 q 676 891 696 896 q 631 884 656 886 q 582 881 606 882 q 550 881 558 881 l 544 869 q 545 867 544 868 q 546 865 546 867 q 544 854 546 858 l 546 850 l 544 849 q 490 659 510 756 q 443 467 469 563 l 438 463 l 435 463 q 417 393 425 428 q 393 325 408 358 l 393 319 q 390 305 389 313 q 386 290 390 297 l 386 285 q 371 249 378 269 q 360 206 364 228 q 352 161 356 183 q 346 122 349 139 q 368 121 357 121 q 390 117 379 121 q 413 119 401 118 q 435 119 424 119 l 442 113 l 435 106 q 413 103 424 107 q 392 100 403 100 q 435 99 414 100 q 479 99 457 99 q 512 99 496 99 q 544 97 528 100 l 551 90 l 544 83 l 336 83 l 335 78 q 346 78 340 78 q 357 76 351 78 l 364 69 l 358 63 q 390 63 374 63 q 421 61 406 64 l 428 54 l 424 47 l 428 42 q 409 35 422 36 q 389 35 396 35 l 368 35 q 344 24 357 26 q 318 21 331 22 q 291 -49 307 -15 q 254 -115 275 -83 l 249 -118 l 240 -112 q 252 -47 240 -79 q 271 17 264 -15 q 257 16 264 17 q 243 15 250 15 q 227 -19 236 -3 q 217 -56 218 -36 q 216 -65 217 -58 q 210 -72 215 -72 q 201 -62 201 -72 q 204 -32 201 -47 q 207 -1 207 -17 l 207 1 m 503 1029 l 501 1028 l 501 1024 l 500 1022 l 501 1024 l 501 1025 l 503 1026 l 503 1029 m 103 969 l 103 974 l 76 974 l 76 969 l 103 969 m 281 974 l 282 972 l 292 974 l 281 974 m 143 974 q 154 967 150 972 l 156 974 l 143 974 m 121 974 l 121 969 l 129 969 l 128 974 l 121 974 m 51 972 l 51 969 l 51 972 m 92 944 l 86 947 l 76 946 l 76 942 l 90 942 l 92 944 m 51 940 l 51 946 l 50 946 l 50 940 l 51 940 m 565 944 l 553 943 l 565 943 l 565 944 m 117 944 l 114 944 l 114 943 l 117 944 m -32 914 q -13 915 -22 914 q 6 915 -4 915 l 3 921 q -44 914 -19 921 l -32 914 m 513 893 l 514 894 l 501 894 l 501 892 l 513 893 m 253 879 q 299 882 276 879 q 346 888 322 885 q 299 887 322 888 q 253 879 276 886 m 113 883 l 113 885 l 110 885 l 110 883 l 113 883 m 210 879 l 211 881 l 215 882 l 217 883 l 181 883 q 169 882 175 883 q 158 879 164 881 l 210 879 m 506 881 l 501 879 l 497 846 l 506 881 m 124 864 q 105 783 115 824 q 94 700 94 742 q 95 694 94 697 q 96 688 96 690 q 113 775 108 731 q 125 864 118 819 l 124 864 m 50 775 q 58 808 56 792 q 64 842 61 825 l 60 854 q 57 834 58 844 q 50 815 56 824 l 50 775 m 417 851 q 413 838 414 844 q 411 825 413 832 q 415 838 414 832 q 417 851 415 844 m 508 840 q 483 755 494 797 q 460 668 471 713 q 491 744 475 706 q 511 822 507 782 l 506 828 l 508 840 m 458 738 q 471 785 465 761 q 481 832 476 808 q 467 785 469 810 q 458 738 464 761 m 469 731 q 485 769 481 749 q 492 810 489 790 q 482 770 488 790 q 469 731 476 750 m 363 572 q 396 678 379 625 q 422 785 413 731 l 421 786 q 388 681 404 733 q 363 572 372 628 m 450 767 l 449 767 l 449 765 l 450 767 m 401 653 q 414 697 404 676 q 431 739 424 717 q 425 733 428 736 q 418 728 422 729 q 401 653 408 690 m 407 628 l 410 632 l 410 636 l 407 628 m 390 554 q 397 569 396 558 q 401 586 399 579 q 381 528 389 557 q 385 541 383 535 q 390 554 388 547 m 400 447 q 411 464 406 458 l 418 460 q 424 492 421 476 q 432 524 428 508 l 433 525 q 417 487 426 506 q 400 449 408 468 l 400 447 m 349 469 l 343 451 l 349 469 m 325 392 l 328 394 q 333 419 331 407 q 340 443 336 432 q 338 433 340 440 q 332 417 335 425 q 327 401 329 408 q 325 394 325 394 l 325 392 m 322 372 q 326 383 325 378 q 329 393 326 388 q 322 372 324 379 m 297 278 q 292 257 294 267 q 288 236 290 247 q 293 257 292 247 q 297 278 294 267 m 235 153 q 249 187 243 169 q 263 222 256 204 l 260 228 q 263 240 261 235 q 267 253 264 246 q 250 203 260 228 q 235 153 240 179 m 311 82 l 313 82 l 315 82 l 322 81 l 322 83 l 311 83 l 311 82 m 197 65 l 194 67 l 193 60 l 197 65 m 303 19 q 288 17 292 19 l 267 -64 q 287 -24 278 -44 q 303 19 296 -3 m 226 15 l 225 15 l 222 6 l 226 15 z "},"8":{"ha":722,"x_min":49,"x_max":699,"o":"m 450 -3 q 430 -9 440 -8 q 408 -10 419 -10 q 381 -8 394 -10 q 354 -6 368 -7 l 358 -12 l 351 -19 q 327 -20 343 -19 q 296 -19 311 -21 q 268 -11 281 -17 q 253 6 256 -6 q 220 15 236 8 q 188 22 204 22 l 185 22 l 178 13 q 157 23 168 15 q 136 42 146 31 q 119 65 126 53 q 113 86 113 76 l 117 93 l 97 118 q 78 128 86 117 q 67 157 71 140 q 60 191 63 174 q 58 215 58 208 q 50 226 51 218 q 49 240 49 233 q 53 269 49 256 q 63 296 57 282 q 63 319 63 307 q 71 343 64 332 q 85 422 71 386 q 124 492 100 457 l 128 490 l 133 497 q 124 510 124 500 q 155 538 139 524 q 189 563 171 551 l 194 578 l 189 575 l 186 575 l 181 578 l 176 576 q 129 625 147 596 q 103 647 114 635 q 79 671 92 660 l 85 679 q 88 677 88 678 q 92 675 89 676 l 106 665 q 109 663 108 664 q 113 661 110 663 q 108 678 110 669 q 107 694 107 686 l 114 708 l 111 714 l 106 708 q 99 715 101 708 q 94 729 96 721 q 93 745 93 738 q 93 756 93 753 l 93 772 l 89 779 q 94 810 89 794 q 107 839 100 825 q 115 882 107 858 q 138 926 124 906 q 171 960 151 946 q 211 975 190 975 q 276 997 239 996 q 344 1001 313 997 q 361 996 353 999 q 379 993 369 993 q 418 993 397 993 q 459 990 439 993 q 497 980 479 988 q 528 956 515 972 q 574 929 554 944 l 574 925 q 616 870 603 906 q 631 801 629 835 q 638 794 635 801 q 642 778 640 788 q 644 760 643 768 q 644 747 644 751 q 640 701 644 725 q 619 661 636 676 q 604 581 619 619 q 569 506 589 542 q 603 467 589 489 q 632 425 617 446 l 639 433 q 651 421 647 433 q 658 393 656 408 q 662 363 661 378 q 664 342 663 347 q 665 335 665 339 q 667 329 665 332 l 674 307 q 676 294 676 299 l 678 296 l 685 288 q 685 274 685 281 q 683 260 685 267 q 689 224 688 242 q 690 189 690 207 l 692 189 l 699 183 l 694 174 l 694 172 l 629 81 q 618 52 629 68 q 591 22 607 36 q 558 -1 575 8 q 529 -11 542 -11 q 516 -10 522 -11 q 503 -8 510 -10 l 501 -4 q 473 -24 486 -12 q 442 -35 460 -35 l 433 -25 q 440 -12 433 -18 q 451 -3 446 -7 l 450 -3 m 297 983 l 278 979 l 279 974 l 297 983 m 328 971 l 335 974 q 344 979 336 978 q 356 981 353 981 l 354 982 q 338 978 346 982 q 322 972 331 975 l 328 971 m 460 967 l 461 967 l 464 972 l 444 975 l 443 975 l 460 967 m 221 922 q 251 942 236 931 q 286 954 267 954 l 288 956 l 294 958 l 296 958 l 296 960 l 283 960 q 263 949 272 954 q 243 939 254 943 q 232 932 238 933 q 219 928 226 931 l 221 922 m 286 933 q 304 946 294 942 q 325 954 314 950 q 308 949 315 953 q 292 942 300 944 l 283 933 l 286 933 m 486 932 q 508 936 497 936 q 492 942 501 942 q 474 946 482 942 l 471 946 l 478 936 l 486 932 m 506 939 l 513 936 l 515 936 l 504 942 l 506 939 m 175 938 q 163 922 168 931 q 151 906 157 914 q 165 922 158 914 q 178 936 171 929 l 175 938 m 247 751 q 280 716 264 733 q 306 676 296 699 q 333 657 322 669 q 356 631 344 644 q 363 632 360 632 q 371 633 367 632 q 375 636 374 636 q 379 638 376 636 q 381 640 381 639 q 382 642 381 640 l 383 644 q 390 649 386 649 q 396 646 393 649 q 445 678 418 661 q 482 701 472 694 q 488 704 485 703 q 493 706 490 706 q 499 703 496 706 q 497 750 497 726 q 507 797 497 774 q 481 840 499 821 q 456 882 464 858 q 417 910 438 897 q 374 922 397 922 q 365 922 369 922 q 356 921 360 921 q 337 903 349 913 q 319 890 325 893 q 314 883 318 885 q 306 878 310 881 q 302 868 304 874 q 293 863 300 863 q 286 869 286 863 q 290 876 286 872 q 297 888 293 885 q 307 894 300 892 l 306 896 q 310 901 306 897 l 331 918 q 326 917 328 918 q 322 917 325 917 q 286 884 303 901 q 247 854 269 867 q 245 812 247 833 q 240 769 243 790 l 247 751 m 153 882 l 151 882 l 144 888 q 158 902 151 894 q 171 917 164 910 q 153 899 160 910 q 139 878 146 889 l 139 867 l 142 864 l 153 882 m 563 882 l 567 875 l 571 872 l 571 868 l 576 861 l 575 871 q 563 892 565 878 q 557 900 560 896 q 551 907 554 904 l 546 903 l 558 885 l 563 882 m 201 854 q 211 872 204 864 q 225 886 218 879 l 200 879 q 201 867 201 872 q 201 854 201 861 m 246 882 q 244 878 244 881 l 244 878 q 246 882 246 879 m 597 861 q 606 831 603 846 q 615 803 608 817 l 617 804 q 611 840 617 822 q 599 874 606 857 l 596 871 l 599 865 l 597 861 m 186 804 q 188 822 188 814 q 188 840 188 831 l 188 858 q 179 834 181 847 q 178 808 178 821 l 186 804 m 522 849 l 517 857 l 522 847 l 522 849 m 154 811 l 154 818 q 158 833 158 825 q 161 849 157 842 l 161 854 q 154 827 157 840 q 146 801 151 814 l 154 811 m 132 828 l 131 828 l 131 822 l 132 824 l 132 828 m 569 807 q 572 773 569 790 q 568 740 574 756 l 572 736 q 574 765 574 751 q 575 794 575 779 q 574 802 575 797 q 571 810 572 807 l 569 807 m 550 763 q 550 774 550 768 q 549 785 550 779 l 542 792 q 550 751 547 774 l 550 763 m 182 750 l 182 753 l 183 757 l 183 758 l 183 776 l 178 783 l 176 786 l 176 785 q 176 769 176 776 q 174 753 175 761 l 182 750 m 539 706 q 531 781 539 743 q 531 769 531 776 q 525 761 531 763 q 531 732 528 746 q 535 703 533 718 l 539 706 m 215 738 q 206 749 211 740 l 208 740 l 215 738 m 179 722 l 179 724 l 181 726 l 181 728 l 181 738 l 172 747 l 171 746 l 171 738 l 169 738 l 172 729 l 179 722 m 515 640 q 519 658 517 650 q 522 676 522 667 l 522 700 q 522 715 522 707 q 519 731 521 724 q 516 710 518 719 q 514 690 514 701 l 514 667 q 514 653 514 660 q 515 640 514 647 m 244 724 q 258 704 251 714 q 275 688 264 694 q 260 706 268 697 q 244 724 253 715 m 200 717 l 200 719 l 199 719 l 196 721 l 194 719 l 200 717 m 161 700 q 172 690 165 697 l 172 693 l 163 710 l 161 700 m 408 594 q 433 583 422 593 q 454 567 443 574 q 465 603 457 585 q 489 632 474 621 l 490 632 q 496 652 492 636 q 500 671 500 668 q 499 684 500 678 q 499 697 499 690 q 482 684 496 693 q 451 664 468 675 q 418 642 435 653 q 390 624 401 632 q 385 613 388 617 q 383 607 383 608 q 379 601 381 604 q 390 594 385 597 q 401 588 394 590 l 408 594 m 236 678 q 251 667 243 671 q 265 656 258 663 l 250 672 l 236 678 m 149 651 q 154 641 151 646 q 160 631 157 636 l 161 633 l 161 636 l 149 651 m 308 633 l 306 640 l 299 644 l 304 635 l 308 633 m 367 614 l 369 611 q 372 615 369 610 l 371 617 q 369 615 369 617 q 367 614 368 614 m 282 610 l 283 611 l 276 615 l 282 610 m 192 592 l 176 600 l 185 589 l 192 592 m 483 558 q 492 574 488 567 q 496 592 496 582 l 496 594 l 483 558 m 401 563 l 381 589 l 374 590 q 372 586 372 589 q 376 579 375 583 q 381 572 378 575 q 389 565 386 569 q 397 558 392 561 l 401 563 m 225 572 l 218 576 l 215 568 l 217 567 q 210 546 211 553 l 225 572 m 232 535 l 238 551 l 236 553 l 228 538 l 232 535 m 442 538 q 451 531 446 533 q 461 525 456 528 l 443 539 l 442 538 m 492 532 l 492 535 l 486 538 l 485 538 l 485 536 l 492 532 m 406 536 q 447 506 424 514 q 442 509 444 508 q 438 513 440 510 l 417 529 q 411 533 414 532 q 406 536 408 533 m 260 529 l 254 535 q 244 517 249 526 q 235 499 240 508 l 260 529 m 340 514 q 329 522 336 519 l 340 514 m 164 465 q 176 485 171 476 q 189 504 182 494 l 189 518 l 181 510 l 164 465 m 493 496 q 485 506 489 501 q 475 515 481 511 l 475 507 l 482 499 l 493 496 m 375 508 l 375 507 l 369 504 l 379 508 l 378 510 l 375 508 m 203 496 l 203 486 q 208 497 206 492 q 211 508 210 501 l 203 496 m 257 461 q 274 484 265 472 q 293 507 283 496 l 292 507 q 274 486 282 497 q 256 464 265 475 l 257 461 m 439 106 l 454 114 q 469 135 460 125 q 488 153 478 144 l 489 157 q 487 169 488 161 q 487 184 486 176 q 490 198 488 192 q 499 204 493 204 l 506 200 q 491 293 499 247 q 475 386 483 339 q 464 404 467 397 l 467 413 l 465 413 l 456 403 q 442 410 449 403 q 435 424 435 417 l 422 436 q 410 429 418 429 q 384 444 393 429 q 364 468 375 458 q 352 466 358 465 q 344 475 346 467 l 343 476 l 342 476 l 339 474 q 327 478 332 474 q 322 489 322 482 l 310 497 q 290 470 299 483 q 272 443 282 457 q 316 398 293 419 q 361 351 339 376 q 387 319 375 336 q 411 288 399 303 q 425 272 418 279 q 439 257 432 264 q 443 249 443 253 q 436 242 443 242 q 426 249 433 242 q 417 258 419 256 q 378 307 396 282 q 339 356 361 332 q 306 387 329 365 q 263 431 282 408 q 233 390 247 410 q 203 351 219 371 q 200 323 201 336 q 196 294 199 310 q 210 283 210 294 q 208 240 210 261 q 206 196 207 218 q 240 152 224 171 q 275 120 256 133 q 318 101 294 107 q 374 94 342 94 q 406 97 390 94 q 438 107 422 100 l 439 106 m 536 475 l 519 492 l 517 490 l 522 478 q 529 476 525 476 q 536 472 533 475 l 536 475 m 481 468 q 499 456 490 461 q 518 446 508 451 q 503 462 511 454 q 496 481 496 469 q 475 486 489 483 q 482 474 481 478 l 481 468 m 386 474 l 381 475 q 398 462 389 468 q 415 449 407 456 q 406 465 413 458 q 394 481 400 472 l 392 481 l 386 474 m 218 460 q 219 452 221 457 q 215 444 218 447 l 235 471 q 218 460 228 464 m 189 467 l 188 465 l 188 461 q 171 426 176 444 q 158 389 165 408 q 175 419 168 404 q 189 450 182 435 l 189 467 m 163 460 l 169 456 l 171 457 l 164 465 l 163 460 m 558 447 q 568 438 564 442 q 576 428 572 433 l 578 432 q 569 443 574 438 q 557 451 564 449 l 558 447 m 597 442 q 606 433 601 438 q 613 425 610 429 q 597 451 606 442 l 599 446 l 597 442 m 483 428 l 482 429 l 476 422 q 506 392 494 407 l 510 392 q 481 421 497 408 l 483 428 m 522 425 l 526 419 l 526 418 l 528 421 l 522 425 m 629 399 q 619 414 628 406 l 626 400 l 629 399 m 549 413 l 547 414 l 549 411 l 549 413 m 599 371 l 590 399 q 594 384 593 392 q 596 369 594 376 l 599 371 m 204 390 l 204 388 l 208 394 l 204 390 m 154 350 q 169 370 161 360 q 176 393 176 381 l 176 394 q 163 374 171 383 q 146 354 156 364 l 154 350 m 578 357 q 577 358 578 358 q 576 360 576 358 l 574 367 q 572 369 574 368 q 576 356 575 363 q 578 342 576 349 l 578 357 m 551 303 l 551 329 l 547 335 q 539 326 546 329 l 543 317 l 543 296 l 551 303 m 171 328 q 162 313 167 321 q 157 294 157 304 l 157 292 q 163 309 160 300 q 171 326 167 318 l 171 328 m 519 267 q 531 272 525 271 l 535 279 q 522 314 535 294 l 519 313 l 519 267 m 624 285 l 624 282 l 625 276 l 625 274 q 628 267 628 271 q 631 260 629 263 q 628 281 629 271 q 624 301 626 290 l 624 285 m 100 296 q 99 291 100 294 q 100 286 97 288 l 100 296 m 196 279 l 194 274 l 190 260 l 194 235 q 197 258 196 246 q 197 281 197 269 l 196 281 l 196 279 m 553 268 l 543 263 q 542 228 543 246 q 536 196 542 211 q 548 226 543 211 q 553 257 553 240 l 553 268 m 138 244 q 140 252 139 249 q 144 260 142 256 l 144 267 l 136 244 l 138 244 m 89 264 l 92 261 l 90 267 l 89 264 m 161 265 l 158 258 l 158 257 l 164 258 l 161 265 m 588 196 q 594 219 593 207 q 599 242 596 231 q 593 229 596 235 q 588 217 590 224 l 588 196 m 169 183 q 159 210 164 197 q 150 236 154 222 l 149 236 q 158 210 153 222 q 168 183 163 197 l 169 183 m 131 197 q 143 156 133 174 q 138 178 140 167 q 132 200 136 189 l 131 197 m 183 193 l 188 185 l 183 199 l 183 193 m 519 181 l 519 161 l 532 186 q 522 179 526 181 l 519 181 m 671 178 q 665 157 665 168 l 676 171 q 675 178 676 175 q 672 185 674 182 l 671 182 l 671 178 m 97 144 q 97 153 97 149 q 97 161 96 157 q 90 171 96 165 l 92 175 l 89 185 l 89 183 l 88 179 l 88 178 l 88 163 l 92 161 l 97 144 m 539 168 l 539 171 l 538 169 l 538 167 l 539 168 m 163 164 l 163 161 l 165 158 l 163 164 m 172 158 q 174 149 172 153 q 179 139 176 144 l 172 158 m 508 142 l 507 144 q 506 143 506 144 l 501 139 q 500 136 501 138 l 508 142 m 569 110 l 569 128 q 560 112 564 121 q 551 94 556 103 l 553 90 l 563 97 l 569 110 m 207 121 q 212 113 210 117 q 214 103 214 108 l 217 114 l 207 121 m 204 115 q 208 107 207 111 q 213 99 210 103 q 209 107 211 103 q 204 115 207 111 m 621 108 l 622 114 l 622 115 l 615 103 l 621 108 m 149 72 q 142 85 146 79 q 135 96 139 90 q 141 83 138 89 q 149 72 144 78 m 253 89 l 247 93 l 249 92 l 249 90 l 250 89 l 253 89 m 474 72 q 481 78 476 75 q 488 86 485 82 l 468 71 l 474 72 m 225 85 q 232 76 231 82 q 236 67 233 71 l 250 67 q 240 76 244 71 q 233 86 233 78 l 225 85 m 168 86 l 167 83 q 172 73 169 78 q 175 63 174 68 q 188 61 183 63 l 168 86 m 426 69 q 433 67 429 67 q 440 65 438 67 q 447 76 442 72 q 456 83 451 81 l 453 83 l 426 69 m 333 81 l 340 81 l 338 82 l 332 82 l 333 81 m 261 71 q 256 75 257 75 l 254 75 l 261 71 m 271 68 q 282 67 276 67 q 293 68 288 68 l 292 69 q 281 69 286 71 q 271 68 276 68 m 269 68 l 271 68 l 268 69 l 269 68 m 590 44 q 606 67 599 53 l 603 69 q 596 60 599 65 q 590 49 593 54 l 590 44 m 346 63 l 343 63 l 338 61 l 335 61 l 353 51 l 357 54 l 349 61 l 353 63 l 346 63 m 321 57 l 326 56 q 338 53 332 54 q 349 51 343 51 l 350 51 l 349 53 l 344 53 l 343 54 q 334 58 340 56 q 325 60 328 60 l 319 60 l 318 57 l 321 57 m 296 44 q 313 45 301 44 q 328 42 324 46 q 330 42 329 42 q 332 43 331 43 l 340 47 q 342 48 342 47 q 344 49 343 49 l 315 49 l 310 49 l 299 47 l 293 47 l 296 44 m 360 47 q 367 44 363 44 q 374 42 371 43 q 367 44 371 43 q 360 47 364 46 m 549 31 q 529 22 539 28 q 518 4 519 15 l 519 3 q 553 13 539 3 q 579 33 567 22 l 576 44 l 571 42 l 565 43 l 551 38 l 549 31 m 426 40 l 425 39 l 410 33 q 419 35 414 35 q 428 35 424 35 l 425 36 l 426 40 m 476 15 q 507 28 492 24 q 486 26 496 26 q 468 18 476 25 l 468 14 l 476 15 m 440 14 l 451 15 l 443 15 l 440 14 m 374 15 q 363 13 371 15 l 374 15 m 368 8 l 371 11 l 364 13 l 358 8 l 368 8 z "},"9":{"ha":685,"x_min":25,"x_max":703,"o":"m 703 668 q 697 654 703 664 q 684 635 692 644 q 669 616 676 625 q 657 603 661 607 q 653 504 658 564 q 638 383 649 444 q 611 265 628 321 q 571 178 594 210 q 581 178 576 179 q 592 181 586 178 l 600 174 q 585 165 600 167 q 565 161 571 163 l 574 154 q 561 136 574 144 q 532 121 549 128 q 499 108 515 114 q 475 97 482 101 q 490 102 482 100 q 506 107 499 104 l 517 71 l 506 65 q 490 68 497 65 q 475 71 483 71 l 468 71 q 461 62 468 67 q 445 53 454 57 q 428 45 436 49 q 415 38 419 42 l 419 33 q 406 17 419 22 q 382 10 392 11 l 369 3 l 361 6 q 285 4 324 1 q 210 7 247 7 q 195 7 203 7 q 181 6 188 7 l 181 -94 l 181 -99 q 189 -127 188 -112 q 190 -157 190 -142 q 190 -174 190 -161 q 182 -186 189 -186 q 172 -174 175 -186 q 166 -147 168 -162 q 164 -118 164 -132 q 164 -99 164 -104 l 164 -90 q 151 -85 156 -93 q 142 -64 146 -76 q 138 -38 139 -51 q 136 -21 136 -25 q 126 -19 129 -25 q 122 -8 122 -14 l 128 -1 l 122 -3 q 116 -34 119 -18 q 101 -62 113 -50 l 94 -57 l 92 7 l 85 4 l 78 10 l 92 32 l 92 36 q 80 37 86 36 q 74 44 74 38 q 78 51 74 50 q 88 54 83 53 l 81 54 l 74 61 l 81 68 l 88 68 q 68 70 78 71 q 47 69 58 69 l 40 74 q 31 73 38 72 q 25 79 25 74 q 32 88 25 86 q 44 89 39 89 l 51 89 l 50 92 q 59 100 50 99 q 72 101 68 101 q 85 101 79 101 q 97 101 90 100 l 101 142 l 113 150 q 120 145 119 150 q 121 136 121 140 l 121 132 l 125 136 l 135 131 l 131 142 l 129 139 q 128 144 129 142 q 128 150 128 147 q 128 160 128 153 q 129 175 128 168 q 133 188 131 182 q 139 193 135 193 q 148 185 146 193 q 150 172 150 178 q 149 142 150 157 q 149 111 149 126 l 151 106 l 151 103 q 152 119 151 107 q 155 143 153 131 q 161 165 157 156 q 171 175 165 175 l 178 169 l 182 136 q 238 136 210 140 q 294 132 267 132 l 300 132 q 322 139 311 139 q 341 138 332 139 q 358 142 350 138 q 381 174 365 161 q 414 197 397 186 q 461 315 438 256 q 496 436 485 374 l 492 433 l 488 422 q 438 392 460 411 q 394 354 417 374 l 386 357 q 349 339 371 342 l 340 346 l 340 349 q 317 342 329 346 q 294 336 306 338 l 286 343 l 258 338 l 265 344 q 265 352 264 347 q 269 358 265 357 q 237 362 253 357 q 210 381 221 367 l 206 381 q 190 386 200 383 q 171 392 181 389 q 153 401 161 396 q 146 413 146 407 q 135 418 140 415 q 128 428 131 421 q 115 433 121 428 q 103 444 108 438 q 92 459 97 451 q 85 471 88 467 q 58 497 68 469 q 41 560 47 525 q 31 630 35 596 q 28 676 28 664 l 25 682 q 42 787 25 738 q 90 881 58 836 l 103 883 l 107 888 l 107 892 l 118 903 l 126 893 l 125 889 q 145 913 135 899 q 169 929 156 928 q 192 947 178 936 q 221 969 206 958 q 251 988 236 979 q 276 996 265 996 l 285 990 l 283 976 q 316 986 299 985 q 351 988 333 988 q 378 986 365 988 q 403 974 392 985 q 420 974 411 974 q 436 967 429 974 q 451 953 449 967 l 453 957 q 464 953 460 957 q 474 946 468 949 q 488 941 481 942 q 503 938 496 940 q 518 927 510 935 q 534 910 526 919 q 549 892 542 901 q 557 876 556 883 l 556 871 l 561 867 l 567 876 l 578 864 l 585 868 q 592 860 589 868 q 598 844 594 853 q 604 826 601 835 q 608 813 607 817 l 607 806 l 614 790 l 614 810 l 619 817 q 635 799 632 814 q 638 774 638 783 q 635 754 638 764 q 635 735 633 744 q 640 719 636 726 q 644 704 644 713 l 653 693 q 669 712 660 700 q 689 725 678 724 l 697 719 l 694 713 l 703 706 q 699 692 703 699 q 692 681 696 686 q 703 668 703 678 m 292 947 q 288 941 290 944 q 285 935 286 938 l 288 940 l 294 940 l 296 943 l 294 943 l 288 953 l 292 947 m 275 943 l 276 943 l 276 944 l 275 943 m 236 942 q 204 926 217 942 q 206 913 207 918 q 200 900 206 907 l 251 940 l 240 939 l 236 942 m 276 942 q 263 935 269 939 q 253 924 257 931 q 267 928 260 926 q 281 932 274 931 l 276 942 m 379 936 l 368 936 l 363 933 l 360 933 l 374 932 l 375 932 l 379 936 m 501 921 l 500 919 l 508 911 l 513 911 l 501 921 m 390 917 l 382 917 l 379 918 l 386 910 l 397 910 l 393 915 l 390 917 m 340 892 q 333 894 338 893 q 326 899 328 896 q 314 897 319 897 q 303 893 308 896 q 322 894 313 894 q 340 892 331 893 m 374 897 l 369 894 l 379 890 l 381 897 l 374 897 m 415 893 q 403 896 407 896 l 400 896 q 411 892 406 893 q 422 888 417 890 l 415 893 m 133 890 l 132 888 l 133 888 l 133 890 m 424 888 l 444 889 l 426 885 l 424 888 m 436 869 q 403 878 419 872 l 408 868 q 408 859 408 863 q 414 851 408 856 l 446 853 l 425 851 l 424 853 q 431 860 424 860 q 438 868 438 861 l 436 869 m 232 801 q 194 755 213 786 q 176 699 176 724 q 184 642 176 664 q 201 588 192 619 q 217 569 213 588 q 224 542 222 550 l 268 501 l 263 492 q 257 504 257 496 l 257 501 l 261 493 q 279 478 272 489 q 300 467 286 467 q 312 467 307 467 q 324 468 317 467 q 301 467 318 468 q 285 475 285 467 q 298 492 285 486 q 328 502 311 499 q 361 506 344 506 q 386 507 378 507 q 400 504 396 507 q 445 549 421 522 q 493 586 469 575 l 501 582 l 503 582 q 504 568 504 575 q 507 554 504 561 q 504 600 507 578 q 500 646 501 622 q 494 652 497 650 q 488 657 490 654 q 472 673 475 665 q 465 687 468 681 q 453 698 461 693 q 426 707 446 703 q 412 709 422 708 q 401 717 401 710 l 407 725 q 431 720 417 725 q 458 708 444 715 q 481 690 471 700 q 493 669 492 681 l 500 665 l 500 681 l 494 686 q 486 720 489 703 q 479 754 483 738 l 469 764 l 469 772 l 468 775 q 453 787 458 774 q 447 807 449 800 q 414 846 428 825 q 375 878 400 867 q 336 875 356 878 q 297 871 317 872 q 267 838 283 853 q 233 807 250 822 l 232 801 m 154 856 q 160 866 157 861 q 165 876 163 871 l 161 876 l 151 854 l 154 856 m 235 876 q 208 860 222 871 q 220 865 215 863 q 231 871 225 868 l 235 876 m 142 871 l 142 874 l 121 836 l 128 840 l 142 871 m 118 871 l 103 850 q 101 833 101 844 l 101 826 q 112 849 106 838 q 124 871 118 860 l 118 871 m 533 863 l 533 847 l 535 846 l 539 853 l 533 863 m 201 854 l 164 849 q 160 843 163 846 q 157 838 158 840 l 164 835 l 167 842 l 174 846 l 179 839 l 224 861 l 201 853 l 201 854 m 483 832 l 478 833 l 481 826 l 493 824 l 483 832 m 192 818 l 196 822 l 194 822 l 192 818 m 569 813 l 571 813 l 569 815 l 569 813 m 529 811 l 531 810 l 532 810 l 529 811 m 496 807 l 504 799 l 504 801 l 503 804 l 496 807 m 572 794 l 575 790 l 572 800 l 572 794 m 535 792 l 535 790 l 536 789 l 536 788 l 538 786 l 536 789 l 536 790 l 535 792 m 111 776 q 106 753 106 767 l 113 771 l 111 776 m 507 776 l 517 751 l 511 771 l 507 776 m 169 736 q 176 754 172 746 q 182 774 181 763 q 166 747 172 761 q 156 718 160 733 l 160 708 q 162 724 161 715 q 169 736 163 733 m 600 760 l 611 747 l 611 753 l 604 763 l 600 760 m 590 740 l 597 719 q 596 730 597 725 q 597 740 594 735 l 594 743 l 590 740 m 133 725 q 128 710 131 718 q 124 696 126 703 l 132 688 l 131 690 q 132 704 131 697 q 136 718 133 711 l 133 725 m 618 714 l 615 718 q 617 710 617 714 q 619 701 617 706 l 618 714 m 49 690 q 50 706 50 696 l 49 690 m 108 650 q 113 669 113 656 l 106 676 l 106 697 q 104 682 104 692 q 105 665 104 674 q 107 649 106 657 l 107 653 l 108 650 m 67 694 q 66 689 65 692 q 67 683 67 686 l 67 694 m 658 681 l 660 679 q 661 682 660 681 l 658 681 m 88 678 l 86 651 l 86 650 l 85 653 l 85 683 l 85 682 l 88 678 m 657 626 q 665 636 661 632 q 671 647 668 640 l 657 629 l 657 626 m 625 640 l 622 647 l 621 647 l 618 646 l 625 640 m 565 632 q 571 615 568 624 q 575 599 574 607 l 575 603 q 565 639 575 619 l 565 632 m 599 622 l 597 571 l 601 579 l 599 622 m 118 664 l 118 661 l 119 661 l 121 663 l 118 664 m 115 654 q 110 641 115 647 q 106 628 106 635 l 106 624 l 108 621 l 107 624 l 118 640 l 115 654 m 614 593 q 613 585 614 590 q 617 579 613 579 q 614 593 617 585 m 558 585 q 557 572 557 578 q 557 560 557 567 q 558 572 558 567 q 558 585 558 578 m 156 625 l 156 629 l 153 628 q 169 601 158 615 q 165 610 167 606 q 161 619 163 614 l 156 625 m 90 625 l 92 624 l 92 628 l 90 625 m 568 564 q 569 551 569 557 q 568 539 568 546 q 574 515 568 525 l 572 513 q 572 475 575 494 q 575 494 575 485 q 575 513 575 503 l 575 569 l 568 564 m 61 621 q 63 613 61 615 q 61 621 63 618 m 525 529 l 528 539 l 531 542 q 532 554 531 550 l 525 529 m 58 594 q 60 585 58 589 q 60 575 61 581 l 61 575 q 60 585 60 581 q 58 594 61 589 m 546 518 l 549 518 l 547 521 l 547 525 l 546 528 l 546 518 m 154 583 q 165 556 156 569 l 165 565 l 154 583 m 99 565 q 115 546 106 554 q 106 561 110 553 q 97 578 101 569 l 99 565 m 496 549 l 500 576 q 476 558 489 565 q 453 540 463 551 q 467 552 460 546 q 483 558 474 558 l 492 551 l 489 544 l 496 549 m 185 561 q 190 554 188 558 q 194 547 192 550 q 190 561 192 554 q 183 575 188 568 l 185 561 m 78 569 q 79 557 78 561 l 83 554 l 85 547 l 85 550 l 83 564 l 78 569 m 614 454 q 617 475 617 468 q 615 492 617 483 q 611 507 614 500 l 614 454 m 550 467 l 549 476 l 550 476 l 554 500 l 544 494 q 544 478 544 486 q 542 461 544 469 l 550 467 m 596 479 l 597 481 l 597 490 l 596 479 m 93 539 l 88 542 q 101 522 92 531 q 119 507 110 514 q 113 519 117 514 q 110 532 110 525 q 100 543 103 539 l 93 539 m 468 536 l 454 524 q 464 529 458 528 l 468 536 m 567 465 l 561 467 l 563 424 q 567 446 565 435 q 572 468 569 457 l 567 465 m 72 508 l 75 508 l 75 510 l 69 518 l 72 508 m 135 511 q 164 483 144 494 q 135 511 150 500 m 483 503 q 461 487 471 503 q 442 464 451 471 q 453 469 449 467 q 464 475 458 472 l 485 501 l 483 503 m 185 497 l 197 482 l 199 489 l 197 494 l 189 500 l 185 497 m 538 440 l 539 436 q 532 422 538 431 l 532 388 q 538 415 536 401 q 543 444 540 429 l 538 440 m 614 436 l 615 438 l 615 442 l 617 444 l 615 444 l 614 443 l 614 436 m 128 490 l 122 496 l 125 492 l 128 490 m 342 483 q 361 485 351 483 q 379 492 371 486 q 375 492 376 492 q 371 493 374 493 q 342 492 356 493 q 314 483 328 490 l 342 483 m 213 489 q 210 471 213 482 l 213 469 l 226 471 l 229 469 l 213 489 m 550 404 l 550 403 l 551 406 l 550 404 m 422 404 l 421 404 l 419 399 l 431 458 l 422 404 m 369 457 q 348 451 358 454 q 328 442 338 447 q 341 439 335 440 q 354 433 347 438 q 362 444 358 439 q 369 457 365 450 m 438 446 q 429 437 432 444 q 425 419 426 429 q 423 399 424 408 q 422 385 422 389 l 429 436 l 438 446 m 250 422 q 238 424 243 424 q 226 424 233 425 q 238 422 233 422 q 250 422 243 422 m 419 367 q 410 377 415 369 q 399 394 404 385 q 390 411 394 404 q 383 418 386 418 l 382 418 q 397 412 392 418 q 406 397 403 406 q 412 380 410 389 q 415 364 414 371 l 419 367 m 525 296 q 532 313 526 308 q 539 322 538 317 l 546 363 q 538 331 542 347 q 524 304 535 315 l 524 296 l 525 296 m 235 407 l 247 407 l 249 408 l 235 407 m 331 400 q 299 398 315 399 q 267 394 282 397 q 299 396 282 396 q 331 400 315 396 m 403 386 q 394 380 399 383 q 385 372 389 376 q 394 379 390 375 q 403 386 399 383 m 486 299 q 476 278 479 289 q 469 257 474 268 q 478 276 475 267 q 486 297 482 286 l 486 299 m 542 283 q 529 267 533 276 q 519 250 525 258 q 528 244 522 249 q 533 238 535 240 q 539 256 536 247 q 542 275 542 265 l 542 283 m 490 251 l 494 263 l 486 247 l 490 251 m 465 236 l 450 207 l 464 228 l 465 236 m 443 199 q 449 207 444 200 q 443 199 446 204 m 431 186 l 432 186 l 436 190 l 436 192 l 431 188 l 431 186 m 556 157 l 564 161 l 557 160 l 556 157 m 431 149 l 428 144 l 429 143 l 432 144 l 449 146 l 431 149 m 421 108 l 415 104 l 417 104 l 421 108 m 406 96 q 403 93 406 96 l 406 96 m 182 124 q 182 108 182 115 q 183 92 182 100 q 183 108 183 100 q 182 124 183 115 m 303 40 l 324 42 l 325 46 l 310 46 l 303 40 m 126 25 l 126 22 l 128 22 l 128 25 l 126 25 z "},"\u0000":{"ha":0,"x_min":0,"x_max":0,"o":""},"\r":{"ha":347,"x_min":0,"x_max":0,"o":""}," ":{"ha":361,"x_min":0,"x_max":0,"o":""},"!":{"ha":401,"x_min":-61,"x_max":424,"o":"m 164 417 q 163 438 163 424 q 174 453 163 453 l 174 493 q 169 581 174 538 l 169 550 l 163 542 l 164 539 q 163 491 165 515 q 160 443 160 467 l 160 415 l 164 417 m 192 261 l 192 246 l 194 261 l 192 261 m 196 331 l 197 331 l 200 339 l 197 340 l 196 340 l 196 331 m 226 111 l 226 113 l 225 111 l 226 111 l 222 88 q 230 112 226 100 q 236 136 233 124 q 235 133 235 135 q 233 131 235 132 q 239 150 236 136 q 232 132 233 142 q 226 114 231 122 q 232 128 229 119 q 230 120 231 124 q 228 113 229 117 l 226 111 m 233 131 q 232 128 232 128 q 233 131 233 129 m 232 75 l 232 67 q 235 74 233 71 q 238 82 236 78 l 232 75 m 111 910 l 114 913 l 117 928 l 110 926 l 111 910 m 125 885 l 125 864 q 126 829 125 844 q 128 799 126 814 q 133 770 131 785 q 140 736 136 756 q 137 798 140 774 q 133 860 133 822 q 134 862 133 861 q 135 864 135 863 l 125 885 m 206 831 q 205 817 206 817 q 204 803 204 817 l 207 803 l 206 831 m 208 539 q 210 599 210 569 q 211 660 211 629 l 204 671 l 204 640 q 206 590 204 615 q 208 539 207 564 m 10 972 q 27 973 18 972 q 44 975 36 974 q 53 984 49 981 q 64 992 58 988 q 22 983 43 988 q -18 972 1 979 l 10 972 m 79 976 q 86 978 81 976 q 98 981 92 979 q 110 984 104 982 q 118 986 117 986 q 123 995 118 992 q 133 1000 128 999 l 133 1001 l 110 1001 l 108 1000 l 99 999 q 64 976 79 988 l 79 976 m 157 918 q 147 919 154 918 q 140 924 140 919 l 146 931 l 157 933 l 157 936 l 139 932 l 139 900 q 140 883 139 892 q 140 867 140 875 l 146 860 q 148 854 149 850 q 149 849 147 858 q 150 862 149 857 q 153 869 151 867 q 156 877 154 872 q 157 890 157 882 l 157 918 m 150 560 q 156 553 154 557 q 157 544 157 549 l 157 688 q 156 691 157 690 q 156 694 156 692 l 156 692 l 147 686 l 150 560 m 174 1018 l 174 1035 l 138 1018 l 174 1018 m 190 1022 q 201 1028 196 1025 q 211 1033 206 1031 q 207 1047 211 1042 l 190 1042 l 190 1022 m 221 871 q 219 856 218 864 q 219 842 219 849 q 220 856 219 849 q 221 871 221 864 m 232 679 q 233 688 232 683 q 233 696 233 692 l 231 692 l 232 679 m 232 842 q 238 858 235 850 q 243 875 240 867 q 244 890 242 882 q 246 906 246 899 l 242 906 q 235 875 238 890 q 232 844 232 860 l 232 842 m 257 653 l 250 660 l 250 715 l 249 718 q 249 687 250 703 q 246 656 247 671 q 253 647 253 656 q 254 635 254 639 q 253 624 254 629 q 253 613 253 618 l 257 653 m 157 950 l 154 960 l 154 958 q 139 949 150 954 l 139 946 l 157 950 m 250 1025 l 247 1040 l 235 1032 l 231 1021 l 250 1025 m 238 1058 l 238 1047 l 244 1053 l 244 1061 l 238 1058 m 265 1028 q 270 1044 268 1036 q 275 1061 272 1053 q 267 1055 271 1058 q 260 1049 264 1051 l 264 1028 l 265 1028 m 264 742 q 276 819 267 778 q 285 892 285 861 q 284 905 285 899 q 283 918 283 911 q 290 933 288 925 q 294 949 292 940 l 282 944 q 280 891 282 915 q 274 843 278 867 q 268 795 271 819 q 264 742 265 771 m 129 -12 q 126 -22 128 -17 q 118 -26 124 -26 l 111 -19 q 115 1 113 -8 q 119 22 117 11 q 114 10 118 19 q 105 -10 110 0 q 96 -28 100 -21 q 89 -36 92 -36 l 81 -28 q 85 -10 81 -18 q 92 7 89 -1 l 89 11 q 92 20 92 15 q 96 29 93 25 q 96 44 96 36 q 97 58 96 51 l 92 56 l 85 63 q 85 74 85 65 q 87 92 86 82 q 90 108 88 101 q 94 117 92 115 q 94 128 94 121 q 100 136 93 136 l 110 129 l 114 133 l 119 132 q 121 140 121 136 q 122 149 121 144 l 129 156 l 136 151 q 139 164 138 156 q 146 172 140 172 l 153 165 q 151 151 153 156 q 157 164 157 157 l 163 168 l 171 164 q 179 179 175 171 q 192 192 183 188 l 199 185 l 197 182 q 200 169 200 175 q 200 157 200 164 l 200 150 q 206 174 203 160 q 217 188 210 188 q 226 178 226 188 q 212 141 226 160 q 197 113 197 122 l 197 108 q 210 121 200 121 q 213 131 211 124 q 219 147 215 139 q 225 160 222 154 q 232 167 228 167 l 240 160 l 240 157 q 241 169 240 160 q 243 187 242 178 q 247 203 244 196 q 254 210 250 210 l 260 207 q 272 218 265 214 l 281 211 q 269 157 281 186 q 247 104 258 128 l 251 100 q 264 113 257 111 l 271 106 q 269 91 271 99 q 265 76 268 83 q 276 92 269 85 q 283 88 282 92 q 283 79 283 83 q 281 60 283 75 q 276 30 279 46 q 269 2 274 14 q 261 -10 265 -10 l 254 -3 q 256 13 254 6 q 260 29 257 21 q 249 5 256 17 q 232 -15 243 -7 l 231 -19 l 224 -24 l 217 -18 q 214 -26 215 -22 q 207 -31 213 -31 l 201 -22 q 204 -1 201 -11 q 210 21 207 10 q 202 -6 208 14 q 189 -45 196 -25 q 174 -81 182 -65 q 160 -97 165 -97 l 153 -90 q 168 -28 154 -58 q 188 33 182 1 q 183 13 186 28 q 172 -1 179 -1 q 169 -12 171 -7 q 165 -24 168 -18 l 160 -28 q 153 -44 157 -33 q 146 -65 150 -54 q 137 -85 142 -76 q 125 -93 132 -93 l 118 -86 q 123 -57 118 -71 q 131 -28 128 -43 l 128 -22 l 131 -14 l 129 -12 m 417 981 q 394 979 406 979 q 372 979 383 979 l 368 974 q 360 966 368 969 q 344 960 353 963 q 326 956 335 957 q 313 953 317 954 q 308 883 311 911 q 299 814 306 854 q 281 724 292 768 q 269 632 269 679 q 270 551 269 592 q 271 471 271 511 q 271 440 271 463 q 269 392 271 417 q 263 349 267 368 q 251 331 258 331 l 250 317 q 299 321 274 317 q 347 325 324 325 q 355 324 350 325 q 361 318 360 322 l 357 311 q 318 306 338 308 q 279 303 299 303 q 275 294 279 296 q 265 292 271 293 q 273 290 269 290 q 276 283 276 289 q 271 276 276 278 q 261 274 265 274 q 259 274 260 274 q 257 275 258 275 l 249 267 q 265 267 253 267 q 291 268 278 268 q 315 266 304 268 q 326 260 326 264 q 301 249 317 249 q 272 249 286 249 l 233 249 l 226 242 q 208 253 213 242 q 204 233 207 247 q 194 219 201 219 q 185 227 188 219 q 181 240 182 235 l 174 235 q 163 244 164 235 q 161 261 161 254 l 153 261 l 147 267 q 115 263 131 267 q 82 260 99 260 l 75 265 q 92 275 82 272 q 103 283 93 282 q 119 286 114 285 l 119 292 l 115 297 l 122 304 q 133 306 128 306 q 144 307 139 306 l 146 308 q 87 310 117 308 q 31 325 57 311 q 43 333 31 332 q 60 333 56 333 q 102 333 81 333 q 144 332 124 333 q 144 373 144 353 q 142 414 143 393 q 134 431 136 415 q 132 450 132 446 q 128 403 129 426 q 125 356 128 379 l 118 350 l 111 356 q 117 452 111 404 q 122 549 122 500 q 119 579 122 564 q 114 610 117 594 q 109 676 110 642 q 108 742 108 710 q 109 756 108 747 q 114 769 110 765 q 108 794 111 772 q 103 842 106 815 q 99 892 100 868 q 97 924 97 915 q 81 922 92 922 l 75 929 l 79 936 l 108 949 q 94 948 104 949 q 83 956 83 947 l 86 963 q 66 958 75 960 q 46 957 57 957 l 46 958 l 43 957 l 33 960 q -7 956 14 957 q -49 954 -28 954 q -61 965 -61 954 l -57 972 q -9 989 -33 983 q 39 1001 15 994 l 33 1010 q 49 1017 40 1017 q 65 1017 57 1017 l 67 1018 l 106 1018 q 138 1035 121 1028 q 174 1049 156 1042 q 173 1063 174 1051 q 172 1086 172 1074 q 174 1108 172 1099 q 179 1118 175 1118 q 187 1110 185 1118 q 190 1090 189 1101 q 190 1069 190 1079 q 190 1056 190 1058 l 207 1063 q 208 1072 207 1065 q 214 1079 210 1078 l 222 1068 l 232 1072 l 235 1072 q 265 1086 250 1079 q 294 1100 279 1093 l 297 1100 l 303 1094 l 300 1085 l 288 1072 l 290 1068 l 282 1032 l 281 1032 l 281 1031 q 299 1035 288 1033 q 319 1036 311 1036 l 326 1036 l 333 1029 q 317 1020 331 1022 q 297 1017 304 1018 q 343 1022 321 1017 q 389 1028 365 1028 l 396 1021 q 388 1014 396 1017 q 370 1008 381 1011 q 351 1003 360 1006 q 338 1001 342 1001 l 343 992 q 360 992 347 992 q 388 993 374 993 q 413 992 401 993 q 424 986 424 990 l 417 981 m 222 1053 l 222 1046 q 224 1053 224 1049 l 222 1053 m 211 1018 l 211 1019 l 210 1018 l 211 1018 m 238 972 l 238 974 l 236 974 l 236 972 l 238 972 m 174 953 l 174 956 l 171 957 l 169 957 l 169 951 l 174 953 m 203 943 l 203 946 l 200 946 l 200 943 l 203 943 m 190 797 q 188 820 190 808 q 189 843 186 832 l 189 797 l 190 797 m 207 739 l 206 742 l 206 743 l 206 739 l 207 736 l 207 732 l 207 739 m 169 735 q 172 714 169 728 q 169 735 172 721 m 128 601 l 126 603 l 126 599 l 128 601 m 189 465 q 190 479 190 472 q 190 493 190 486 q 189 479 189 486 q 189 465 189 472 m 200 451 l 199 446 l 200 447 l 200 451 m 172 113 l 175 121 l 172 113 m 197 97 l 199 99 l 197 99 l 197 97 m 169 90 l 167 83 l 167 79 l 169 90 m 182 76 l 179 71 l 182 76 m 168 35 l 165 32 l 163 25 l 168 35 m 132 6 q 131 -3 131 3 q 132 6 131 3 z "},"\"":{"ha":479,"x_min":18,"x_max":596,"o":"m 289 1118 l 296 1124 q 306 1115 306 1124 q 308 1099 307 1106 l 319 1099 q 319 1112 319 1103 q 319 1129 318 1121 q 322 1144 319 1138 q 331 1151 325 1151 l 338 1146 l 343 1157 q 349 1151 349 1157 q 350 1140 350 1144 l 350 1136 q 359 1130 357 1136 q 361 1117 361 1124 l 360 1100 l 365 1100 q 365 1118 365 1110 q 367 1136 365 1126 l 371 1142 q 379 1131 378 1142 q 381 1114 381 1119 q 380 1107 381 1111 q 379 1100 379 1103 q 394 1101 385 1101 l 394 1119 l 401 1126 q 407 1115 406 1126 q 408 1101 408 1104 l 413 1101 q 417 1115 414 1106 q 425 1125 419 1125 l 432 1118 l 429 1101 q 463 1101 438 1101 q 515 1101 488 1101 q 565 1099 542 1100 q 592 1097 588 1099 l 596 1092 l 589 1085 q 533 1081 561 1085 q 476 1078 504 1078 q 452 1072 468 1074 q 426 1069 436 1071 l 450 1069 l 456 1063 l 451 1056 l 422 1051 q 422 972 422 1011 q 414 892 421 932 q 417 873 417 885 q 416 847 417 861 q 413 821 415 833 q 407 801 410 808 l 407 797 l 411 793 q 404 756 404 774 q 401 717 404 738 l 394 710 l 388 717 q 388 747 388 732 q 390 778 389 763 q 363 771 376 778 l 358 774 l 342 774 l 336 779 l 339 786 l 331 786 q 331 772 331 782 q 324 763 331 763 q 321 768 322 765 q 317 772 319 771 l 317 781 l 315 782 q 301 781 308 782 q 286 779 293 779 l 281 785 q 294 796 281 794 q 314 797 307 797 l 313 799 q 304 800 310 799 q 299 806 299 801 q 303 813 299 811 q 311 814 307 814 q 312 844 311 829 q 313 875 313 860 q 306 878 308 874 q 303 890 304 883 q 301 903 301 896 q 301 911 301 910 l 301 1001 q 296 1023 296 1011 q 294 1046 296 1035 q 272 1047 289 1046 q 254 1054 254 1047 q 267 1064 254 1063 q 286 1065 279 1065 q 290 1065 289 1065 q 293 1064 290 1064 l 293 1067 l 275 1067 l 269 1072 q 278 1079 269 1079 q 288 1086 279 1083 q 275 1086 285 1086 q 265 1092 265 1086 l 271 1099 l 293 1099 l 293 1111 l 289 1118 m 53 1118 l 60 1124 q 70 1115 69 1124 q 72 1099 71 1106 l 83 1099 q 83 1112 83 1103 q 83 1129 82 1121 q 86 1144 83 1138 q 94 1151 89 1151 l 101 1146 l 107 1157 q 113 1151 113 1157 q 114 1142 114 1144 l 114 1136 q 123 1130 121 1136 q 125 1117 125 1124 l 124 1100 l 129 1100 q 129 1118 129 1110 q 131 1136 129 1126 l 135 1142 q 143 1131 142 1142 q 144 1114 144 1119 q 144 1107 144 1111 q 143 1100 143 1103 q 158 1101 153 1100 l 158 1119 l 165 1126 q 171 1115 169 1126 q 172 1100 172 1103 l 176 1100 q 181 1115 178 1104 q 189 1125 183 1125 l 196 1118 l 193 1100 q 207 1098 200 1100 q 214 1088 214 1096 q 224 1088 219 1088 q 235 1089 229 1089 l 242 1082 l 235 1075 q 213 1072 224 1072 q 190 1069 201 1072 l 214 1069 l 219 1063 l 215 1056 l 186 1051 l 186 1044 l 204 1044 l 211 1038 l 204 1031 l 186 1031 q 185 961 186 996 q 178 892 185 926 q 181 873 181 885 q 180 847 181 861 q 176 821 179 833 q 171 801 174 808 l 171 797 l 175 793 q 168 756 168 774 q 165 717 168 738 l 158 710 l 151 717 q 152 747 151 732 q 154 778 153 763 q 144 776 149 778 q 135 774 140 775 q 135 744 135 758 q 133 715 136 731 l 126 708 l 119 715 q 118 730 118 722 q 118 744 118 738 l 118 774 l 106 774 l 100 779 l 103 786 l 94 786 q 94 772 94 782 q 88 763 94 763 q 85 768 86 765 q 81 772 83 771 l 81 781 l 79 782 q 65 781 72 782 q 50 779 57 779 l 44 785 q 58 796 44 794 q 78 797 71 797 l 76 799 q 68 800 74 799 q 63 806 63 801 q 67 813 63 811 q 75 814 71 814 q 76 844 75 829 q 76 875 76 860 q 70 879 72 874 q 67 893 68 885 q 65 909 65 901 q 65 918 65 917 l 65 1001 q 60 1023 60 1011 q 58 1046 60 1035 q 35 1047 53 1046 q 18 1054 18 1047 q 31 1064 18 1063 q 50 1065 43 1065 q 53 1065 53 1065 q 57 1064 54 1064 l 57 1067 l 39 1067 l 33 1072 q 42 1079 33 1079 q 51 1086 43 1083 q 39 1086 49 1086 q 29 1092 29 1086 l 35 1099 l 57 1099 l 57 1111 l 53 1118 m 307 1064 l 311 1064 l 311 1067 l 307 1067 l 307 1064 m 71 1064 l 75 1064 l 75 1067 l 71 1067 l 71 1064 m 388 1028 q 393 1044 388 1039 l 394 1049 l 393 1050 l 388 1049 l 388 1028 m 151 1028 q 157 1044 151 1039 l 158 1049 l 157 1050 l 151 1049 l 151 1028 m 328 1043 q 326 1019 328 1032 q 324 996 325 1007 l 329 994 l 328 1043 m 92 1043 q 90 1019 92 1032 q 88 996 89 1007 l 93 994 l 92 1043 m 94 903 l 99 936 l 94 943 l 94 903 m 331 903 l 335 936 l 331 943 l 331 903 m 115 865 q 117 886 118 876 q 117 907 117 896 l 115 907 l 115 865 m 351 865 q 353 886 354 876 q 353 907 353 896 l 351 907 l 351 865 m 154 829 q 156 845 156 838 q 157 861 156 853 l 153 829 l 154 829 m 390 829 q 392 845 392 838 q 393 861 392 853 l 389 829 l 390 829 m 101 819 l 101 860 q 101 839 101 850 q 99 819 101 828 l 101 819 m 338 819 l 338 860 q 338 839 338 850 q 335 819 338 828 l 338 819 m 136 826 q 137 841 136 833 q 139 856 138 849 q 135 831 135 843 l 135 825 l 136 826 m 372 826 q 373 841 372 833 q 375 856 374 849 q 371 831 371 843 l 371 825 l 372 826 m 357 839 l 357 842 q 356 836 356 840 l 357 839 m 119 824 l 119 833 l 118 825 q 118 822 118 822 l 119 824 m 354 822 q 355 828 356 825 q 356 833 354 831 q 354 822 356 826 m 153 811 l 151 811 l 151 810 l 150 808 q 145 803 149 806 q 139 799 142 801 l 151 800 l 153 811 m 389 811 l 388 811 l 388 810 l 386 808 q 381 803 385 806 q 375 799 378 801 l 388 800 l 389 811 z "},"#":{"ha":928,"x_min":-126,"x_max":1008,"o":"m 10 268 l 3 275 q 17 284 3 282 q 36 286 31 286 l 39 296 l -94 296 l -99 300 q -110 299 -101 299 q -118 299 -114 299 q -122 306 -122 300 q -119 313 -122 310 q -78 328 -103 324 q -25 336 -53 333 q 21 347 -1 342 q 53 351 43 351 q 60 349 54 351 l 67 344 l 125 331 l 197 331 l 218 397 l 213 404 q 219 440 213 418 q 233 475 226 463 q 254 596 235 538 q 286 714 274 654 l 235 714 l 199 710 q 181 704 192 704 q 167 705 175 704 q 160 714 160 706 l 160 715 l 161 717 l 153 717 l 113 718 l 93 718 l 86 718 q 81 713 83 713 q 74 721 74 713 q 81 730 74 728 q 93 732 88 732 l 118 732 l 149 731 q 153 739 149 735 l 138 753 l 74 753 l -56 754 l -119 754 l -126 761 l -119 767 l 128 767 q 130 774 125 774 q 139 775 135 775 l 142 775 l 146 799 q 52 799 99 799 q -42 807 6 799 l -47 811 l -40 819 q 8 817 -17 819 q 56 813 32 814 l 63 817 q 106 819 85 819 q 150 821 128 819 l 176 829 l 176 821 l 186 822 l 249 839 l 247 832 q 275 834 261 832 q 303 833 289 836 q 314 856 306 847 q 321 895 318 875 q 324 936 324 915 l 313 938 l 306 944 l 314 953 l 306 953 l 299 960 q 313 969 301 967 q 331 974 324 971 q 317 974 328 974 q 295 974 307 974 q 274 976 283 974 q 265 982 265 978 l 272 989 l 338 989 l 342 994 q 330 994 339 994 q 311 993 321 993 q 294 995 301 993 q 286 1001 286 997 l 293 1008 l 365 1008 l 368 1010 l 378 1008 q 388 1022 381 1018 l 394 1015 l 394 1008 l 400 1008 l 406 1015 l 413 1010 q 427 1056 419 1033 q 443 1100 435 1078 l 449 1104 l 456 1097 q 448 1052 456 1074 q 435 1008 440 1031 l 481 1008 q 496 1008 485 1008 q 519 1008 507 1008 q 540 1004 531 1007 q 550 997 550 1001 l 546 992 q 501 976 524 982 q 456 968 479 971 l 453 964 l 454 960 l 456 960 q 466 967 457 964 q 487 971 475 969 q 510 972 499 972 q 525 972 521 972 l 536 968 l 551 968 l 583 967 l 599 967 q 619 967 610 967 q 640 969 629 967 q 651 986 640 978 q 621 986 636 986 q 590 985 606 986 l 590 983 l 578 981 l 569 989 q 582 999 569 994 q 610 1006 594 1003 q 641 1012 626 1010 q 661 1014 656 1014 q 675 1036 668 1026 q 686 1056 678 1049 q 706 1067 694 1063 l 711 1064 q 715 1074 713 1067 q 719 1088 717 1081 q 726 1100 722 1094 q 733 1106 729 1106 l 740 1099 q 735 1079 738 1088 l 719 1040 q 714 1021 717 1032 l 728 1024 l 742 1018 l 742 1022 l 749 1028 l 756 1021 l 756 1014 q 763 1022 758 1022 l 768 1025 l 774 1022 q 788 1062 783 1042 q 797 1101 793 1082 l 804 1107 l 811 1100 q 801 1050 811 1074 q 786 1001 792 1026 q 797 1001 789 1001 q 815 1001 806 1001 q 831 998 824 1000 q 838 992 838 996 l 835 986 q 847 986 838 986 q 867 985 857 986 q 884 983 876 985 q 892 976 892 981 l 885 969 l 811 969 q 810 961 811 965 q 803 957 808 957 q 799 950 803 953 q 790 946 794 947 q 806 947 794 946 q 828 947 817 947 q 849 945 840 947 q 858 939 858 943 l 851 932 q 812 931 832 931 q 772 931 792 931 q 770 911 772 925 q 761 897 768 897 l 753 872 l 751 871 l 751 867 l 750 864 q 751 851 751 857 q 749 838 750 844 q 765 838 753 838 q 792 836 778 838 q 816 833 806 835 q 826 826 826 831 l 821 821 l 819 808 l 826 808 q 833 825 828 814 l 833 831 q 847 863 840 847 q 865 894 854 879 q 874 881 872 894 q 875 863 875 868 l 875 849 q 880 863 878 856 q 885 878 882 871 l 892 882 l 899 875 q 892 845 899 860 q 881 815 885 831 l 889 825 l 896 818 l 894 808 l 910 808 l 917 801 l 914 797 l 1001 797 l 1008 792 l 1001 786 l 907 786 q 906 771 907 779 q 901 756 904 763 l 918 756 l 925 749 l 924 743 l 928 735 l 919 728 l 894 728 l 854 694 l 821 694 l 778 699 q 752 703 765 701 q 726 710 739 704 q 706 594 719 651 q 672 483 693 538 l 676 478 q 674 453 676 468 q 669 422 672 438 q 662 392 667 407 q 651 369 657 378 q 649 345 650 357 q 646 321 649 333 l 707 321 q 709 322 708 321 q 711 322 710 322 l 740 322 q 756 324 749 324 q 774 325 764 325 q 794 324 778 325 q 811 315 811 322 q 804 308 811 308 l 760 308 q 779 304 779 306 q 821 306 799 304 q 863 304 843 307 q 869 297 869 301 q 864 292 869 293 l 867 289 q 852 278 867 282 q 819 273 838 275 q 783 271 800 271 q 760 271 765 271 l 760 265 q 801 257 781 263 q 844 251 822 251 l 851 246 l 851 242 l 844 238 l 835 238 l 838 232 l 831 225 q 792 222 811 222 q 754 218 774 221 l 697 211 q 688 210 693 211 q 679 210 683 210 l 642 207 q 633 206 638 207 q 624 206 629 206 q 622 188 622 199 q 611 176 622 176 q 609 155 611 171 q 604 122 607 139 q 598 90 601 104 q 590 75 594 76 q 590 66 590 71 q 589 57 590 61 q 617 60 603 57 q 644 63 631 63 l 650 60 l 657 60 l 669 61 l 675 61 l 682 54 l 671 47 q 669 37 675 40 q 656 31 664 33 q 639 28 647 29 q 628 26 631 28 q 638 24 631 26 q 654 19 646 22 q 669 13 663 17 q 675 7 675 10 q 663 -4 675 1 q 633 -12 650 -10 q 601 -17 617 -15 q 581 -19 586 -19 q 574 -63 579 -35 q 560 -122 568 -92 q 541 -176 551 -151 q 517 -208 531 -200 l 508 -200 q 511 -188 508 -193 q 517 -178 514 -183 q 527 -137 525 -158 q 532 -97 529 -117 l 529 -104 l 522 -110 l 517 -101 q 525 -61 517 -82 q 538 -21 533 -40 q 522 -22 528 -21 q 521 -33 522 -25 q 518 -50 519 -42 q 514 -65 517 -58 q 508 -72 511 -72 l 501 -67 q 502 -46 501 -56 q 504 -25 503 -36 l 497 -26 q 492 -41 494 -33 q 488 -56 490 -49 l 481 -60 l 474 -53 l 474 -49 l 468 -42 l 469 -31 q 406 -35 439 -35 l 399 -29 q 410 -20 399 -22 q 428 -17 421 -18 q 408 -17 421 -17 q 384 -18 396 -18 q 364 -16 372 -18 q 356 -8 356 -14 q 363 -2 356 -4 q 381 1 371 0 q 400 4 390 3 q 413 6 410 6 q 403 6 410 6 q 397 13 397 7 q 413 22 406 21 l 410 26 l 417 33 l 424 33 q 442 42 432 40 q 463 46 453 44 q 435 44 450 46 q 407 49 419 43 q 393 47 403 47 l 371 47 l 329 49 l 307 49 l 308 44 l 304 38 l 311 38 l 328 39 l 335 39 l 342 32 q 330 26 336 28 q 318 21 324 24 l 246 21 l 204 -125 l 197 -129 l 190 -118 q 194 -76 190 -97 q 201 -36 197 -56 q 197 -50 200 -40 q 190 -71 194 -60 q 182 -90 186 -82 q 175 -99 178 -99 l 168 -93 q 173 -69 168 -85 q 184 -37 178 -54 q 197 -6 190 -21 q 206 19 203 10 l 201 19 q 189 4 197 10 l 182 13 l 183 17 l 183 18 l 182 18 q 177 7 181 15 q 169 -10 174 -1 q 161 -25 165 -18 q 153 -32 157 -32 l 151 -31 q 140 -46 147 -39 q 133 -59 138 -53 q 125 -72 129 -65 l 117 -65 q 124 -24 117 -43 q 138 17 132 -4 q 118 20 132 19 q 90 21 104 21 q 63 23 75 21 q 51 29 51 25 q 70 40 54 36 q 93 43 86 43 l 90 49 l 96 56 q 125 61 111 60 q 154 64 139 63 l 156 68 q 137 67 151 68 q 106 67 122 67 q 78 70 90 68 q 67 76 67 72 q 79 87 67 83 q 108 92 92 90 q 138 94 124 94 q 158 94 153 94 l 158 100 q 147 100 156 100 q 128 101 138 100 q 112 103 119 101 q 104 110 104 106 l 111 117 l 143 117 l 146 124 q 128 132 136 125 l 135 139 l 139 139 l 147 140 l 151 140 q 158 188 150 160 q 171 236 167 217 l 28 236 q 5 236 17 236 q -18 238 -7 236 l -25 244 l -18 251 l -17 251 q -5 265 -17 263 q 14 268 7 267 l 10 268 m 688 1018 l 688 1019 l 686 1018 l 688 1018 m 739 1008 l 738 1007 l 738 1001 l 739 1008 m 671 981 l 671 981 l 671 981 q 672 982 672 981 l 672 982 l 672 982 l 672 982 l 671 982 l 671 981 m 435 965 l 433 965 l 433 964 l 435 965 m 535 956 l 532 960 q 522 957 528 957 q 511 956 517 957 l 535 956 m 365 956 l 371 956 l 371 957 l 365 957 l 365 956 m 649 931 q 637 930 646 931 q 618 929 628 929 q 601 931 608 929 q 593 936 593 932 q 601 944 593 942 q 619 947 608 946 q 638 948 629 947 q 651 950 647 949 l 653 953 q 602 952 628 953 q 551 953 576 951 q 551 941 556 946 q 539 936 546 936 q 494 938 517 936 q 450 939 472 940 l 442 913 q 438 892 444 904 q 428 871 431 879 q 427 853 429 861 q 424 835 425 844 q 526 837 475 836 q 628 838 576 838 q 631 849 629 844 q 633 860 632 854 l 644 906 q 647 917 646 911 q 650 928 649 922 l 649 931 m 361 914 l 363 914 l 363 915 l 367 922 l 367 926 l 368 933 l 368 938 l 364 938 l 361 914 m 424 938 q 415 901 418 919 q 408 864 411 883 q 421 900 417 882 q 432 938 425 918 l 424 938 m 339 913 l 347 936 l 340 936 l 339 913 m 711 876 q 708 860 706 869 l 711 876 m 353 835 l 357 858 l 349 835 l 353 835 m 253 825 l 246 825 l 246 826 l 244 824 l 246 824 l 253 825 m 856 808 l 856 826 l 847 814 l 847 808 l 856 808 m 803 808 l 804 814 q 774 810 789 811 q 743 808 758 808 l 803 808 m 594 811 q 608 810 601 810 q 622 810 615 810 q 608 811 615 811 q 594 811 601 811 m 338 799 l 344 799 l 346 801 l 339 801 l 338 799 m 233 792 q 239 792 236 792 q 244 793 242 793 l 265 793 q 271 794 268 793 q 276 794 274 794 l 282 797 l 300 797 l 300 800 l 285 800 l 251 799 l 236 799 l 233 792 m 324 799 l 324 800 l 317 800 l 315 799 l 324 799 m 163 775 l 163 799 l 161 799 l 157 775 l 163 775 m 176 799 l 176 782 l 181 799 l 176 799 m 847 772 l 856 782 l 856 786 l 847 785 l 847 772 m 814 775 l 814 772 l 818 785 l 814 775 m 339 779 l 340 783 l 335 783 l 333 779 l 339 779 m 318 779 l 319 783 l 314 783 l 314 779 l 318 779 m 631 775 l 631 783 l 629 783 l 628 775 l 631 775 m 569 779 q 492 781 531 779 q 414 779 453 782 q 449 778 432 781 q 485 775 467 775 l 617 775 l 618 783 l 576 783 l 569 779 m 299 778 l 299 783 q 265 781 282 782 q 232 778 249 781 l 299 778 m 293 743 l 293 746 l 290 746 l 281 753 l 239 753 l 239 743 l 293 743 m 204 731 q 206 740 206 735 q 206 749 206 744 l 206 750 l 201 742 l 201 729 l 204 731 m 329 744 l 329 746 l 325 746 l 325 744 l 329 744 m 701 732 q 700 739 700 735 l 697 732 l 701 732 m 778 729 q 760 733 769 732 q 743 738 751 735 l 735 738 l 733 738 l 731 736 l 729 736 l 729 731 q 744 729 739 731 l 751 722 l 750 719 q 764 715 757 717 q 778 713 771 714 l 778 729 m 324 726 l 325 731 l 321 731 l 321 726 l 324 726 m 556 726 q 480 729 518 728 q 404 731 442 731 l 404 726 l 556 726 m 388 726 l 389 731 l 378 731 l 378 726 l 388 726 m 289 726 l 290 731 l 238 731 l 238 726 l 289 726 m 793 726 q 792 713 792 722 l 796 726 l 793 726 m 833 722 l 831 724 q 825 708 828 713 l 833 708 l 833 722 m 813 708 q 817 724 817 715 l 813 708 m 860 710 l 864 721 l 863 721 l 858 710 l 860 710 m 282 629 q 274 595 276 613 q 267 561 272 578 q 272 576 269 568 q 282 590 275 585 l 294 621 q 305 667 294 643 q 319 714 315 692 l 317 714 q 306 672 311 693 q 292 632 300 651 l 285 628 l 282 629 m 375 714 l 374 714 l 374 707 l 375 714 m 378 714 q 369 660 375 686 q 356 608 363 635 q 372 660 367 633 q 385 714 378 686 l 378 714 m 690 699 q 699 708 692 704 l 704 707 l 706 710 l 706 714 l 692 714 l 692 713 l 690 708 l 690 699 m 496 331 l 503 322 l 501 321 l 514 321 q 528 399 524 360 q 540 476 532 438 q 563 543 547 511 q 578 611 578 575 q 579 621 578 615 q 588 624 581 626 q 592 669 589 647 q 596 714 596 690 l 401 714 q 381 629 393 672 q 375 577 383 615 q 355 497 367 539 q 331 415 343 454 q 311 361 318 376 l 314 354 l 313 331 l 496 331 m 643 644 q 631 613 640 632 q 621 582 621 593 l 621 560 q 649 635 636 596 q 664 714 661 674 l 663 714 q 657 678 660 699 q 643 644 654 657 m 610 674 q 614 694 613 685 q 618 714 615 704 l 613 714 q 612 694 613 703 q 610 674 611 685 m 703 692 q 699 664 699 679 l 703 692 m 349 597 l 356 628 q 351 611 353 619 q 346 594 349 603 l 349 597 m 583 551 l 583 557 l 585 565 l 585 571 l 585 576 l 579 558 l 583 551 m 267 526 l 269 535 l 265 526 l 267 526 m 606 321 q 610 367 606 344 l 606 371 l 618 535 l 608 528 q 603 444 611 485 q 596 360 596 403 l 596 353 l 597 351 q 596 336 596 344 q 596 321 596 328 l 606 321 m 549 440 q 558 472 556 456 q 563 504 560 489 q 555 473 558 489 q 549 440 551 457 m 325 499 q 315 481 318 492 q 313 460 313 471 l 313 444 l 325 499 m 275 458 l 267 433 l 267 431 l 275 458 m 235 331 q 236 336 236 333 q 238 342 236 339 l 242 365 q 244 376 244 374 l 243 381 q 244 397 244 386 q 236 406 238 400 l 211 331 l 235 331 m 564 321 q 571 357 571 342 l 569 363 l 569 365 l 563 321 l 564 321 m 539 358 l 539 363 l 540 364 l 538 364 l 538 356 l 539 358 m 271 331 q 274 344 274 338 q 276 357 275 350 l 268 350 l 267 351 q 261 331 264 344 l 271 331 m 42 310 l 43 314 q 27 314 36 313 q 15 322 18 315 q -1 322 8 322 q -18 321 -10 322 q -26 319 -22 319 q -33 317 -29 318 q -56 313 -44 314 q -79 310 -68 313 l 42 310 m 58 313 l 57 313 l 57 310 l 58 313 m 314 304 q 360 301 338 301 q 406 301 382 301 l 411 304 q 389 306 400 306 q 367 306 378 306 l 353 306 l 343 306 l 324 304 l 314 304 m 231 300 l 231 304 l 221 303 l 221 300 l 231 300 m 858 303 l 860 303 l 858 303 m 101 290 l 101 292 l 99 294 l 97 290 l 101 290 m 657 265 q 672 276 664 274 l 638 275 l 636 267 l 636 265 l 657 265 m 386 274 l 372 274 l 344 272 l 331 272 q 358 270 344 269 q 386 271 372 271 l 386 274 m 696 265 q 683 271 688 268 l 681 269 l 679 265 l 696 265 m 92 256 l 93 260 l 90 260 l 90 256 l 92 256 m 106 256 l 114 256 l 119 256 l 132 257 l 138 257 q 122 259 131 258 q 107 260 114 260 l 106 256 m 306 257 q 320 254 313 256 q 335 253 328 253 l 360 253 l 361 256 q 333 256 347 256 q 306 257 319 256 m 31 256 l 31 257 q 19 256 24 257 l 31 256 m 631 232 q 640 234 636 233 q 650 235 644 235 q 639 235 647 235 q 631 232 631 236 m 282 231 l 286 231 l 286 235 l 282 235 l 282 231 m 299 231 l 342 231 l 299 235 l 299 231 m 182 226 l 179 215 l 183 226 l 182 226 m 292 61 q 311 67 296 67 q 333 68 326 68 l 364 68 q 376 68 367 68 q 394 67 385 68 q 411 65 403 67 q 419 60 419 63 q 445 67 432 67 q 472 71 458 68 q 487 118 475 94 q 499 165 499 142 l 499 167 q 486 147 494 156 l 479 154 q 488 225 479 190 l 486 225 q 452 220 478 222 q 395 217 426 218 q 336 217 364 217 q 296 217 308 217 q 283 165 290 190 q 269 114 276 139 q 290 114 274 114 q 306 107 306 114 q 302 101 306 101 q 294 99 299 100 l 293 94 q 359 95 326 94 q 425 93 392 96 l 432 86 l 426 79 q 354 70 394 69 q 281 71 314 71 q 265 61 276 67 l 292 61 m 206 221 l 201 221 q 190 184 196 201 q 181 147 185 167 l 206 221 m 222 136 l 243 218 l 240 218 l 222 139 l 222 136 m 269 164 q 277 190 274 178 q 283 217 281 203 l 278 217 q 270 194 275 206 q 265 172 265 183 l 265 169 l 269 164 m 521 185 q 500 107 508 149 l 521 182 l 521 185 m 235 129 l 238 128 q 244 151 242 139 q 247 174 247 163 l 247 175 q 242 152 244 164 q 236 129 239 140 l 235 129 m 546 133 q 554 157 551 143 l 556 157 l 556 164 q 551 149 553 157 q 546 133 549 140 m 229 99 l 228 97 l 228 96 l 226 94 l 228 94 l 229 99 m 543 79 l 546 99 l 538 79 l 543 79 m 588 36 l 592 36 q 601 38 594 36 q 611 40 608 39 l 608 40 q 588 38 601 40 l 588 36 m 585 10 q 607 8 596 8 q 629 4 618 7 l 649 7 q 618 15 633 11 q 588 18 603 18 l 585 18 l 585 10 m 560 14 l 563 14 l 567 11 l 569 11 l 569 17 l 561 17 l 560 14 m 475 -3 l 476 4 l 454 -3 l 475 -3 m 542 -1 l 543 4 l 542 3 l 542 0 l 540 -1 l 542 -1 m 549 -31 l 554 -37 q 548 -97 554 -68 q 535 -156 542 -126 q 554 -89 547 -124 q 565 -19 561 -54 l 551 -21 l 549 -31 z "},"$":{"ha":763,"x_min":32,"x_max":792,"o":"m 297 -168 l 301 -164 q 267 -168 283 -164 l 285 -168 l 286 -175 q 262 -176 274 -175 q 238 -176 250 -176 q 206 -175 222 -176 q 174 -168 189 -174 l 243 -168 l 249 -172 l 267 -168 l 243 -168 l 239 -165 q 243 -158 239 -160 q 251 -157 247 -157 q 261 -151 257 -154 q 272 -147 265 -149 q 264 -147 268 -147 q 256 -146 260 -146 l 250 -140 l 257 -132 q 247 -133 254 -132 q 233 -133 240 -133 q 221 -132 226 -133 q 215 -126 215 -131 q 230 -117 215 -119 q 250 -112 244 -114 l 249 -110 q 254 -103 249 -104 q 264 -101 260 -101 q 270 -90 265 -94 q 281 -83 275 -86 l 278 -76 q 238 -75 265 -76 q 179 -70 210 -74 q 123 -62 149 -67 q 90 -50 97 -57 l 97 -43 l 290 -43 q 298 -51 296 -43 q 301 -64 300 -60 l 318 -64 q 319 -35 318 -49 q 319 -7 319 -22 l 321 -4 q 319 -16 319 -11 q 319 -28 319 -21 l 325 -22 q 322 -8 322 -15 q 321 6 322 -1 l 319 6 l 319 -7 l 313 -15 l 306 -8 l 306 6 q 297 6 301 6 q 289 7 293 7 l 283 14 l 286 19 l 304 32 q 267 54 276 29 q 241 68 254 61 q 214 82 228 75 l 208 72 q 181 82 193 72 q 157 101 168 92 q 146 70 151 86 q 133 39 140 54 l 128 35 l 121 42 q 128 79 121 61 q 144 114 136 97 l 142 115 l 99 15 l 90 24 q 92 57 93 40 q 92 90 92 74 q 69 72 82 79 l 64 74 q 54 54 60 67 q 39 42 49 42 l 32 49 q 44 85 36 64 q 63 131 53 107 q 84 176 74 154 q 103 210 94 197 q 88 232 94 218 q 99 242 88 242 l 108 238 l 108 253 l 108 260 q 108 276 108 271 q 106 284 107 281 q 106 292 106 288 q 107 304 106 296 l 110 304 q 106 317 108 311 q 104 329 104 322 q 106 342 104 335 q 115 350 108 350 q 122 345 121 350 q 124 336 124 340 q 131 329 126 332 q 138 324 135 326 l 151 329 l 157 326 l 158 324 l 161 325 l 168 318 l 167 311 l 171 303 q 221 378 194 342 q 271 451 247 414 l 278 456 l 285 449 q 218 306 244 379 q 233 321 225 314 l 240 314 q 235 281 240 297 q 222 250 229 265 l 235 271 l 242 274 l 249 267 q 239 239 249 251 q 222 215 229 226 q 238 202 229 208 q 253 189 246 196 q 264 187 256 189 q 281 181 272 185 q 295 174 289 178 q 301 167 301 171 l 290 158 l 293 156 l 306 151 l 306 271 l 313 278 l 321 269 q 324 256 324 263 q 326 243 325 250 q 322 395 324 319 q 321 547 321 471 q 304 556 313 551 q 289 568 296 561 l 288 567 q 276 574 281 569 q 268 586 271 579 q 247 602 257 594 q 228 618 238 610 q 249 594 239 607 q 260 565 260 582 l 251 557 q 235 574 246 561 q 213 604 224 588 q 191 637 201 621 q 175 660 181 653 l 183 665 q 199 657 194 660 q 183 674 193 663 q 161 697 172 685 q 142 722 150 710 q 133 740 133 733 l 140 749 q 151 744 146 749 q 162 732 157 739 q 172 718 167 725 q 181 707 176 711 l 172 732 l 169 731 l 163 739 l 165 751 l 164 757 l 157 753 q 149 763 150 753 q 147 778 147 774 q 151 799 147 789 q 150 811 150 806 q 153 822 150 817 l 154 831 l 158 836 q 158 853 158 843 q 159 875 158 864 q 163 895 160 886 q 175 907 167 904 q 185 929 179 918 q 197 950 190 940 l 194 956 q 254 1003 222 982 q 322 1036 286 1025 l 322 1051 l 328 1056 l 328 1086 q 281 1084 304 1083 q 235 1085 258 1085 l 228 1092 q 236 1099 232 1096 q 244 1106 240 1103 l 239 1111 l 246 1118 q 256 1119 251 1118 q 267 1119 261 1119 q 284 1125 275 1124 q 300 1132 293 1126 q 289 1131 297 1132 q 272 1131 281 1131 q 257 1134 264 1132 q 250 1142 250 1136 l 257 1149 q 241 1147 253 1149 q 216 1146 229 1146 q 193 1148 203 1146 q 183 1156 183 1150 l 190 1163 q 224 1165 207 1163 q 257 1174 242 1167 q 246 1174 253 1174 q 239 1181 239 1174 q 246 1188 239 1188 q 257 1189 253 1189 q 300 1188 279 1189 q 343 1189 321 1188 q 352 1197 343 1194 q 365 1199 361 1199 q 367 1216 365 1203 q 375 1229 369 1229 l 383 1224 q 383 1212 383 1217 q 382 1200 382 1207 q 401 1200 392 1200 q 418 1196 410 1200 l 422 1196 q 429 1230 425 1213 q 440 1263 433 1247 l 446 1265 l 447 1286 l 450 1288 q 458 1274 457 1288 q 460 1254 460 1260 q 459 1237 460 1246 q 458 1219 458 1228 q 467 1214 465 1219 q 468 1204 468 1208 l 468 1197 q 482 1194 475 1200 l 486 1194 l 481 1196 l 504 1200 l 504 1203 q 476 1208 493 1206 l 504 1206 l 507 1201 l 504 1197 q 517 1197 508 1197 q 533 1196 525 1197 q 547 1192 540 1194 q 553 1182 553 1189 q 545 1172 553 1175 q 532 1168 538 1169 l 531 1164 q 556 1165 543 1164 q 581 1163 568 1165 l 588 1156 q 571 1147 588 1150 q 549 1142 554 1143 q 536 1135 547 1135 l 539 1129 q 564 1135 551 1132 q 590 1138 576 1138 l 597 1131 q 588 1124 596 1126 q 570 1119 579 1121 q 551 1116 561 1117 q 538 1114 542 1115 q 534 1100 536 1107 q 525 1090 532 1093 q 497 1093 511 1092 q 469 1093 483 1094 q 469 1079 469 1086 q 468 1065 468 1072 l 468 1064 q 485 1067 479 1067 q 477 1065 481 1064 q 469 1064 474 1065 l 469 1043 l 475 1043 l 469 1042 l 469 1032 q 508 1018 492 1028 q 521 1017 515 1018 q 533 1015 526 1017 q 534 1026 533 1019 q 542 1032 535 1032 q 554 1027 546 1032 q 572 1016 563 1022 q 588 1003 581 1010 q 600 993 596 996 q 606 1005 601 1000 q 614 1014 610 1010 l 621 1004 l 613 989 q 619 976 613 981 q 626 1001 622 985 q 640 1019 631 1017 l 646 1013 l 646 999 l 653 992 q 649 974 653 982 q 640 957 644 965 l 646 951 l 651 950 l 679 1011 l 685 1015 l 693 1010 q 688 986 693 997 q 678 964 683 975 l 682 957 q 676 928 682 942 q 663 900 669 914 q 679 868 672 886 q 697 849 689 858 q 711 829 704 840 l 704 822 q 676 834 689 822 q 651 856 663 846 l 644 851 l 642 851 q 622 803 632 832 q 596 761 613 774 l 589 768 l 592 774 l 590 775 q 603 816 590 796 q 622 857 617 836 q 615 844 619 853 q 606 828 611 836 q 595 815 601 821 q 583 810 589 810 l 582 811 q 574 799 579 807 q 562 782 568 790 q 549 767 556 774 q 538 761 542 761 l 532 769 q 537 790 532 778 q 549 814 542 801 q 563 839 556 826 q 572 860 569 851 q 560 839 564 850 q 543 822 556 828 l 535 831 q 538 844 535 838 q 543 857 540 850 l 542 864 l 547 881 q 527 899 536 890 q 508 918 518 908 l 469 931 q 468 832 469 882 q 464 733 467 782 q 458 680 461 706 q 454 626 456 654 q 476 622 461 625 q 506 613 490 618 q 533 600 521 607 q 544 585 544 593 q 666 554 606 568 q 786 522 726 540 l 792 517 q 787 510 792 513 q 775 506 782 507 q 761 504 768 504 q 751 504 754 504 q 728 504 740 504 q 706 506 717 504 q 713 481 713 494 l 710 475 l 715 464 q 704 454 715 454 l 701 456 q 714 412 706 432 q 726 368 722 392 l 719 361 l 717 363 q 728 302 724 332 q 733 242 733 272 l 728 235 q 729 219 729 226 q 729 203 729 211 l 722 194 l 719 196 q 717 177 719 189 q 706 165 714 165 l 703 167 l 692 149 q 692 140 692 144 q 690 131 692 135 l 683 124 l 679 125 q 668 107 675 114 q 679 93 674 100 q 685 78 685 86 l 679 71 q 648 63 664 65 q 617 58 632 61 q 600 46 608 51 q 583 33 592 40 q 571 22 583 29 q 542 8 558 14 q 512 -3 526 1 q 492 -8 497 -8 q 482 -6 488 -8 q 476 1 476 -4 l 457 -1 l 457 -24 q 463 -51 463 -35 q 507 -62 485 -53 l 546 -62 l 553 -68 l 550 -74 q 560 -73 553 -74 q 574 -72 567 -72 q 588 -74 582 -72 q 594 -79 594 -75 l 588 -89 q 599 -87 590 -89 q 618 -86 608 -86 q 635 -87 628 -86 q 643 -94 643 -89 l 636 -101 q 584 -106 610 -104 q 532 -107 558 -107 q 515 -106 529 -107 q 500 -110 500 -104 l 500 -112 q 513 -112 504 -112 q 522 -119 522 -112 q 582 -118 553 -119 q 642 -119 611 -117 l 647 -126 q 640 -134 647 -131 q 623 -139 632 -137 q 605 -141 614 -140 q 592 -142 596 -142 q 546 -144 568 -142 q 500 -149 524 -147 l 500 -156 q 510 -156 504 -156 q 517 -164 517 -157 q 502 -176 517 -175 q 481 -178 488 -178 q 492 -178 486 -178 q 503 -179 497 -179 l 454 -179 l 454 -187 l 454 -189 l 454 -189 l 454 -190 l 454 -189 l 454 -189 l 454 -187 l 438 -183 l 439 -181 q 454 -182 449 -181 q 453 -162 454 -171 q 453 -142 453 -153 l 438 -142 l 438 -192 q 421 -196 429 -196 l 417 -199 q 398 -197 404 -197 q 388 -194 392 -196 q 385 -185 385 -192 q 385 -162 385 -178 l 374 -165 l 376 -201 l 376 -201 l 376 -203 l 376 -201 l 376 -201 l 371 -199 l 369 -165 l 358 -168 q 350 -182 356 -178 l 343 -175 l 343 -171 q 304 -175 325 -175 l 297 -168 m 508 1201 l 510 1200 l 507 1201 l 508 1201 m 396 1088 q 396 1065 396 1076 q 394 1043 396 1054 l 406 1042 q 407 1066 407 1054 q 407 1090 407 1078 l 396 1088 m 511 1064 l 513 1064 l 513 1063 l 511 1063 l 511 1064 m 267 1051 q 279 1055 274 1053 q 292 1057 285 1057 l 299 1057 q 308 1056 303 1057 q 317 1056 313 1056 l 314 1051 l 267 1051 m 468 1042 l 469 1042 l 469 1043 l 468 1043 l 468 1042 m 322 1024 l 314 1015 l 322 1017 l 322 1024 m 590 974 l 593 979 q 572 999 582 989 q 547 1015 561 1008 q 549 1003 547 1008 q 553 993 550 999 l 590 974 m 403 1004 l 403 1006 q 397 1005 400 1006 q 392 1004 394 1004 l 392 1001 l 403 1004 m 497 996 l 500 1004 q 485 1003 489 1004 l 489 996 l 497 996 m 474 1001 q 472 1001 472 1001 q 469 1000 471 1000 l 475 999 l 478 1001 l 474 1001 m 322 999 l 322 1000 q 317 999 319 1000 q 311 999 314 999 l 322 999 m 469 996 q 508 981 489 988 q 546 972 526 975 q 508 988 526 981 q 469 999 489 994 l 469 996 m 244 969 q 282 977 264 972 q 319 988 300 982 q 304 989 314 989 l 307 990 l 322 990 l 322 993 q 294 989 308 989 q 265 990 281 989 l 260 988 q 282 988 271 988 q 304 989 293 989 q 274 981 289 986 q 244 969 260 976 m 322 988 l 328 990 l 322 990 l 322 988 l 319 988 l 322 986 l 322 988 m 469 976 l 471 976 l 469 978 l 469 976 m 390 946 q 393 956 392 951 q 396 967 394 961 l 390 960 l 390 946 m 493 961 q 510 947 501 954 q 528 933 519 940 l 526 940 l 528 943 l 494 964 l 493 961 m 406 878 q 409 920 407 899 q 413 963 411 942 l 407 964 l 403 929 l 407 922 l 406 878 m 253 942 l 261 949 l 260 951 q 264 958 260 956 q 271 961 268 960 l 249 956 l 250 944 l 253 942 m 581 950 l 583 958 l 579 960 l 574 957 l 572 957 l 581 950 m 539 953 l 542 958 l 529 960 l 539 953 m 469 949 q 480 943 475 946 q 492 938 485 940 q 481 957 485 947 l 469 957 l 469 949 m 188 888 q 235 953 206 921 q 225 951 229 951 q 215 950 221 950 q 188 900 197 925 l 188 888 m 289 947 q 278 939 283 943 q 269 931 274 935 q 286 940 276 938 q 303 950 296 943 l 288 947 l 289 947 m 606 947 l 600 950 l 599 939 l 606 947 m 443 944 l 439 946 l 439 936 l 443 939 l 443 944 m 299 892 q 310 903 304 899 q 322 914 315 908 l 322 944 q 309 919 314 932 q 299 892 304 906 m 633 936 l 640 931 l 640 936 l 635 939 l 633 936 m 251 858 q 266 876 258 868 q 282 890 274 883 q 290 912 285 901 q 300 933 294 922 q 281 922 290 926 q 261 910 271 917 q 251 858 258 881 m 658 928 l 657 928 l 654 922 l 654 919 l 658 928 m 628 908 l 633 917 l 631 922 l 626 908 l 628 908 m 317 699 l 321 701 q 321 795 321 749 q 322 889 321 842 q 309 881 315 883 q 297 871 303 878 q 285 783 293 828 q 293 774 290 782 q 297 756 296 765 q 297 736 297 746 q 299 721 297 726 l 317 699 m 183 793 q 200 821 190 810 q 200 844 200 832 q 201 868 200 857 q 191 838 196 853 q 179 807 186 822 l 183 793 m 265 854 q 249 829 256 843 q 242 800 242 815 q 258 729 242 763 l 261 728 q 257 740 258 735 q 256 753 256 746 q 249 770 253 761 q 246 789 246 779 q 265 851 246 824 l 265 854 m 228 815 q 231 826 231 821 q 231 838 231 832 l 228 815 m 269 831 q 260 790 260 808 q 265 767 260 776 q 268 785 267 776 q 269 804 269 794 l 269 831 m 374 688 q 379 756 376 722 q 382 824 382 789 l 382 828 l 379 822 l 374 818 q 373 788 374 803 q 372 757 372 772 l 372 689 l 374 688 m 200 794 q 190 775 196 789 q 195 767 193 771 q 200 758 197 763 l 200 794 m 415 769 q 410 731 411 750 q 408 693 408 713 q 409 690 408 690 q 410 686 410 689 q 413 728 413 707 q 415 769 414 749 m 271 700 l 269 701 l 271 699 l 271 700 m 221 696 l 228 688 l 229 690 l 221 699 l 221 696 m 449 629 l 451 628 l 451 636 l 449 636 l 449 629 m 386 599 l 385 599 q 386 598 386 599 q 388 597 386 597 l 386 599 m 300 590 l 294 592 q 299 584 297 589 q 301 575 301 579 q 307 570 304 572 q 313 567 310 568 l 300 590 m 475 586 l 476 588 l 465 590 l 475 586 m 319 582 l 321 581 l 319 582 m 606 553 q 638 535 625 550 q 671 521 651 521 l 676 525 l 686 521 q 703 520 694 521 q 721 519 713 519 l 744 519 l 600 557 l 606 553 m 547 532 q 542 541 544 538 q 536 549 539 544 l 544 542 l 544 538 l 553 531 l 557 531 q 544 542 549 539 l 543 547 l 538 554 l 528 556 l 539 532 l 547 532 m 521 535 l 529 533 q 518 543 521 539 l 515 539 l 521 535 m 550 518 l 544 522 l 546 518 l 550 518 m 539 519 l 540 517 l 544 515 l 540 519 l 539 519 m 564 501 q 547 514 556 510 l 546 518 l 542 518 l 549 513 q 560 493 553 503 q 554 508 557 500 l 549 513 q 560 502 556 508 q 572 489 565 496 l 576 488 q 567 499 572 494 q 557 510 561 503 l 571 500 l 572 500 l 565 506 l 551 517 l 551 517 l 550 518 l 551 517 l 551 517 l 554 510 l 564 501 m 478 506 q 465 515 469 511 l 465 506 l 471 501 l 478 506 m 569 515 l 571 514 l 574 514 l 575 513 l 571 515 l 569 515 m 646 501 l 653 506 l 663 501 q 676 485 669 493 q 693 474 682 478 q 682 488 688 481 q 674 503 676 494 q 661 508 665 506 q 652 509 657 508 q 643 510 647 510 l 638 510 l 640 504 l 646 501 m 351 128 q 356 268 356 199 q 353 386 356 328 q 346 504 350 444 q 342 448 343 476 q 339 392 342 419 l 335 385 q 341 257 336 321 q 349 129 346 193 l 351 128 m 611 493 q 619 481 614 486 q 632 471 625 475 q 622 483 628 478 q 611 493 617 488 m 501 485 l 500 486 l 501 485 m 593 481 q 600 476 596 478 q 607 471 604 474 l 601 478 l 593 481 m 592 460 q 608 444 601 453 q 621 426 614 435 q 619 438 621 433 q 599 456 607 444 q 582 478 590 467 l 583 474 l 588 469 l 592 460 m 465 106 q 491 117 479 111 q 518 125 503 122 l 569 276 q 560 301 564 282 q 555 344 557 321 q 551 390 553 368 q 547 422 550 413 l 540 426 q 542 415 540 424 q 543 399 543 407 q 542 383 543 390 q 536 376 540 376 q 524 386 529 376 q 515 408 518 396 q 510 433 513 421 q 508 451 508 446 q 465 474 483 463 l 465 310 l 461 301 q 461 203 461 253 q 460 106 461 154 l 465 106 m 632 410 l 649 388 q 635 426 646 411 q 626 451 635 439 q 607 471 617 464 q 621 452 615 463 q 632 431 626 442 l 615 453 q 618 446 618 450 q 619 438 618 442 l 632 431 l 635 426 l 632 410 m 558 431 l 564 426 q 563 435 564 431 q 564 443 563 439 l 557 457 l 549 463 q 554 450 551 454 l 553 447 l 558 429 l 558 431 m 628 456 q 635 433 633 444 q 644 411 636 421 l 642 428 l 639 431 q 638 441 638 436 q 636 450 639 446 l 628 456 m 686 399 q 683 413 685 406 q 682 426 682 419 l 674 440 l 671 436 q 678 417 675 426 q 685 399 682 408 l 686 399 m 524 439 l 526 428 q 525 439 525 432 l 524 439 m 586 435 l 586 432 l 599 408 l 606 406 q 597 419 601 413 q 590 432 593 425 l 586 435 m 621 422 l 613 433 l 621 421 l 621 422 m 650 372 q 641 390 646 382 q 631 407 636 399 l 629 406 l 650 368 l 650 372 m 576 403 q 576 389 578 396 q 574 375 574 382 l 574 350 q 576 328 574 339 q 576 306 578 317 l 576 308 l 579 313 l 579 325 q 576 356 579 340 q 581 386 574 371 l 578 401 l 576 403 m 614 393 l 608 392 q 610 383 610 388 q 613 376 610 379 l 617 388 l 614 393 m 607 336 q 608 353 607 347 q 605 363 607 358 q 600 374 603 368 q 603 355 601 364 q 607 336 606 346 m 649 269 l 647 272 q 642 321 649 297 q 625 368 635 344 l 622 356 q 629 338 625 346 q 633 318 633 329 l 624 307 l 619 308 q 621 297 619 301 q 624 286 622 292 l 631 290 q 638 285 635 290 q 643 272 642 279 q 646 257 644 264 q 647 246 647 250 l 649 269 m 394 335 q 395 342 394 338 q 396 349 396 346 q 395 351 396 350 q 394 354 394 353 q 394 316 396 335 q 390 278 393 297 l 388 276 l 382 279 q 385 251 383 265 q 386 224 386 238 q 388 251 386 238 q 390 278 389 264 l 390 251 q 388 238 390 244 q 386 225 386 232 l 386 218 l 389 218 q 394 274 392 246 q 400 331 397 303 l 400 104 q 405 180 403 142 q 407 256 407 218 l 407 269 l 404 275 l 404 361 l 397 356 l 396 357 q 396 346 396 351 q 394 335 396 340 m 208 326 q 200 309 204 318 q 196 289 196 300 l 196 288 l 222 356 q 214 344 218 350 q 206 332 210 339 l 208 326 m 122 318 l 118 321 q 119 313 118 315 l 122 318 m 147 296 l 135 308 q 140 276 135 289 l 147 296 m 692 271 q 703 278 696 278 l 701 286 q 697 291 699 289 q 693 296 694 293 q 692 282 692 292 l 692 271 m 706 238 q 705 224 706 231 q 703 211 704 218 l 707 200 q 710 217 710 208 q 710 235 710 225 l 710 264 l 706 265 q 701 253 703 258 q 696 240 699 247 l 700 221 q 697 201 697 211 q 694 182 696 192 q 703 211 701 197 l 700 221 l 706 238 m 557 138 q 588 150 572 142 l 588 154 l 589 156 l 603 225 q 596 241 597 232 q 593 258 594 250 l 592 256 q 593 229 593 249 q 586 207 593 210 q 576 171 586 188 q 557 138 567 154 m 633 236 q 632 251 633 246 q 631 244 632 247 q 631 236 631 240 l 633 236 m 626 243 l 625 243 l 625 231 l 626 243 m 604 233 l 603 225 l 606 222 l 606 204 l 610 222 l 607 222 l 604 233 m 633 185 q 643 209 640 196 q 653 233 646 222 q 639 221 646 229 q 638 204 639 210 l 639 196 l 633 185 m 619 181 l 635 192 l 638 204 l 635 215 q 626 199 629 208 q 619 182 622 190 l 619 181 m 113 197 l 110 194 l 113 194 l 113 197 m 593 158 l 597 163 q 603 186 600 172 l 593 158 l 589 156 l 588 150 l 588 149 l 592 151 l 593 158 m 211 146 l 193 165 l 189 158 l 211 146 m 421 121 l 426 117 l 426 132 q 421 163 426 150 l 421 121 m 228 138 l 222 136 q 238 125 229 129 q 256 117 247 121 q 228 138 246 131 l 232 143 q 224 151 228 147 q 214 160 219 156 l 208 161 q 219 142 213 151 l 228 138 m 93 160 l 82 136 q 88 147 85 142 q 94 156 92 151 l 93 160 m 224 157 q 239 138 231 147 q 258 122 247 129 q 244 143 253 131 q 224 157 235 156 m 444 150 q 443 128 444 139 q 444 106 442 117 l 444 150 m 586 135 l 581 131 l 583 128 l 586 135 m 650 133 l 649 131 l 650 132 l 650 133 m 601 110 l 614 126 q 607 120 610 125 q 601 113 604 115 l 601 110 m 106 67 l 131 124 l 125 125 q 118 104 122 115 q 106 88 114 93 l 106 67 m 529 101 l 539 103 q 548 111 543 107 q 558 119 553 115 l 560 124 q 543 117 551 121 q 532 103 535 113 l 529 101 m 644 124 l 632 101 q 643 113 639 106 l 643 121 l 644 124 m 267 117 q 287 106 276 110 q 306 94 297 101 q 301 101 306 97 q 291 108 297 104 q 279 117 285 113 q 271 122 274 121 l 267 117 m 618 107 l 601 90 l 603 82 l 618 107 m 508 96 l 508 94 l 492 82 q 502 86 497 85 q 511 90 507 88 l 508 94 q 517 98 513 97 q 526 100 522 99 l 521 104 l 511 96 l 508 96 m 507 69 l 514 78 l 518 78 l 521 76 q 538 88 529 82 q 551 104 547 94 q 539 103 543 104 q 526 90 532 96 q 514 78 519 85 q 487 78 500 78 q 460 79 474 79 l 460 78 q 482 79 468 79 q 496 65 496 79 l 507 69 m 211 101 q 220 94 215 97 q 231 89 225 92 q 222 95 226 92 q 211 101 217 99 m 669 83 l 656 100 q 647 88 651 93 q 638 76 643 82 l 669 83 m 581 90 l 588 96 l 588 97 l 582 94 l 581 94 l 581 90 m 588 96 l 581 89 l 582 85 l 588 92 l 588 96 m 489 81 l 492 82 l 485 82 l 482 88 q 461 82 468 85 l 489 81 m 446 79 l 446 82 q 439 83 442 82 l 439 79 l 446 79 m 557 78 l 556 81 q 552 78 554 78 q 549 75 550 78 l 557 78 m 588 79 l 583 75 l 583 72 l 588 75 l 588 79 m 522 67 l 538 72 l 542 76 l 522 67 m 529 63 q 538 64 535 63 l 536 67 l 529 63 m 501 26 q 534 35 518 29 q 568 40 550 40 q 577 46 572 43 q 586 51 582 49 q 545 40 565 46 q 504 32 525 35 l 501 26 m 458 21 q 472 22 465 21 q 485 24 478 22 q 476 24 481 24 q 467 25 471 25 l 458 25 l 458 21 m 322 -94 q 325 -69 324 -82 q 331 -43 326 -56 l 329 -39 q 321 -62 321 -47 l 321 -76 q 322 -85 321 -81 q 322 -94 322 -90 m 450 -107 q 445 -97 447 -101 q 439 -87 443 -92 q 438 -104 438 -93 l 450 -107 m 311 -135 l 313 -135 l 313 -132 q 293 -133 306 -133 l 297 -136 l 308 -136 l 311 -135 m 460 -143 l 463 -143 l 463 -142 l 461 -142 l 460 -143 m 432 -144 l 433 -144 l 436 -143 l 438 -143 l 438 -142 l 432 -142 l 431 -149 l 433 -149 l 438 -146 l 432 -144 m 438 -143 l 443 -142 l 444 -142 l 444 -143 l 443 -143 l 440 -146 l 438 -146 l 438 -143 m 408 -169 q 408 -158 408 -164 q 407 -147 408 -153 l 400 -149 l 400 -169 l 408 -169 m 419 -164 l 419 -161 q 414 -162 418 -162 l 414 -164 l 419 -164 m 426 -168 l 429 -168 l 429 -168 q 426 -167 428 -168 l 426 -168 m 463 -169 q 465 -168 464 -169 l 463 -168 l 463 -169 m 504 -200 q 531 -199 518 -199 q 558 -199 544 -199 q 533 -202 546 -201 q 507 -204 519 -203 l 507 -203 l 503 -203 l 504 -200 m 297 -200 q 313 -201 304 -201 q 328 -199 321 -200 l 328 -207 l 288 -207 l 297 -200 z "},"%":{"ha":1097,"x_min":47,"x_max":1056,"o":"m 246 -108 l 247 -108 q 274 -57 261 -79 l 271 -57 l 263 -64 l 257 -57 q 242 -57 250 -57 q 226 -54 233 -57 l 221 -47 l 229 -42 q 216 -42 225 -42 q 197 -41 207 -42 q 180 -38 188 -40 q 172 -32 172 -36 l 179 -25 l 254 -25 l 254 -22 l 172 -22 l 165 -17 l 172 -10 q 194 -8 183 -8 q 215 -8 204 -8 l 258 -8 l 261 0 l 247 10 l 251 19 q 195 22 224 21 q 140 33 167 22 l 136 38 q 154 47 136 44 q 195 52 172 50 q 240 54 218 54 q 269 54 261 54 q 443 424 376 231 q 455 465 450 444 q 464 508 460 486 q 475 550 468 529 q 493 589 482 571 l 499 592 l 507 585 q 530 631 515 610 q 554 676 544 653 q 573 751 569 713 q 588 826 576 789 q 619 926 603 876 q 654 1024 635 975 q 599 1022 626 1024 q 544 1024 572 1021 l 538 1031 l 544 1038 q 602 1037 574 1038 q 660 1036 631 1036 l 663 1043 l 658 1050 l 661 1054 l 414 1054 l 407 1061 l 414 1067 q 544 1069 479 1069 q 674 1069 608 1069 q 683 1094 678 1082 q 700 1117 689 1107 q 707 1113 706 1117 q 708 1104 708 1108 q 708 1087 708 1096 q 706 1069 707 1078 l 710 1069 q 715 1101 711 1085 q 722 1132 718 1117 l 729 1136 l 736 1131 l 736 1104 l 731 1099 l 736 1101 l 746 1097 l 754 1114 l 761 1118 l 768 1111 q 764 1091 767 1100 q 758 1071 761 1082 l 764 1071 q 778 1113 771 1092 q 803 1150 786 1135 l 811 1143 l 810 1142 q 799 1104 807 1122 q 781 1071 792 1086 l 782 1071 q 797 1096 790 1083 q 811 1121 804 1108 q 818 1135 811 1132 q 826 1151 821 1143 q 840 1163 831 1160 l 849 1157 q 842 1133 849 1144 q 831 1111 836 1122 l 839 1118 l 846 1108 l 840 1099 q 847 1099 843 1100 q 851 1093 851 1097 q 850 1083 851 1088 q 847 1072 849 1078 l 918 1072 l 925 1065 q 919 1058 925 1061 q 907 1055 914 1056 q 892 1053 900 1054 q 882 1053 885 1053 l 956 1050 l 961 1043 q 949 1036 956 1038 q 935 1033 942 1035 l 943 1025 q 934 1019 940 1019 q 922 1018 928 1019 q 938 1018 928 1018 q 949 1011 949 1018 l 940 1004 q 907 997 924 999 q 874 996 890 996 q 848 997 861 996 q 822 997 835 997 q 756 857 793 925 q 694 714 719 789 q 606 480 654 594 q 500 253 558 365 q 478 214 489 233 q 463 172 467 194 q 462 164 461 168 q 460 156 463 160 q 474 187 467 171 q 490 218 482 203 l 496 221 l 503 215 q 481 133 496 172 q 446 54 465 93 q 470 54 458 54 q 494 53 482 54 l 500 49 q 542 51 521 50 q 585 53 564 53 l 592 46 q 570 38 586 40 q 536 33 554 35 q 501 29 518 31 q 475 28 483 28 q 488 28 482 28 q 501 26 494 28 l 508 19 q 495 14 503 14 q 481 14 488 14 l 478 7 q 447 -2 463 0 q 417 -7 432 -4 l 439 -7 l 444 -12 q 426 -20 438 -19 q 406 -22 415 -21 l 404 -25 l 453 -28 q 465 -27 457 -28 q 474 -33 474 -26 l 471 -40 q 551 -41 511 -40 q 632 -42 592 -42 l 639 -47 l 632 -54 q 576 -58 606 -58 l 388 -57 l 381 -71 l 375 -74 l 368 -68 q 357 -94 361 -81 q 342 -118 353 -107 l 335 -112 q 341 -93 335 -101 q 349 -74 347 -85 q 340 -90 346 -78 q 329 -101 333 -101 q 318 -93 318 -101 q 322 -86 318 -89 q 328 -81 325 -83 q 335 -58 328 -69 q 319 -80 328 -69 q 304 -101 311 -90 l 296 -93 q 307 -58 297 -76 l 300 -58 q 278 -94 289 -76 q 250 -128 267 -112 l 243 -122 l 246 -108 m 56 797 q 53 819 54 804 q 53 849 51 833 q 57 879 54 865 q 64 899 60 893 q 72 951 63 926 q 101 995 82 975 q 144 1028 119 1015 q 193 1047 168 1042 q 229 1051 211 1050 q 265 1060 247 1053 l 272 1056 q 286 1056 275 1056 q 309 1056 297 1057 q 330 1053 321 1056 q 339 1047 339 1051 l 336 1042 q 349 1040 343 1040 q 360 1036 354 1039 q 360 1046 360 1039 q 362 1060 361 1053 q 365 1072 363 1067 q 372 1076 368 1076 q 378 1068 375 1076 q 385 1049 382 1060 q 389 1027 388 1038 q 390 1014 390 1017 q 408 981 401 999 q 422 944 415 963 q 432 931 426 944 q 442 901 438 918 q 451 869 447 885 q 457 847 456 853 q 463 828 463 839 q 463 808 463 818 l 465 801 l 464 793 l 472 786 q 461 751 467 768 q 449 717 456 735 l 451 715 q 443 681 451 697 q 424 653 435 665 l 426 647 q 419 635 426 640 q 407 626 413 629 l 414 619 l 410 610 q 393 599 399 601 q 410 597 400 599 q 419 585 419 594 q 413 576 419 579 q 399 572 407 574 q 383 571 390 571 q 371 571 375 571 l 364 571 l 347 544 q 341 528 344 540 q 334 503 338 515 q 326 480 331 490 q 318 469 322 469 q 310 476 311 469 q 308 489 308 483 q 317 517 308 504 q 331 544 325 531 l 319 539 l 314 547 q 319 558 317 553 q 324 568 321 563 q 288 553 307 557 q 250 550 269 550 q 233 551 239 550 q 225 549 229 550 q 217 547 221 547 q 196 549 211 547 q 165 553 181 550 q 136 560 149 556 q 124 568 124 564 q 140 579 124 578 q 163 581 156 581 q 117 621 139 600 q 83 669 96 642 q 53 722 60 693 q 47 782 47 750 l 47 792 l 56 797 m 679 1038 l 685 1038 l 685 1039 l 681 1042 l 679 1038 m 317 1026 l 325 1026 l 318 1031 l 314 1031 l 317 1026 m 832 1022 q 852 1026 843 1024 q 872 1029 861 1028 q 852 1027 861 1028 q 832 1024 843 1026 l 832 1022 m 349 1024 l 350 1024 l 349 1025 l 347 1025 l 349 1024 m 694 1015 l 703 1017 l 703 1024 l 696 1024 l 693 1015 l 694 1015 m 572 703 q 632 849 604 775 q 676 1000 660 922 l 668 1008 l 675 1014 l 679 1014 l 682 1024 l 674 1024 q 614 865 642 944 q 572 703 586 786 m 194 997 q 201 1006 197 1001 q 208 1015 204 1011 q 200 1010 204 1013 q 192 1006 196 1008 l 188 997 l 194 997 m 372 1003 l 378 997 q 372 1007 375 1001 l 372 1003 m 713 1000 l 711 997 l 711 989 l 715 994 l 713 1000 m 250 999 q 262 997 257 999 q 274 996 267 996 l 276 996 l 254 1000 l 250 999 m 768 997 l 772 997 l 772 999 l 767 999 l 751 971 l 768 997 m 722 971 q 727 980 725 975 q 732 988 729 985 l 732 997 q 721 978 725 988 l 722 971 m 344 994 l 343 994 l 344 993 l 344 994 m 349 978 l 346 985 l 339 989 l 344 981 l 349 978 q 354 961 351 967 l 354 960 q 371 935 361 946 q 389 913 381 925 l 389 924 l 376 949 q 367 949 371 946 q 362 956 364 951 q 358 965 360 960 q 357 974 357 971 l 349 978 m 318 975 l 326 974 l 331 976 l 324 988 l 319 988 l 313 982 l 308 982 l 318 975 m 122 983 l 117 974 l 122 978 l 126 986 l 122 983 m 169 957 q 177 967 172 963 q 182 978 182 971 l 182 981 l 176 983 q 169 973 174 978 q 161 963 165 968 l 169 957 m 342 982 l 354 957 l 354 960 q 349 970 351 965 q 344 981 347 975 l 342 982 m 196 978 q 199 979 197 979 q 200 982 200 979 l 199 982 l 196 978 m 686 931 q 686 922 686 926 q 685 913 686 917 q 694 919 686 917 q 703 941 699 931 q 715 961 708 951 q 721 978 718 972 l 719 979 l 719 978 l 710 971 l 704 972 l 688 931 l 686 931 m 186 685 q 194 687 189 685 q 200 689 199 689 q 233 680 213 689 q 260 660 253 671 l 258 658 l 263 647 q 306 683 286 663 q 349 719 325 704 q 347 782 349 751 q 353 843 346 813 l 338 901 q 306 924 321 904 q 286 960 292 944 q 257 968 272 967 q 228 976 242 969 q 204 963 217 969 q 181 949 192 957 q 158 868 165 910 q 150 785 150 826 q 163 733 150 757 q 186 685 175 708 m 135 967 q 140 970 138 968 q 146 975 143 972 l 136 971 l 135 967 m 356 954 q 354 956 356 956 l 354 956 l 354 956 q 356 954 354 954 l 356 954 l 356 954 m 333 917 q 324 937 329 931 q 307 950 318 943 q 317 931 311 940 q 333 917 322 921 m 129 946 q 131 947 131 946 l 131 947 l 129 946 l 129 946 m 89 946 q 83 929 86 940 q 89 946 86 940 m 710 800 l 711 796 l 710 790 q 719 819 717 804 q 726 850 721 835 q 746 897 735 874 q 764 943 757 919 q 746 906 753 928 l 743 904 q 722 851 726 879 q 706 794 717 822 l 710 800 m 715 889 q 697 845 706 867 q 676 803 688 824 q 676 769 681 786 q 710 853 693 811 q 733 939 726 894 l 717 889 l 715 889 m 401 931 l 401 928 q 402 923 401 925 q 403 918 403 921 l 408 913 l 401 931 m 96 865 q 101 893 100 879 q 104 921 103 907 q 97 899 101 910 q 93 876 93 888 q 94 865 93 869 l 96 865 m 81 919 q 78 914 78 917 l 79 915 l 81 919 m 679 894 q 681 899 681 896 l 679 894 m 142 861 q 145 880 143 871 q 149 899 147 889 l 140 874 l 142 861 m 89 860 q 90 874 89 869 l 88 861 q 88 858 88 858 l 89 860 m 99 815 q 101 838 101 829 l 101 846 l 97 835 q 98 825 97 829 q 99 815 99 821 m 82 821 q 82 793 82 807 q 85 765 82 779 q 85 777 85 772 q 86 789 86 782 q 86 801 86 796 q 85 813 86 806 l 83 819 l 83 821 l 82 821 m 431 779 l 433 789 l 431 785 l 431 779 m 443 774 q 426 710 432 742 q 436 734 431 722 q 447 758 442 746 q 445 766 446 763 q 444 774 444 769 l 443 774 m 636 701 q 644 714 640 708 q 656 724 649 719 q 660 744 658 735 q 663 765 661 754 q 649 733 656 750 q 636 701 643 717 m 108 760 q 108 744 106 750 l 108 760 m 681 725 q 686 738 685 732 q 690 751 688 744 q 685 738 688 744 q 681 725 683 732 m 396 746 l 392 724 l 399 733 l 396 746 m 672 743 l 671 739 l 672 742 l 672 743 m 660 729 q 631 675 646 701 q 608 619 617 649 q 626 653 615 638 q 644 688 636 669 q 652 709 650 699 q 660 729 654 719 m 107 707 q 110 694 108 700 q 114 682 111 689 l 121 675 l 122 672 l 122 675 q 119 681 121 678 q 119 686 118 683 q 111 692 113 686 q 110 703 110 697 l 107 707 m 604 690 l 606 692 l 606 696 l 607 697 l 606 697 l 604 690 m 165 672 l 174 676 l 165 693 l 165 672 m 329 674 q 335 683 332 678 q 340 692 338 688 q 333 685 336 689 q 326 679 329 682 l 326 672 l 329 674 m 406 671 q 417 682 410 678 l 419 689 q 412 679 417 683 q 403 671 407 675 l 406 671 m 101 672 l 101 672 l 103 672 l 101 674 l 101 674 q 97 681 99 676 q 92 688 94 685 l 94 678 l 101 672 m 388 675 q 390 678 388 675 l 388 675 m 554 411 l 543 367 q 613 511 581 438 q 668 663 644 585 l 660 669 q 608 539 633 603 q 554 410 582 475 l 554 411 m 576 578 q 597 621 586 600 q 610 665 607 642 q 576 578 589 624 m 138 663 l 138 657 q 140 650 139 654 q 140 643 142 646 q 151 638 146 639 q 142 647 144 640 q 139 661 140 654 l 138 663 m 606 618 q 613 639 610 629 q 618 660 615 649 q 606 618 610 639 m 118 635 q 108 649 115 643 q 118 635 113 640 m 249 644 q 248 647 249 646 q 247 649 247 647 l 219 649 q 246 642 233 642 l 249 642 l 249 644 m 310 625 q 325 631 318 628 q 328 638 328 633 q 331 644 329 642 q 321 635 326 639 q 310 625 315 631 m 565 636 l 567 642 l 564 638 l 565 636 m 200 603 l 196 614 l 193 614 l 193 610 l 200 603 m 215 599 q 227 595 222 597 q 239 593 232 593 l 242 593 l 235 601 l 239 610 l 236 613 q 211 613 224 611 l 215 599 m 279 610 q 278 612 278 611 q 281 611 279 613 l 279 613 l 276 611 l 275 611 l 279 610 m 335 600 l 339 600 l 344 606 l 338 603 l 335 600 m 204 589 l 204 593 l 201 596 l 199 596 l 206 586 l 204 589 m 361 139 q 395 209 382 172 q 419 284 408 246 q 440 360 429 322 q 464 435 450 399 q 497 511 479 474 q 531 588 515 549 l 518 571 l 510 568 l 506 569 q 474 462 496 514 q 433 357 453 410 q 396 249 414 303 q 361 139 378 194 m 254 576 q 238 578 246 578 q 222 582 231 579 q 228 574 225 578 q 236 567 231 569 l 254 576 m 731 -31 q 724 -22 728 -31 q 718 -3 721 -14 q 714 19 715 8 q 713 32 713 29 q 694 65 701 47 q 681 101 688 83 q 671 115 676 101 q 660 144 665 128 q 651 177 656 161 q 646 199 647 193 q 640 217 640 207 q 640 238 640 228 l 638 244 l 639 253 l 631 260 q 642 294 636 278 q 654 329 647 311 l 651 331 q 660 365 651 349 q 679 393 668 381 l 676 399 q 683 411 676 406 q 696 419 690 417 l 689 426 l 693 436 q 710 447 704 444 q 693 449 703 447 q 683 461 683 451 q 690 469 683 467 q 704 474 696 472 q 720 475 713 475 q 732 475 728 475 l 739 475 l 756 501 q 762 518 758 506 q 769 543 765 531 q 776 566 772 556 q 785 576 781 576 q 793 569 792 576 q 794 557 794 563 q 786 528 794 542 q 772 501 778 515 l 783 507 l 789 499 q 784 488 786 493 q 779 478 782 483 q 815 492 796 489 q 853 496 833 496 q 869 494 864 496 q 878 497 874 496 q 886 499 882 499 q 907 497 892 499 q 938 493 922 496 q 967 486 954 490 q 979 478 979 482 q 963 467 979 468 q 940 465 947 465 q 985 425 964 446 q 1019 376 1007 404 q 1049 324 1043 353 q 1056 264 1056 296 l 1056 254 l 1047 249 q 1051 227 1050 242 q 1050 197 1051 213 q 1046 167 1049 181 q 1039 147 1043 153 q 1031 96 1042 121 q 1002 51 1021 71 q 959 18 983 32 q 910 -1 935 4 q 874 -6 892 -4 q 838 -14 856 -7 l 831 -10 q 817 -10 828 -10 q 794 -10 806 -11 q 773 -8 782 -10 q 764 -1 764 -6 l 767 4 q 754 6 760 6 q 743 10 749 7 q 742 0 743 7 q 741 -14 742 -7 q 738 -26 740 -21 q 731 -31 735 -31 m 261 565 q 300 572 279 565 q 288 572 293 572 q 276 574 283 572 q 270 568 274 571 q 263 565 267 565 l 261 565 m 544 490 q 551 503 549 493 q 554 519 553 514 q 549 505 551 513 q 544 490 547 497 m 519 515 q 494 450 506 483 q 472 383 483 417 q 500 448 488 415 q 519 515 513 481 m 842 481 q 803 474 824 481 q 815 474 810 474 q 826 472 819 474 q 833 478 829 475 q 840 481 836 481 l 842 481 m 849 469 q 865 467 857 468 q 881 464 872 467 q 875 472 878 468 q 867 479 872 476 l 849 469 m 560 465 l 554 460 l 556 454 l 560 465 m 899 457 l 899 453 l 901 450 l 904 450 l 897 460 l 899 457 m 888 447 q 876 451 881 449 q 864 453 871 453 l 861 453 l 868 444 l 864 436 l 867 433 q 892 433 879 436 l 888 447 m 768 446 l 764 446 l 758 440 l 765 443 l 768 446 m 903 443 l 907 432 l 910 432 l 910 436 l 903 443 m 525 382 q 538 410 532 396 q 543 440 543 425 q 533 411 538 425 q 525 382 529 397 m 824 436 q 824 434 825 435 q 822 435 824 433 l 824 433 l 826 435 l 828 435 l 824 436 m 793 421 q 778 415 785 419 q 774 408 775 413 q 772 401 774 404 q 782 411 776 407 q 793 421 788 415 m 985 411 q 994 397 988 403 q 985 411 990 406 m 965 383 l 965 389 q 963 396 964 392 q 963 403 961 400 q 951 408 957 407 q 960 399 958 406 q 964 385 963 392 l 965 383 m 854 401 q 855 399 854 400 q 856 397 856 399 l 883 397 q 857 404 869 404 l 854 404 l 854 401 m 517 403 q 494 364 504 389 q 476 310 483 339 q 465 255 469 282 q 461 208 461 228 l 463 207 q 479 252 472 229 q 494 299 486 275 l 490 304 q 500 355 492 331 q 517 403 508 379 m 917 361 q 909 359 914 361 q 903 357 904 357 q 870 366 890 357 q 843 386 850 375 l 844 388 l 840 399 q 797 363 817 383 q 754 326 778 342 q 756 264 754 294 q 750 203 757 233 l 765 144 q 797 122 782 142 q 817 86 811 101 q 846 78 831 79 q 875 69 861 76 q 899 83 886 76 q 922 97 911 89 q 945 178 938 136 q 953 261 953 219 q 940 313 953 289 q 917 361 928 338 m 1001 374 l 1001 374 l 1000 374 l 1001 372 l 1001 372 q 1006 365 1004 369 q 1011 358 1008 361 l 1008 368 l 1001 374 m 774 372 q 768 363 771 368 q 763 354 765 358 q 770 360 767 357 q 776 367 774 364 l 776 374 l 774 372 m 938 374 l 929 369 l 938 353 l 938 374 m 996 339 q 993 351 994 346 q 989 364 992 357 l 982 371 l 981 374 l 981 371 q 983 365 982 368 q 983 360 985 363 q 992 354 990 360 q 993 343 993 349 l 996 339 m 715 371 q 713 368 715 371 l 715 371 m 660 272 q 676 336 671 304 q 667 312 672 324 q 656 288 661 300 q 658 280 657 283 q 658 272 658 276 l 660 272 m 707 300 l 711 322 l 704 313 l 707 300 m 994 286 q 994 301 997 296 l 994 286 m 1021 225 q 1021 253 1021 239 q 1018 281 1021 267 q 1019 268 1018 274 q 1017 256 1019 263 q 1017 244 1019 250 q 1018 232 1015 239 l 1019 228 l 1019 225 l 1021 225 m 672 267 l 669 257 l 672 261 l 672 267 m 338 143 q 328 102 336 122 q 314 63 319 82 q 332 93 321 82 q 360 180 346 138 q 389 265 374 222 q 363 207 376 236 q 335 149 349 178 l 335 146 l 338 143 m 1004 231 q 1001 208 1001 217 l 1001 200 l 1006 211 q 1005 221 1006 217 q 1004 231 1004 225 m 426 147 q 440 178 433 163 q 446 213 446 194 l 446 214 q 435 181 439 197 q 426 147 431 164 m 1014 186 q 1013 172 1014 176 l 1015 185 q 1015 188 1015 188 l 1014 186 m 961 185 q 958 166 960 175 q 954 147 956 157 l 963 172 l 961 185 m 1007 181 q 1001 153 1003 167 q 999 125 1000 139 q 1006 147 1001 136 q 1010 169 1010 158 q 1008 181 1010 176 l 1007 181 m 754 68 l 757 61 l 764 57 l 758 65 l 754 68 q 749 85 751 79 l 749 86 q 732 110 742 100 q 714 133 722 121 l 714 122 l 726 97 q 735 97 732 100 q 741 90 739 94 q 744 81 743 86 q 746 72 746 75 l 754 68 m 701 115 l 701 118 q 701 123 701 121 q 700 128 700 125 l 694 133 l 701 115 m 1022 126 q 1025 132 1025 129 l 1022 126 m 769 129 q 779 109 774 115 q 796 96 785 103 q 786 115 792 106 q 769 129 781 125 m 439 114 l 438 118 q 431 103 433 111 q 426 86 429 94 l 439 114 m 1014 100 q 1019 117 1017 106 q 1014 100 1017 106 m 393 85 q 398 96 396 90 q 403 108 400 101 q 397 97 400 103 q 393 85 393 92 m 722 85 l 722 90 l 718 97 l 718 99 l 717 97 l 718 88 l 722 85 m 747 92 q 749 90 747 90 l 749 90 l 749 90 q 747 92 749 92 l 747 92 l 747 92 m 926 63 q 933 73 929 68 q 940 85 938 78 l 933 89 q 926 79 931 83 q 921 68 921 75 l 921 65 l 926 63 m 761 64 l 749 89 l 749 86 q 753 76 751 81 q 758 65 756 71 l 761 64 m 349 81 l 339 63 l 346 68 l 349 81 m 968 79 q 957 71 964 78 l 967 75 l 968 79 m 785 71 l 776 72 l 772 69 l 779 58 l 783 58 l 790 64 l 794 64 l 785 71 m 981 63 l 986 72 l 981 68 l 976 60 l 981 63 m 907 68 q 904 67 906 67 q 903 64 903 67 l 904 64 l 907 68 m 758 51 l 760 51 l 758 53 l 758 51 m 853 47 q 841 49 846 47 q 829 50 836 50 l 826 50 l 849 46 l 853 47 m 908 49 q 902 40 906 44 q 894 31 899 35 q 903 35 899 33 q 911 40 907 38 l 915 49 l 908 49 m 731 43 l 725 49 q 731 39 729 46 l 731 43 m 183 38 q 220 34 203 35 q 257 32 238 33 l 261 40 q 222 40 242 40 q 183 38 203 39 m 331 29 l 335 29 l 336 31 l 338 39 l 331 29 m 754 22 l 753 22 l 754 21 l 756 21 l 754 22 m 786 19 l 778 19 l 785 15 l 789 15 l 786 19 z "},"&":{"ha":925,"x_min":11,"x_max":951,"o":"m 903 349 q 849 361 874 351 l 844 357 q 865 344 851 353 q 878 325 878 335 l 889 317 l 892 307 q 907 294 900 301 q 921 281 914 288 l 914 274 q 882 292 900 274 q 854 319 864 310 l 854 321 l 853 319 l 847 318 l 840 319 l 842 317 l 849 313 l 858 297 l 851 290 q 827 308 838 297 q 804 326 817 318 l 803 326 l 815 308 l 808 301 q 789 308 799 301 q 775 290 782 299 q 761 271 768 282 l 763 265 q 741 231 760 244 q 707 206 722 218 q 719 189 714 197 q 733 174 725 181 q 727 188 731 181 q 724 203 724 196 l 731 211 q 739 206 736 211 q 742 197 742 201 q 756 172 742 186 q 776 146 769 157 l 782 144 q 802 161 793 151 q 822 176 811 171 l 832 168 l 821 150 l 838 171 l 843 174 l 850 167 q 847 150 850 158 q 843 133 843 142 l 843 131 l 864 144 l 872 138 q 858 120 865 128 q 843 104 850 113 l 844 104 q 866 126 854 113 q 892 140 878 140 l 900 132 q 913 138 906 138 q 928 140 921 138 q 935 148 931 143 q 944 153 939 153 l 951 146 q 946 134 951 139 q 933 128 940 129 q 921 116 928 121 q 906 110 914 111 q 890 94 899 100 q 872 81 882 88 q 910 65 892 74 q 942 40 929 56 l 931 33 q 904 40 917 33 q 878 46 892 46 l 876 46 q 908 22 890 32 q 938 -4 926 13 l 928 -12 l 897 0 q 874 3 885 -1 q 853 15 864 8 q 833 28 843 22 q 810 35 822 35 l 807 35 l 804 32 q 824 14 811 25 q 836 -7 836 3 q 831 -14 836 -12 q 822 -15 826 -15 q 789 -5 804 -15 q 760 15 774 6 l 754 8 q 763 -4 758 1 q 769 -17 767 -10 l 763 -24 q 740 -12 751 -24 q 722 -33 733 -21 q 699 -44 710 -44 l 692 -37 l 703 -24 l 694 -17 q 706 -1 699 -8 q 674 -17 689 -11 l 667 -11 l 676 1 q 668 2 672 1 q 664 8 664 3 q 677 27 664 15 q 697 43 690 39 l 686 58 q 672 52 679 56 q 656 49 664 49 l 649 56 q 657 67 649 64 q 638 73 647 69 q 619 81 629 76 l 615 86 q 621 94 615 92 q 631 96 626 96 q 652 86 643 96 q 674 78 661 76 l 676 75 l 678 75 q 672 94 678 83 q 657 114 665 104 q 638 130 649 124 q 619 138 628 136 q 594 113 608 122 q 564 93 579 103 l 558 96 q 521 69 543 85 q 474 38 499 53 q 426 14 450 24 q 382 4 401 4 l 375 11 l 356 8 q 335 -3 347 0 q 313 -6 324 -6 q 281 -18 297 -18 q 238 -5 257 -18 q 194 11 218 8 q 191 -15 194 1 q 175 -32 188 -32 q 148 -10 165 -32 q 113 40 131 13 q 81 96 96 68 q 63 133 67 124 l 56 126 q 40 155 44 138 q 32 188 35 172 q 27 165 26 176 q 26 143 28 154 l 19 138 q 12 151 13 138 q 11 169 11 164 q 11 183 11 174 q 13 203 11 193 q 19 222 15 214 q 28 229 22 229 q 23 243 25 236 q 21 257 21 250 q 26 263 24 260 q 29 269 28 267 q 27 313 28 292 q 26 356 26 333 q 35 431 26 397 q 71 497 44 464 q 88 524 79 507 q 108 557 97 540 q 131 586 119 574 q 157 600 143 599 q 178 622 165 613 q 204 638 190 631 l 201 640 l 199 639 q 185 647 192 640 l 186 640 l 179 633 q 167 647 175 636 q 151 672 160 658 q 138 699 143 686 q 132 717 132 713 q 133 721 132 718 q 135 725 135 724 q 117 756 125 740 q 108 790 108 772 l 110 792 q 101 817 103 803 q 100 844 100 831 l 100 858 l 106 865 q 107 878 107 869 q 107 901 107 885 q 110 933 107 917 q 118 963 113 950 q 133 975 124 975 q 144 994 138 982 q 160 1010 151 1007 l 168 1004 l 168 1006 q 219 1051 185 1036 q 285 1069 253 1065 q 294 1074 288 1074 q 306 1075 300 1075 q 324 1075 315 1075 q 343 1078 333 1075 l 342 1082 l 349 1089 l 365 1083 q 417 1078 379 1085 q 494 1060 454 1072 q 564 1034 533 1049 q 594 1004 594 1019 l 593 1001 q 609 982 600 992 q 618 958 618 972 l 613 949 l 615 925 q 622 917 621 925 q 624 906 624 910 l 625 903 q 624 881 625 897 q 622 846 624 864 q 617 815 621 828 q 608 801 614 801 q 601 783 607 796 q 590 756 596 769 q 577 732 583 743 q 565 719 571 721 l 544 686 l 546 685 q 528 660 543 675 q 501 644 513 644 q 492 635 496 639 q 481 628 488 631 l 474 632 l 469 628 q 465 615 468 624 q 457 596 461 606 q 448 578 453 586 q 440 571 443 571 l 432 578 q 437 605 432 592 q 449 631 442 618 q 424 601 436 615 q 397 572 411 586 q 406 563 401 568 q 413 551 410 557 l 421 558 l 431 551 q 445 525 439 539 q 463 500 451 511 q 487 481 474 489 q 508 458 500 472 l 503 453 q 565 386 532 418 l 571 390 q 602 356 588 374 q 631 318 617 338 q 649 351 633 338 q 669 382 664 364 q 672 390 671 385 q 678 396 672 396 l 685 390 l 689 393 q 675 415 681 404 q 668 439 669 426 l 674 446 q 664 453 668 449 q 656 463 660 458 l 656 464 l 663 471 l 718 439 l 717 440 l 724 450 q 738 443 731 447 q 751 435 744 439 q 726 457 742 443 q 710 485 710 471 l 717 492 q 747 467 735 482 q 774 439 758 451 q 786 450 782 447 l 792 447 l 803 463 l 814 467 l 822 460 l 815 447 l 818 446 l 822 446 l 825 444 q 845 467 832 451 q 868 482 858 482 l 876 475 q 860 458 869 465 q 843 439 850 450 l 856 435 q 884 403 871 419 q 911 369 897 386 q 921 361 918 367 q 926 350 924 356 l 918 342 l 903 349 m 453 1044 l 463 1039 l 454 1046 l 453 1046 l 453 1044 m 325 1043 l 326 1043 l 326 1044 l 325 1043 m 546 1025 q 550 1014 547 1021 q 557 1006 553 1007 l 557 1004 l 568 1011 l 560 1019 q 553 1022 557 1021 q 546 1025 550 1024 m 263 1007 q 272 1010 268 1008 q 279 1015 275 1013 l 281 1018 l 263 1010 l 263 1007 m 396 1004 q 408 996 403 1000 q 418 988 413 992 l 417 990 l 417 994 q 406 999 411 997 q 396 1004 401 1001 m 238 850 q 246 805 238 826 q 264 763 254 783 l 269 771 q 284 763 276 771 q 299 745 292 756 q 312 724 306 735 q 321 708 318 714 q 350 724 336 715 q 381 733 364 733 l 388 729 q 406 751 396 736 q 428 782 417 767 q 451 809 440 797 q 472 821 463 821 q 472 873 472 847 q 475 925 472 899 q 455 953 464 939 q 435 983 446 968 l 439 969 q 453 953 446 963 q 461 933 461 944 l 454 926 q 438 940 446 926 q 428 961 431 954 l 421 967 l 419 963 q 385 979 403 971 q 353 999 368 988 q 336 990 346 992 q 317 989 326 989 q 304 990 311 989 q 296 997 297 990 q 278 987 289 994 q 267 969 267 979 l 267 967 l 271 960 l 264 953 q 254 961 257 953 q 242 906 247 933 q 238 850 238 878 m 214 972 q 218 985 217 979 q 221 997 219 990 l 218 996 q 216 983 217 989 q 213 972 215 978 l 214 972 m 193 979 l 197 983 l 200 992 l 190 990 l 190 985 l 193 979 m 171 979 q 165 970 168 974 q 158 961 161 967 q 165 970 164 964 q 172 979 167 976 l 171 979 m 183 971 q 178 963 181 967 q 172 956 175 960 l 172 932 q 178 951 175 942 q 186 968 181 960 l 183 971 m 475 957 l 461 971 q 478 949 467 960 l 475 957 m 146 878 q 149 931 142 904 l 146 938 l 142 929 l 144 922 q 140 900 144 911 l 140 874 l 146 878 m 497 871 l 489 894 q 487 874 488 883 q 486 854 486 865 l 486 840 l 497 871 m 588 831 q 593 875 593 849 q 592 884 593 879 q 592 893 592 889 q 588 863 589 878 q 588 833 588 849 l 588 831 m 189 858 q 189 869 189 864 q 188 881 189 875 l 183 849 l 189 858 m 607 838 q 609 852 608 844 q 610 867 610 860 l 607 872 q 605 852 606 861 q 601 832 604 843 l 607 838 m 185 765 q 181 801 182 783 q 178 836 179 818 q 171 842 172 838 q 169 850 169 846 q 170 855 169 853 q 171 860 171 857 l 168 856 l 168 849 l 164 842 q 172 803 167 822 q 185 765 178 785 m 226 826 q 224 847 224 840 l 218 844 l 226 826 m 528 810 q 540 825 536 821 q 538 834 539 829 q 538 843 536 839 q 533 836 535 840 q 529 831 532 832 q 528 825 529 828 q 528 819 528 822 l 528 810 m 485 769 q 493 786 489 778 q 500 803 497 794 l 500 818 l 485 769 m 149 774 l 151 774 l 151 782 q 144 786 144 782 q 143 796 143 790 q 133 810 136 801 q 134 794 133 803 q 135 779 135 786 l 143 767 l 149 774 m 188 806 q 192 789 190 797 q 197 772 194 781 l 193 800 l 188 806 m 171 761 q 164 782 167 772 q 158 803 161 792 l 158 793 q 163 777 158 785 q 171 761 168 769 m 593 800 l 592 801 l 590 801 l 590 800 q 590 798 590 799 q 589 796 589 797 l 589 790 l 593 800 m 479 796 q 469 773 474 785 q 460 750 464 761 q 471 773 467 761 q 479 796 475 785 m 524 771 q 535 789 531 778 q 529 780 532 783 q 524 771 526 776 m 429 735 q 440 746 433 742 q 447 767 443 757 q 453 789 450 778 q 441 774 446 782 q 431 760 436 767 q 429 735 433 746 m 221 763 l 225 758 l 219 772 l 221 763 m 500 767 q 498 757 499 761 q 497 747 497 753 l 499 746 l 501 750 l 501 758 q 501 763 501 761 q 500 767 500 764 m 482 761 q 471 745 479 751 q 460 729 463 739 l 463 724 l 454 717 l 453 710 l 463 717 q 476 740 468 729 q 486 765 483 751 l 482 761 m 540 754 q 533 746 538 750 q 526 736 529 742 q 534 744 531 740 q 540 753 538 749 l 540 754 m 172 692 q 160 713 165 703 q 150 735 156 724 l 150 733 l 146 733 q 156 715 151 724 q 165 697 161 707 l 172 692 m 522 731 l 521 731 l 521 729 l 522 731 m 236 694 q 226 707 231 701 q 215 718 221 713 l 224 697 q 236 683 232 689 l 236 694 m 306 704 l 304 706 l 304 707 l 303 710 l 303 706 l 304 704 l 306 704 m 528 688 q 539 704 536 699 l 525 693 l 528 688 m 210 661 q 201 683 207 672 q 186 703 194 694 l 207 663 l 210 661 m 378 690 q 360 676 371 683 l 371 679 l 378 690 m 254 669 l 250 676 l 250 667 l 254 669 m 261 646 q 269 638 268 644 l 271 639 l 265 650 l 260 649 l 261 646 m 374 640 l 371 638 l 374 638 l 376 639 l 378 642 l 374 640 m 403 631 l 404 632 l 403 632 l 403 631 m 400 614 q 391 609 394 613 q 383 603 388 606 q 392 604 388 603 q 400 607 396 606 l 400 614 m 238 585 l 250 597 l 246 597 l 243 596 l 238 585 m 276 583 l 283 579 l 286 579 l 281 585 l 276 583 m 126 560 q 133 566 129 563 q 142 572 138 569 l 149 582 q 126 560 135 574 m 208 565 l 214 574 l 194 557 l 208 565 m 240 572 q 226 562 233 567 q 215 549 219 557 l 224 551 l 240 572 m 136 526 q 154 547 147 535 l 154 550 q 144 538 150 543 q 136 526 139 533 m 340 536 l 342 536 l 342 538 l 340 539 l 340 536 m 404 474 q 385 503 394 489 q 368 533 376 518 q 383 501 372 515 q 404 474 393 488 m 268 514 l 278 519 l 279 522 l 279 525 l 278 526 l 272 522 l 272 521 l 268 514 m 168 524 l 165 519 l 169 524 l 168 524 m 63 443 q 88 479 76 461 q 110 517 100 497 q 95 494 103 506 q 76 475 88 483 q 72 458 76 465 q 63 443 68 450 m 181 182 q 190 167 186 175 q 197 153 194 160 q 240 137 219 144 q 285 124 261 129 l 290 119 q 342 125 317 119 q 392 136 367 131 q 400 140 396 139 q 408 144 404 142 q 413 153 408 151 q 424 156 418 154 q 458 201 435 181 q 499 240 481 221 q 458 291 478 265 q 419 342 439 317 l 425 349 q 405 372 419 358 q 376 401 390 386 q 349 428 361 415 q 335 449 338 442 q 324 465 328 456 q 315 482 321 474 q 303 495 310 489 q 290 508 297 501 q 280 494 286 501 q 264 486 274 486 q 237 455 253 469 q 214 421 221 440 l 213 421 l 211 408 l 214 403 q 203 369 207 388 q 193 336 200 351 q 201 303 194 319 q 216 271 208 286 q 230 239 224 256 q 236 206 236 222 l 229 196 q 218 210 225 196 q 203 244 211 225 q 190 280 196 263 q 182 303 185 297 q 183 290 182 296 q 182 276 183 283 l 176 268 l 171 269 q 169 254 169 263 q 168 239 168 246 q 181 183 168 208 l 181 182 m 240 497 l 238 494 l 238 492 l 240 497 m 136 490 q 119 458 125 475 q 106 425 113 442 q 117 436 110 432 l 114 442 l 140 486 l 138 486 l 136 490 m 435 443 q 442 438 440 442 q 443 429 443 433 l 436 422 q 424 428 428 425 q 449 399 436 413 q 475 371 461 385 l 476 376 q 458 402 468 389 q 447 432 449 415 q 431 454 436 442 q 418 478 426 467 l 432 453 l 431 449 l 435 443 m 383 450 q 374 463 379 457 q 363 475 369 468 l 363 474 l 383 450 m 103 467 l 101 465 l 101 464 l 100 463 l 100 461 l 103 467 m 435 388 q 470 357 456 376 q 501 321 485 338 q 452 380 476 350 q 400 438 428 410 q 415 412 404 422 q 435 390 425 401 l 435 388 m 813 433 l 806 436 l 804 433 l 807 429 l 813 433 m 696 435 q 724 419 710 425 q 710 427 717 424 q 696 435 703 431 m 825 413 l 828 414 q 857 392 843 403 q 888 375 871 382 l 889 375 q 869 401 879 389 q 846 424 858 413 l 833 428 q 828 424 831 426 q 824 419 826 422 l 824 414 l 825 413 m 746 417 l 751 414 l 753 415 l 744 421 l 746 417 m 528 397 q 566 360 547 378 q 603 322 585 342 l 604 324 q 560 373 582 349 q 514 421 538 397 q 522 410 518 415 q 528 397 526 404 m 719 385 q 707 399 713 392 q 699 414 701 406 l 692 418 q 703 399 697 408 q 717 381 708 389 l 719 385 m 93 360 l 125 414 q 107 390 114 403 q 93 364 100 376 l 93 360 m 472 410 q 483 393 478 401 q 494 376 488 385 l 496 381 q 484 395 489 388 q 472 410 479 403 m 82 397 l 85 400 l 85 403 l 82 397 m 43 351 q 44 373 43 363 q 44 394 44 383 q 42 373 42 383 q 42 351 42 363 l 42 349 l 43 351 m 772 383 l 768 386 l 767 385 l 769 382 l 772 383 m 707 372 l 704 376 q 691 363 697 369 q 678 349 685 356 l 707 372 m 144 357 l 144 358 q 134 337 139 347 q 126 315 129 326 l 144 357 m 92 286 q 108 347 92 321 l 89 319 l 92 286 m 763 339 l 764 340 l 761 343 l 760 340 l 763 339 m 535 328 l 540 325 q 572 289 556 307 q 551 315 564 304 q 526 338 539 326 l 535 328 m 613 336 l 611 336 l 613 335 l 613 336 m 89 319 l 89 333 l 88 331 q 88 323 88 328 q 86 315 89 318 l 89 319 m 740 318 l 753 331 l 751 331 l 740 318 m 110 261 q 111 293 110 276 q 115 325 113 310 l 114 328 q 106 289 106 310 q 106 277 106 282 q 107 265 106 272 l 110 261 m 93 263 q 90 288 92 275 q 86 311 89 300 q 85 294 86 303 q 85 278 85 286 q 87 222 85 250 q 100 167 89 194 q 94 215 97 190 q 92 264 92 240 l 93 263 m 128 265 q 131 283 129 274 q 133 300 133 292 l 133 303 l 125 283 q 128 265 125 276 m 551 219 q 526 251 539 235 q 496 278 513 267 q 520 245 506 258 q 551 219 535 232 m 668 272 l 668 274 l 667 272 l 668 272 m 667 264 l 667 272 l 664 269 l 664 265 l 665 263 l 667 264 m 96 219 q 104 207 100 213 q 114 196 108 201 q 93 260 101 228 l 96 219 m 672 257 l 671 257 l 672 256 l 672 257 m 700 218 q 717 234 708 226 q 735 250 726 242 l 732 253 q 723 247 728 250 q 713 240 718 243 q 707 232 710 236 q 700 224 704 228 l 700 218 m 649 231 q 647 228 647 231 l 649 231 m 157 208 l 157 213 q 156 215 157 214 q 156 218 156 217 l 153 213 l 157 208 m 518 217 q 513 210 514 213 q 519 215 515 211 l 518 217 m 660 207 l 665 211 l 665 213 l 658 207 l 660 207 m 142 188 q 158 154 149 171 q 182 125 168 138 l 188 128 l 193 126 l 179 149 l 181 153 q 164 178 172 165 q 144 201 156 190 q 142 188 144 196 m 675 197 l 674 200 l 672 199 l 674 196 l 675 197 m 631 196 l 629 194 l 636 186 l 635 189 l 635 192 l 631 196 m 115 169 l 115 172 q 108 181 111 176 q 100 190 104 186 q 108 175 104 183 q 114 158 111 167 l 115 169 m 522 178 l 522 175 q 533 183 529 178 l 533 188 l 522 178 m 551 171 q 557 176 556 172 l 554 176 l 551 171 m 675 140 q 731 101 700 121 q 695 135 711 117 q 660 168 679 153 l 675 140 m 608 161 l 603 164 q 531 105 567 133 q 458 49 496 76 q 538 99 503 68 q 610 161 574 129 l 608 161 m 146 122 q 148 122 147 122 q 150 121 149 121 l 157 121 l 146 136 l 146 122 m 383 113 l 386 113 l 389 114 l 382 113 l 381 111 l 383 113 m 360 108 q 369 108 364 107 q 378 111 374 110 l 360 108 m 515 111 q 489 90 501 106 q 515 111 506 100 m 422 97 q 414 85 415 90 q 422 88 418 86 q 428 90 425 89 l 442 104 l 422 97 m 424 101 l 424 100 l 425 101 l 424 101 m 324 44 q 338 49 331 47 q 353 51 346 50 l 364 60 l 361 63 l 367 68 q 397 79 382 72 q 422 97 411 86 q 392 85 407 92 q 365 67 376 79 l 361 67 l 358 65 l 358 58 l 354 58 q 338 52 347 53 q 322 46 329 51 l 324 44 m 453 78 q 456 85 454 82 q 460 93 457 89 l 449 89 l 449 82 l 453 78 m 154 86 q 181 57 161 65 l 182 64 q 168 76 175 69 q 154 86 161 82 m 319 76 q 336 83 325 78 l 318 83 l 319 76 m 281 83 l 279 78 l 297 83 l 281 83 m 718 74 l 726 67 l 728 67 l 732 69 l 724 76 l 718 74 m 458 68 l 451 72 l 446 64 l 453 61 q 459 66 456 64 q 465 71 463 68 l 458 68 m 194 57 l 194 58 q 192 60 193 58 l 192 57 l 194 57 m 194 54 l 197 54 l 199 56 l 200 56 l 199 57 l 194 57 l 194 54 m 376 32 l 376 35 l 379 42 l 368 38 l 365 28 l 376 32 m 768 29 q 790 10 776 22 q 815 -1 804 -1 l 818 -1 q 803 16 811 8 q 786 32 794 24 l 788 36 l 782 38 l 781 38 l 782 36 l 778 36 l 775 38 l 768 29 m 175 -17 q 180 -6 179 -12 q 181 7 181 0 q 164 4 175 6 q 153 13 153 3 q 165 28 157 22 l 157 36 q 155 37 156 36 q 153 38 154 38 l 149 38 q 138 28 149 28 q 153 2 144 17 q 175 -17 163 -12 m 349 22 l 353 29 l 364 36 l 353 35 l 350 26 l 343 22 l 349 22 m 288 24 l 289 25 l 286 24 l 288 24 m 343 22 q 333 23 338 22 q 322 24 328 24 l 313 24 l 324 19 q 333 19 328 19 q 342 21 338 19 l 343 22 m 221 13 l 222 15 l 219 21 l 213 18 l 221 13 m 246 3 q 258 -1 253 1 q 269 -7 264 -4 q 292 -3 281 -7 q 314 6 303 0 l 304 4 q 293 -1 299 1 q 281 -4 288 -4 q 260 0 271 -4 l 261 3 q 249 4 257 4 l 246 3 z "},"'":{"ha":256,"x_min":18,"x_max":242,"o":"m 53 1118 l 60 1124 q 70 1115 69 1124 q 72 1099 71 1106 l 83 1099 q 83 1112 83 1103 q 83 1129 82 1121 q 86 1144 83 1138 q 94 1151 89 1151 l 101 1146 l 107 1157 q 113 1151 113 1157 q 114 1142 114 1144 l 114 1136 q 123 1130 121 1136 q 125 1117 125 1124 l 124 1100 l 129 1100 q 129 1118 129 1110 q 131 1136 129 1126 l 135 1142 q 143 1131 142 1142 q 144 1114 144 1119 q 144 1107 144 1111 q 143 1100 143 1103 q 158 1101 153 1100 l 158 1119 l 165 1126 q 171 1115 169 1126 q 172 1100 172 1103 l 176 1100 q 181 1115 178 1104 q 189 1125 183 1125 l 196 1118 l 193 1100 q 207 1098 200 1100 q 214 1088 214 1096 q 224 1088 219 1088 q 235 1089 229 1089 l 242 1082 l 235 1075 q 213 1072 224 1072 q 190 1069 201 1072 l 214 1069 l 219 1063 l 215 1056 l 186 1051 q 185 972 186 1011 q 178 892 185 932 q 181 873 181 885 q 180 847 181 861 q 176 821 179 833 q 171 801 174 808 l 171 797 l 175 793 q 168 756 168 774 q 165 717 168 738 l 158 710 l 151 717 q 152 747 151 732 q 154 778 153 763 q 126 771 140 778 l 122 774 l 106 774 l 100 779 l 103 786 l 94 786 q 94 772 94 782 q 88 763 94 763 l 82 769 q 81 776 81 772 q 79 783 81 781 q 65 781 72 782 q 50 779 57 779 l 44 785 q 58 796 44 794 q 78 797 71 797 l 76 799 q 68 800 74 799 q 63 806 63 801 q 67 813 63 811 q 75 814 71 814 q 76 844 75 829 q 76 875 76 860 q 70 879 72 874 q 67 893 68 885 q 65 909 65 901 q 65 918 65 917 l 65 1001 q 60 1023 60 1011 q 58 1046 60 1035 q 35 1047 53 1046 q 18 1054 18 1047 q 31 1064 18 1063 q 50 1065 43 1065 q 53 1065 53 1065 q 57 1064 54 1064 l 57 1067 l 39 1067 l 33 1072 q 42 1079 33 1079 q 51 1086 43 1083 q 39 1086 49 1086 q 29 1092 29 1086 l 35 1099 l 57 1099 l 57 1111 l 53 1118 m 71 1064 l 75 1064 l 75 1067 l 71 1067 l 71 1064 m 151 1028 q 157 1044 151 1039 l 158 1049 l 157 1050 l 151 1049 l 151 1028 m 92 1043 q 90 1019 92 1032 q 88 996 89 1007 l 93 994 l 92 1043 m 94 903 l 99 936 l 94 943 l 94 903 m 115 865 q 117 886 118 876 q 117 907 117 896 l 115 907 l 115 865 m 154 829 q 156 845 156 838 q 157 861 156 853 l 153 829 l 154 829 m 101 819 l 101 860 q 101 839 101 850 q 99 819 101 828 l 101 819 m 135 825 l 136 826 q 137 841 136 833 q 139 856 138 849 q 135 831 135 843 l 135 825 m 118 822 q 121 832 119 826 q 121 842 122 838 q 119 832 119 836 q 118 822 119 828 m 153 811 l 151 811 l 151 810 l 150 808 q 145 803 149 806 q 139 799 142 801 l 151 800 l 153 811 z "},"(":{"ha":453,"x_min":29,"x_max":503,"o":"m 371 1088 q 378 1074 376 1088 q 382 1057 379 1061 q 388 1052 385 1054 q 394 1047 392 1050 q 423 1076 408 1063 q 453 1103 438 1090 l 460 1096 q 454 1083 460 1092 q 441 1066 449 1075 q 426 1049 433 1057 q 415 1038 419 1042 l 413 1028 l 415 1025 q 422 1036 418 1029 q 432 1043 426 1043 l 439 1036 l 426 1013 q 438 1000 431 1008 q 453 982 444 992 q 468 965 461 972 q 479 956 475 958 q 492 949 485 953 q 500 939 500 946 l 493 932 q 476 937 488 932 q 453 948 465 942 q 431 960 442 954 q 415 971 419 967 q 424 956 421 965 l 418 947 q 433 930 422 942 q 454 906 443 918 q 474 884 465 894 q 483 869 483 874 l 476 861 q 461 873 472 863 q 438 896 450 883 q 416 920 426 908 q 400 938 406 932 l 400 926 l 394 919 q 384 928 389 925 q 372 936 379 932 q 347 909 361 921 q 319 883 333 897 l 326 872 q 294 752 318 810 q 247 636 271 694 q 237 613 243 625 q 228 588 231 600 l 215 492 l 208 486 l 204 488 q 204 472 204 479 q 206 456 204 464 q 215 438 214 454 q 217 415 217 422 q 222 304 217 360 q 226 193 226 249 l 221 186 q 351 -158 258 4 l 360 -164 l 361 -174 l 364 -178 q 392 -169 376 -175 q 421 -162 408 -162 l 422 -162 l 429 -169 l 428 -174 q 446 -171 439 -171 l 456 -178 q 447 -191 456 -189 q 431 -197 438 -193 q 461 -190 446 -194 q 492 -185 476 -185 q 503 -192 503 -185 q 489 -209 503 -200 q 468 -221 475 -218 q 449 -242 468 -233 q 419 -256 429 -251 l 426 -268 l 419 -275 l 414 -272 l 406 -261 l 393 -265 q 397 -292 397 -278 l 390 -303 q 376 -291 382 -301 q 367 -274 369 -281 l 365 -274 l 357 -279 l 351 -276 q 325 -283 338 -279 q 299 -287 313 -287 q 285 -275 289 -282 l 290 -268 l 293 -267 l 297 -267 l 299 -265 l 297 -262 l 211 -269 l 203 -261 q 214 -253 203 -254 q 229 -251 225 -251 l 238 -251 l 240 -250 l 244 -250 l 268 -239 l 272 -239 l 275 -237 l 272 -236 q 259 -237 265 -239 q 253 -226 253 -236 l 261 -218 l 257 -206 l 251 -208 q 226 -193 243 -208 q 194 -157 210 -178 q 167 -116 179 -136 q 156 -87 156 -96 q 156 -85 156 -86 q 157 -83 157 -85 q 136 -53 147 -69 q 115 -18 125 -36 q 99 19 106 0 q 92 54 92 38 l 94 60 l 94 75 l 97 81 q 94 92 94 86 q 90 103 93 97 q 73 119 78 103 q 65 144 68 135 q 56 156 60 151 q 44 167 51 161 l 43 172 l 50 179 l 54 178 q 40 231 40 206 q 42 242 40 236 q 51 247 44 247 q 49 274 50 261 q 49 301 49 288 q 42 310 44 301 q 38 328 39 318 q 37 347 38 338 q 36 360 36 356 q 38 384 36 369 q 39 414 39 399 q 38 443 39 429 q 31 464 36 457 q 30 480 31 472 q 29 496 29 488 q 31 540 29 507 q 36 610 32 574 q 47 674 40 646 q 65 701 54 701 l 72 694 l 72 690 q 81 715 76 703 q 92 739 85 728 q 101 771 92 754 l 96 769 l 89 775 q 101 795 89 779 q 126 828 113 811 q 151 858 139 844 q 165 872 164 872 q 167 872 167 872 q 169 871 168 871 q 194 899 181 886 q 218 928 207 913 q 227 943 221 932 q 240 966 233 954 q 254 987 247 978 q 265 997 261 996 l 272 990 l 269 979 l 272 982 l 296 1038 l 290 1043 q 286 1079 286 1063 q 283 1093 283 1083 q 292 1103 283 1103 q 299 1099 297 1103 q 301 1090 301 1094 l 315 1076 l 319 1079 q 328 1069 328 1079 l 331 1069 q 329 1082 329 1075 q 338 1089 329 1089 q 339 1099 338 1093 q 347 1106 340 1106 q 355 1089 351 1097 q 364 1074 358 1081 q 365 1083 364 1078 q 371 1088 365 1088 m 315 1018 q 310 1007 314 1013 l 318 1015 l 315 1018 m 431 983 q 424 992 428 988 q 417 1000 419 996 l 411 990 q 439 975 425 981 l 431 982 l 431 983 m 347 940 q 357 956 351 944 l 347 940 m 283 935 l 283 936 l 279 932 l 279 929 l 283 935 m 247 922 l 247 924 l 246 922 l 247 922 m 307 904 q 313 918 310 913 q 303 904 306 913 l 307 904 m 261 903 l 261 903 q 260 901 260 903 l 260 901 l 261 903 m 167 838 l 160 833 l 154 836 l 133 803 l 140 799 q 148 819 143 808 q 164 831 153 831 q 171 844 169 839 l 167 838 m 249 693 l 249 697 l 260 721 l 260 725 q 276 766 272 744 q 292 807 279 788 l 292 811 l 303 835 l 303 839 l 304 842 q 283 808 293 829 q 265 765 274 788 q 251 719 257 742 q 243 679 246 696 l 249 693 m 172 796 q 165 785 169 789 q 160 774 161 781 l 163 776 l 164 776 l 172 796 m 128 781 l 128 785 l 121 781 l 114 765 q 124 779 121 769 l 128 781 m 169 781 l 167 778 l 168 778 l 169 781 m 219 757 l 219 757 q 221 762 219 760 q 222 767 222 764 l 222 771 l 219 760 l 219 758 l 219 758 l 218 757 l 219 757 m 93 699 q 110 731 104 714 q 126 764 115 749 l 126 765 q 110 732 117 750 q 93 699 104 714 m 110 658 q 119 674 114 667 q 126 690 124 682 l 128 694 l 128 703 l 128 704 l 128 706 l 128 706 l 129 707 l 128 706 l 128 706 q 120 682 124 694 q 110 658 117 669 m 176 690 l 176 685 l 178 686 l 178 689 l 179 690 l 179 694 l 176 690 m 196 636 q 198 651 197 643 q 201 665 199 658 l 200 665 l 200 664 l 196 657 q 195 649 196 653 q 194 640 194 644 l 194 635 l 196 636 m 143 660 q 140 653 142 657 q 138 646 139 650 q 144 660 143 654 l 143 660 m 71 596 l 74 600 l 74 604 l 75 606 l 75 625 q 72 608 72 617 q 71 592 71 600 l 71 596 m 119 553 q 131 585 128 568 q 138 618 135 601 l 133 614 l 129 617 q 124 587 128 601 q 119 557 119 572 l 119 553 m 106 600 q 111 618 111 607 l 106 610 l 106 600 m 43 551 q 47 576 46 564 q 53 600 49 589 q 50 615 50 604 q 44 583 46 600 q 43 551 43 567 m 82 571 q 78 558 81 564 q 76 546 76 553 q 78 535 76 539 l 82 571 m 189 540 q 189 553 189 547 q 188 565 189 558 l 181 519 l 189 540 m 74 514 q 75 504 74 507 l 76 510 l 74 514 m 56 489 q 56 497 56 493 q 57 504 57 500 l 57 507 l 53 500 l 53 486 l 56 489 m 138 493 l 139 493 l 140 504 l 139 503 l 139 499 l 138 496 l 138 493 m 75 438 l 75 483 q 72 460 72 472 q 69 435 71 447 l 75 438 m 183 379 q 184 415 182 397 q 186 450 186 432 l 186 463 q 182 390 182 428 q 183 388 182 389 q 183 385 183 386 l 182 376 l 183 379 m 175 313 q 179 344 176 328 q 182 376 182 361 l 182 392 q 181 404 182 399 q 179 417 181 410 q 177 366 179 392 q 175 315 175 340 l 175 313 m 74 329 q 76 345 75 338 q 78 361 78 353 q 77 378 78 369 q 76 394 76 386 q 74 362 75 378 q 74 329 74 346 m 96 347 l 94 343 l 96 336 l 97 344 q 97 347 97 347 l 96 347 m 94 343 q 92 330 93 336 q 94 317 92 324 l 94 343 m 81 306 l 79 308 l 79 310 l 78 307 l 81 301 l 81 306 m 108 300 q 106 279 106 286 l 107 281 l 107 285 l 108 286 l 108 300 m 183 285 q 184 290 183 288 q 185 294 185 292 l 185 297 l 179 297 l 183 285 m 182 249 q 176 262 178 256 q 172 275 175 268 q 175 257 174 265 q 178 239 176 249 l 182 243 l 182 249 m 104 165 q 103 172 104 168 q 101 181 101 176 l 97 178 l 97 176 q 104 160 103 165 l 104 165 m 233 54 q 219 113 226 83 q 201 171 211 142 q 215 112 208 139 q 233 54 221 85 m 179 72 l 181 71 l 181 72 q 179 75 179 74 l 179 85 l 179 86 l 178 88 l 178 88 l 178 89 l 178 88 l 178 88 l 178 86 l 178 85 q 177 83 178 83 q 176 82 176 83 l 176 79 l 179 72 m 232 7 q 226 22 229 14 q 224 38 224 29 l 222 29 q 227 17 225 22 q 232 7 229 13 m 208 -125 l 224 -136 l 214 -121 l 204 -119 q 172 -58 181 -89 q 151 7 164 -28 q 154 -15 153 -4 q 158 -37 156 -26 l 154 -44 q 178 -87 165 -67 q 204 -128 190 -107 l 206 -128 l 208 -125 m 264 -58 q 259 -37 261 -47 q 254 -15 257 -26 q 253 -27 254 -19 q 244 -35 251 -35 l 264 -58 m 238 -50 q 234 -33 235 -42 q 228 -18 233 -25 l 228 -35 l 236 -53 l 238 -50 m 347 -186 q 340 -166 346 -179 q 325 -137 333 -153 q 309 -108 317 -122 q 297 -87 301 -94 q 317 -139 307 -114 q 343 -187 328 -164 l 347 -186 m 260 -90 l 260 -92 l 261 -97 l 263 -94 l 260 -90 m 265 -118 l 265 -121 l 267 -122 l 265 -118 m 292 -194 q 281 -178 286 -186 q 272 -161 276 -169 q 279 -177 275 -169 q 283 -194 283 -185 l 288 -204 l 290 -207 l 293 -206 l 294 -206 l 293 -204 l 292 -194 m 322 -197 l 303 -162 q 310 -181 307 -171 q 321 -197 314 -190 l 322 -197 m 411 -244 q 418 -242 414 -243 q 425 -239 422 -242 l 407 -239 l 411 -244 m 389 -253 l 392 -251 l 396 -251 l 397 -250 l 392 -243 l 386 -246 l 389 -253 m 290 -247 l 278 -251 q 292 -249 283 -251 l 290 -247 m 329 -254 l 328 -253 l 328 -251 l 326 -250 l 325 -250 l 325 -256 l 329 -254 z "}}}
